<svg width="111" height="39" viewBox="0 0 111 39" fill="none" xmlns="http://www.w3.org/2000/svg">
<path d="M12.8559 9.16812H9.57446C9.46776 9.18499 9.35921 9.15874 9.27237 9.09499C9.1849 9.03124 9.12597 8.93499 9.10923 8.82812C8.79473 7.85499 8.46907 6.88249 8.13162 5.92124C8.00384 5.55812 8.13162 5.45249 8.45728 5.48749C8.78357 5.52312 8.96966 5.48749 9.21406 5.48749H15.0313C17.0094 5.48749 18.9994 5.48749 20.9769 5.48749C21.1835 5.48562 21.3869 5.53874 21.5656 5.64187C21.7449 5.74499 21.8937 5.89437 21.9967 6.07437C22.0997 6.25499 22.1536 6.45937 22.1524 6.66687C22.1512 6.87499 22.0947 7.07874 21.9893 7.25749C20.9769 8.95687 19.8486 10.5862 18.6849 12.3556C18.2891 11.3481 17.9405 10.4925 17.6031 9.63687C17.5212 9.43749 17.4865 9.21499 17.2538 9.12124L12.8559 9.16812Z" fill="white"/>
<mask id="mask0_12_606" style="mask-type:luminance" maskUnits="userSpaceOnUse" x="4" y="0" width="24" height="27">
<path d="M4.93335 0.225616H27.902V26.3731H4.93335V0.225616Z" fill="white"/>
</mask>
<g mask="url(#mask0_12_606)">
<path d="M6.08402 3.62375C6.10635 3.7275 6.16652 3.81875 6.25274 3.88C6.33896 3.94062 6.44504 3.96625 6.54925 3.9525H22.6642C23.8279 3.9525 24.2118 4.40937 24.2236 5.54625C24.2236 6.15562 24.2236 6.71812 24.2236 7.38625C24.2584 7.85812 24.1175 8.32625 23.8279 8.69875C23.1995 9.55437 22.6642 10.445 22.0129 11.3125C20.5818 13.2231 19.2668 15.2037 17.9052 17.1725C17.3122 18.005 16.7421 18.825 16.1367 19.6575C14.5897 21.8606 13.042 24.0525 11.4825 26.2556L11.3895 26.3731H15.8811C16.6956 25.0837 17.533 23.8062 18.3593 22.5169C19.7438 20.5362 21.0588 18.5319 22.3385 16.4812C22.3385 16.4812 22.4316 16.4106 22.4551 16.3637C24.1616 13.7775 25.868 11.1875 27.5745 8.59312C27.7104 8.3975 27.7836 8.16437 27.7836 7.92562C27.7836 5.71 27.7836 3.48312 27.7836 1.26812C27.533 0.80937 27.1161 0.464995 26.6205 0.307495H5.28134C4.97863 0.307495 4.89737 0.401245 5.00158 0.693745C5.43208 1.585 5.74657 2.56937 6.08402 3.62375Z" fill="white"/>
</g>
<mask id="mask1_12_606" style="mask-type:luminance" maskUnits="userSpaceOnUse" x="18" y="0" width="17" height="27">
<path d="M18.3741 0H34.2012V26.3056H18.3741V0Z" fill="white"/>
</mask>
<g mask="url(#mask1_12_606)">
<path d="M34.1485 1.60812C34.0821 1.2425 33.9041 0.9075 33.6392 0.64875C33.3744 0.39 33.0357 0.221875 32.6709 0.166875C31.9427 -0.055625 31.1654 -0.055625 30.4366 0.166875V2.1475C30.4366 3.6125 30.4366 5.0775 30.4366 6.5425C30.4893 7.01187 30.4478 7.4875 30.3138 7.94062C30.1798 8.39375 29.9565 8.815 29.6575 9.17937C29.4094 9.50937 29.1879 9.85812 28.9944 10.2225C28.6036 10.7375 28.2537 11.2819 27.9467 11.8519C26.5857 13.7737 25.3054 15.7312 24.0722 17.7119C23.9538 17.84 23.8452 17.9775 23.7466 18.1219C21.9626 20.8175 20.186 23.5212 18.4175 26.2325H22.6642C23.2231 25.3531 23.8278 24.4625 24.3284 23.5719C24.8284 22.6812 25.6081 21.6144 26.2365 20.63C27.2954 18.9425 28.3306 17.2544 29.3895 15.5787C30.9409 13.125 32.4923 10.6794 34.0437 8.24187C34.1336 8.08562 34.1783 7.90687 34.1721 7.72625L34.1485 1.60812Z" fill="white"/>
</g>
<path d="M46.9035 13.5926H42.4447L41.7301 15.7176H38.6857L43.008 3.68259H46.3775L50.6973 15.7176H47.6181L46.9035 13.5926ZM46.1542 11.3276L44.6753 6.92259L43.2114 11.3276H46.1542Z" fill="white"/>
<path d="M59.6144 7.48757C59.3991 7.08757 59.0896 6.78195 58.6864 6.57007C58.2844 6.35882 57.8111 6.25257 57.2671 6.25257C56.3243 6.25257 55.5687 6.56445 55.0018 7.18757C54.4361 7.81132 54.1532 8.64257 54.1532 9.68257C54.1532 10.7913 54.4509 11.6569 55.0464 12.2801C55.6419 12.9038 56.4614 13.2151 57.5053 13.2151C58.2199 13.2151 58.8235 13.0326 59.3166 12.6676C59.8091 12.3013 60.1689 11.7744 60.396 11.0876H56.7039V8.92757H63.0335V11.6551C62.8182 12.3869 62.4529 13.0669 61.9368 13.6951C61.4207 14.3238 60.7657 14.8319 59.9717 15.2201C59.1777 15.6088 58.2807 15.8026 57.282 15.8026C56.1022 15.8026 55.0502 15.5426 54.1259 15.0226C53.201 14.5026 52.4808 13.7801 51.9648 12.8551C51.4487 11.9288 51.1906 10.8713 51.1906 9.68257C51.1906 8.49445 51.4487 7.43445 51.9648 6.50257C52.4808 5.57132 53.1979 4.84507 54.116 4.32507C55.0353 3.80507 56.0861 3.54507 57.2671 3.54507C58.6963 3.54507 59.9009 3.89382 60.8823 4.59007C61.863 5.28695 62.5124 6.25257 62.83 7.48757H59.6144Z" fill="white"/>
<path d="M67.2373 13.4551H71.0485V15.7176H64.3268V3.68259H67.2373V13.4551Z" fill="white"/>
<path d="M79.5562 13.5926H75.0974L74.3828 15.7176H71.3384L75.6607 3.68259H79.0302L83.35 15.7176H80.2708L79.5562 13.5926ZM78.8069 11.3276L77.3281 6.92259L75.8641 11.3276H78.8069Z" fill="white"/>
<path d="M94.582 3.68259L90.4458 11.7401V15.7176H87.5378V11.7401L83.4016 3.68259H86.7016L89.0166 8.72259L91.3142 3.68259H94.582Z" fill="white"/>
<path d="M102.867 13.5926H98.4086L97.694 15.7176H94.6495L98.9718 3.68259H102.341L106.661 15.7176H103.582L102.867 13.5926ZM102.118 11.3276L100.639 6.92259L99.1753 11.3276H102.118Z" fill="white"/>
<path d="M39.6229 17.8861V23.2661H38.9257V17.8861H39.6229Z" fill="white"/>
<path d="M43.023 18.9586C43.5341 18.9586 43.9472 19.1149 44.2636 19.4261C44.5793 19.738 44.7375 20.1874 44.7375 20.7736V23.2661H44.0502V20.8736C44.0502 20.4524 43.9448 20.1299 43.7351 19.9061C43.5248 19.6811 43.2388 19.5686 42.8766 19.5686C42.5094 19.5686 42.2172 19.6849 42.0007 19.9161C41.7836 20.148 41.6757 20.4855 41.6757 20.9286V23.2661H40.9785V19.0361H41.6757V19.6386C41.8128 19.4224 41.9995 19.2549 42.2364 19.1361C42.4746 19.018 42.7364 18.9586 43.023 18.9586Z" fill="white"/>
<path d="M48.0933 18.9586C48.6044 18.9586 49.0176 19.1149 49.3339 19.4261C49.6496 19.738 49.8078 20.1874 49.8078 20.7736V23.2661H49.1205V20.8736C49.1205 20.4524 49.0151 20.1299 48.8054 19.9061C48.5951 19.6811 48.3092 19.5686 47.9469 19.5686C47.5797 19.5686 47.2875 19.6849 47.071 19.9161C46.8539 20.148 46.746 20.4855 46.746 20.9286V23.2661H46.0488V19.0361H46.746V19.6386C46.8831 19.4224 47.0698 19.2549 47.3067 19.1361C47.5449 19.018 47.8067 18.9586 48.0933 18.9586Z" fill="white"/>
<path d="M52.9478 23.3361C52.5557 23.3361 52.1997 23.2461 51.8808 23.0661C51.5614 22.8861 51.3108 22.6305 51.129 22.2986C50.9485 21.9655 50.8586 21.5805 50.8586 21.1436C50.8586 20.7124 50.951 20.3305 51.1365 19.9986C51.3232 19.6674 51.5769 19.413 51.8982 19.2361C52.2208 19.058 52.5812 18.9686 52.98 18.9686C53.3783 18.9686 53.738 19.058 54.0594 19.2361C54.3819 19.413 54.6356 19.6661 54.8211 19.9961C55.0078 20.3249 55.1015 20.7074 55.1015 21.1436C55.1015 21.5805 55.0053 21.9655 54.8137 22.2986C54.6214 22.6305 54.3621 22.8861 54.0345 23.0661C53.7083 23.2461 53.346 23.3361 52.9478 23.3361ZM52.9478 22.7186C53.199 22.7186 53.4341 22.6599 53.6524 22.5411C53.872 22.423 54.0501 22.2455 54.1859 22.0086C54.3211 21.7724 54.3894 21.4836 54.3894 21.1436C54.3894 20.8036 54.3224 20.5155 54.1884 20.2786C54.0556 20.0424 53.882 19.8661 53.6673 19.7511C53.4539 19.6349 53.2219 19.5761 52.9726 19.5761C52.7158 19.5761 52.4819 19.6349 52.2704 19.7511C52.0583 19.8661 51.8889 20.0424 51.7617 20.2786C51.634 20.5155 51.5707 20.8036 51.5707 21.1436C51.5707 21.4886 51.6327 21.7799 51.7568 22.0161C51.8821 22.253 52.0496 22.4299 52.258 22.5461C52.4677 22.6611 52.6978 22.7186 52.9478 22.7186Z" fill="white"/>
<path d="M57.7501 22.6186L59.0528 19.0361H59.7972L58.1496 23.2661H57.3383L55.6907 19.0361H56.4425L57.7501 22.6186Z" fill="white"/>
<path d="M60.3943 21.1361C60.3943 20.7049 60.4811 20.3255 60.6548 19.9986C60.8285 19.6724 61.0667 19.4186 61.3694 19.2386C61.6734 19.0586 62.012 18.9686 62.3842 18.9686C62.7527 18.9686 63.0721 19.0486 63.342 19.2086C63.6131 19.3674 63.8147 19.5674 63.9474 19.8086V19.0361H64.6521V23.2661H63.9474V22.4786C63.8097 22.7255 63.6037 22.9305 63.3296 23.0936C63.0566 23.2555 62.739 23.3361 62.3768 23.3361C62.0046 23.3361 61.6678 23.2436 61.3669 23.0586C61.0655 22.8736 60.8285 22.6136 60.6548 22.2786C60.4811 21.9436 60.3943 21.563 60.3943 21.1361ZM63.9474 21.1436C63.9474 20.8255 63.8835 20.548 63.7563 20.3111C63.6286 20.0749 63.4561 19.893 63.2378 19.7661C63.0207 19.6399 62.7825 19.5761 62.5232 19.5761C62.2614 19.5761 62.0232 19.6386 61.8086 19.7636C61.5952 19.8874 61.4246 20.0674 61.2975 20.3036C61.1697 20.5405 61.1064 20.818 61.1064 21.1361C61.1064 21.4599 61.1697 21.7411 61.2975 21.9811C61.4246 22.2211 61.5952 22.4049 61.8086 22.5311C62.0232 22.6561 62.2614 22.7186 62.5232 22.7186C62.7825 22.7186 63.0207 22.6561 63.2378 22.5311C63.4561 22.4049 63.6286 22.2211 63.7563 21.9811C63.8835 21.7411 63.9474 21.4624 63.9474 21.1436Z" fill="white"/>
<path d="M66.8494 19.6161V22.1086C66.8494 22.3136 66.8922 22.4586 66.9785 22.5436C67.0659 22.6286 67.2173 22.6711 67.4325 22.6711H67.9461V23.2661H67.3184C66.9295 23.2661 66.6373 23.1761 66.4425 22.9961C66.249 22.8161 66.1522 22.5205 66.1522 22.1086V19.6161H65.6088V19.0361H66.1522V17.9711H66.8494V19.0361H67.9461V19.6161H66.8494Z" fill="white"/>
<path d="M69.3171 18.3511C69.1843 18.3511 69.0721 18.3049 68.9796 18.2111C68.8866 18.118 68.8407 18.0049 68.8407 17.8711C68.8407 17.738 68.8866 17.6255 68.9796 17.5336C69.0721 17.4405 69.1843 17.3936 69.3171 17.3936C69.4443 17.3936 69.5528 17.4405 69.6421 17.5336C69.7315 17.6255 69.7761 17.738 69.7761 17.8711C69.7761 18.0049 69.7315 18.118 69.6421 18.2111C69.5528 18.3049 69.4443 18.3511 69.3171 18.3511ZM69.6545 19.0361V23.2661H68.9573V19.0361H69.6545Z" fill="white"/>
<path d="M72.8386 23.3361C72.4465 23.3361 72.0905 23.2461 71.7717 23.0661C71.4522 22.8861 71.2016 22.6305 71.0198 22.2986C70.8393 21.9655 70.7494 21.5805 70.7494 21.1436C70.7494 20.7124 70.8418 20.3305 71.0273 19.9986C71.214 19.6674 71.4677 19.413 71.789 19.2361C72.1116 19.058 72.472 18.9686 72.8708 18.9686C73.2691 18.9686 73.6288 19.058 73.9502 19.2361C74.2727 19.413 74.5264 19.6661 74.7119 19.9961C74.8986 20.3249 74.9923 20.7074 74.9923 21.1436C74.9923 21.5805 74.8961 21.9655 74.7045 22.2986C74.5122 22.6305 74.2529 22.8861 73.9254 23.0661C73.5991 23.2461 73.2368 23.3361 72.8386 23.3361ZM72.8386 22.7186C73.0898 22.7186 73.3249 22.6599 73.5432 22.5411C73.7628 22.423 73.9409 22.2455 74.0767 22.0086C74.2119 21.7724 74.2802 21.4836 74.2802 21.1436C74.2802 20.8036 74.2132 20.5155 74.0792 20.2786C73.9464 20.0424 73.7728 19.8661 73.5581 19.7511C73.3447 19.6349 73.1128 19.5761 72.8634 19.5761C72.6066 19.5761 72.3727 19.6349 72.1612 19.7511C71.9491 19.8661 71.7797 20.0424 71.6526 20.2786C71.5248 20.5155 71.4615 20.8036 71.4615 21.1436C71.4615 21.4886 71.5235 21.7799 71.6476 22.0161C71.7729 22.253 71.9404 22.4299 72.1488 22.5461C72.3585 22.6611 72.5886 22.7186 72.8386 22.7186Z" fill="white"/>
<path d="M78.1249 18.9586C78.636 18.9586 79.0491 19.1149 79.3655 19.4261C79.6812 19.738 79.8394 20.1874 79.8394 20.7736V23.2661H79.1521V20.8736C79.1521 20.4524 79.0466 20.1299 78.837 19.9061C78.6267 19.6811 78.3407 19.5686 77.9785 19.5686C77.6112 19.5686 77.3191 19.6849 77.1026 19.9161C76.8855 20.148 76.7775 20.4855 76.7775 20.9286V23.2661H76.0803V19.0361H76.7775V19.6386C76.9146 19.4224 77.1013 19.2549 77.3383 19.1361C77.5765 19.018 77.8383 18.9586 78.1249 18.9586Z" fill="white"/>
</svg>
