<svg width="32" height="63" viewBox="0 0 32 63" fill="none" xmlns="http://www.w3.org/2000/svg">
<path d="M2.0328 0.992842C2.0328 1.55695 1.58107 2.00824 1.0164 2.00824C0.451733 2.00824 0 1.55695 0 0.992842C0 0.42873 0.451733 0 1.0164 0C1.58107 0 2.0328 0.451295 2.0328 0.992842Z" fill="white"/>
<path d="M2.0328 11.1694C2.0328 11.7335 1.58107 12.1848 1.0164 12.1848C0.451733 12.1848 0 11.7335 0 11.1694C0 10.6053 0.451733 10.1766 1.0164 10.1766C1.58107 10.1766 2.0328 10.6279 2.0328 11.1694Z" fill="white"/>
<path d="M2.0328 21.3234C2.0328 21.8876 1.58107 22.3163 1.0164 22.3163C0.451733 22.3163 0 21.865 0 21.3234C0 20.7819 0.451733 20.308 1.0164 20.308C1.58107 20.308 2.0328 20.7593 2.0328 21.3234Z" fill="white"/>
<path d="M2.0328 31.5C2.0328 32.0641 1.58107 32.4929 1.0164 32.4929C0.451733 32.4929 0 32.0416 0 31.5C0 30.9585 0.451733 30.4846 1.0164 30.4846C1.58107 30.4846 2.0328 30.9359 2.0328 31.5Z" fill="white"/>
<path d="M2.0328 41.654C2.0328 42.2181 1.58107 42.6469 1.0164 42.6469C0.451733 42.6469 0 42.1956 0 41.654C0 41.1125 0.451733 40.6386 1.0164 40.6386C1.58107 40.6386 2.0328 41.0899 2.0328 41.654Z" fill="white"/>
<path d="M2.0328 51.8306C2.0328 52.3947 1.58107 52.846 1.0164 52.846C0.451733 52.846 0 52.3947 0 51.8306C0 51.2665 0.451733 50.8378 1.0164 50.8378C1.58107 50.8378 2.0328 51.2891 2.0328 51.8306Z" fill="white"/>
<path d="M2.0328 62.0072C2.0328 62.5713 1.58107 63 1.0164 63C0.451733 63 0 62.5487 0 62.0072C0 61.4656 0.451733 60.9918 1.0164 60.9918C1.58107 60.9918 2.0328 61.4431 2.0328 62.0072Z" fill="white"/>
<path d="M11.6999 0.992858C11.6999 1.55697 11.2482 2.00825 10.6835 2.00825C10.1188 2.00825 9.6897 1.55697 9.6897 0.992858C9.6897 0.428746 10.1414 1.52588e-05 10.6835 1.52588e-05C11.2256 1.52588e-05 11.6999 0.45131 11.6999 0.992858Z" fill="white"/>
<path d="M11.6999 11.1694C11.6999 11.7335 11.2482 12.1848 10.6835 12.1848C10.1188 12.1848 9.6897 11.7335 9.6897 11.1694C9.6897 10.6053 10.1414 10.1766 10.6835 10.1766C11.2256 10.1766 11.6999 10.6279 11.6999 11.1694Z" fill="white"/>
<path d="M11.6999 21.3234C11.6999 21.8876 11.2482 22.3163 10.6835 22.3163C10.1188 22.3163 9.6897 21.865 9.6897 21.3234C9.6897 20.7819 10.1414 20.308 10.6835 20.308C11.2256 20.308 11.6999 20.7593 11.6999 21.3234Z" fill="white"/>
<path d="M11.6999 31.5C11.6999 32.0641 11.2482 32.4929 10.6835 32.4929C10.1188 32.4929 9.6897 32.0416 9.6897 31.5C9.6897 30.9585 10.1414 30.4846 10.6835 30.4846C11.2256 30.4846 11.6999 30.9359 11.6999 31.5Z" fill="white"/>
<path d="M11.6999 41.654C11.6999 42.2181 11.2482 42.6469 10.6835 42.6469C10.1188 42.6469 9.6897 42.1956 9.6897 41.654C9.6897 41.1125 10.1414 40.6386 10.6835 40.6386C11.2256 40.6386 11.6999 41.0899 11.6999 41.654Z" fill="white"/>
<path d="M11.6999 51.8306C11.6999 52.3947 11.2482 52.846 10.6835 52.846C10.1188 52.846 9.6897 52.3947 9.6897 51.8306C9.6897 51.2665 10.1414 50.8378 10.6835 50.8378C11.2256 50.8378 11.6999 51.2891 11.6999 51.8306Z" fill="white"/>
<path d="M11.6999 62.0072C11.6999 62.5713 11.2482 63 10.6835 63C10.1188 63 9.6897 62.5487 9.6897 62.0072C9.6897 61.4656 10.1414 60.9918 10.6835 60.9918C11.2256 60.9918 11.6999 61.4431 11.6999 62.0072Z" fill="white"/>
<path d="M21.367 0.992858C21.367 1.55697 20.9152 2.00825 20.3506 2.00825C19.7859 2.00825 19.3568 1.55697 19.3568 0.992858C19.3568 0.428746 19.8085 1.52588e-05 20.3506 1.52588e-05C20.8926 1.52588e-05 21.367 0.45131 21.367 0.992858Z" fill="white"/>
<path d="M21.367 11.1694C21.367 11.7335 20.9152 12.1848 20.3506 12.1848C19.7859 12.1848 19.3568 11.7335 19.3568 11.1694C19.3568 10.6053 19.8085 10.1766 20.3506 10.1766C20.8926 10.1766 21.367 10.6279 21.367 11.1694Z" fill="white"/>
<path d="M21.367 21.3234C21.367 21.8876 20.9152 22.3163 20.3506 22.3163C19.7859 22.3163 19.3568 21.865 19.3568 21.3234C19.3568 20.7819 19.8085 20.308 20.3506 20.308C20.8926 20.308 21.367 20.7593 21.367 21.3234Z" fill="white"/>
<path d="M21.367 31.5C21.367 32.0641 20.9152 32.4929 20.3506 32.4929C19.7859 32.4929 19.3568 32.0416 19.3568 31.5C19.3568 30.9585 19.8085 30.4846 20.3506 30.4846C20.8926 30.4846 21.367 30.9359 21.367 31.5Z" fill="white"/>
<path d="M21.367 41.654C21.367 42.2181 20.9152 42.6469 20.3506 42.6469C19.7859 42.6469 19.3568 42.1956 19.3568 41.654C19.3568 41.1125 19.8085 40.6386 20.3506 40.6386C20.8926 40.6386 21.367 41.0899 21.367 41.654Z" fill="white"/>
<path d="M21.367 51.8306C21.367 52.3947 20.9152 52.846 20.3506 52.846C19.7859 52.846 19.3568 52.3947 19.3568 51.8306C19.3568 51.2665 19.8085 50.8378 20.3506 50.8378C20.8926 50.8378 21.367 51.2891 21.367 51.8306Z" fill="white"/>
<path d="M21.367 62.0072C21.367 62.5713 20.9152 63 20.3506 63C19.7859 63 19.3568 62.5487 19.3568 62.0072C19.3568 61.4656 19.8085 60.9918 20.3506 60.9918C20.8926 60.9918 21.367 61.4431 21.367 62.0072Z" fill="white"/>
<path d="M31.0341 0.992858C31.0341 1.55697 30.5823 2.00825 30.0403 2.00825C29.4982 2.00825 29.0464 1.55697 29.0464 0.992858C29.0464 0.428746 29.4982 1.52588e-05 30.0403 1.52588e-05C30.5823 1.52588e-05 31.0341 0.45131 31.0341 0.992858Z" fill="white"/>
<path d="M31.0341 11.1694C31.0341 11.7335 30.5823 12.1848 30.0403 12.1848C29.4982 12.1848 29.0464 11.7335 29.0464 11.1694C29.0464 10.6053 29.4982 10.1766 30.0403 10.1766C30.5823 10.1766 31.0341 10.6279 31.0341 11.1694Z" fill="white"/>
<path d="M31.0341 21.3234C31.0341 21.8876 30.5823 22.3163 30.0403 22.3163C29.4982 22.3163 29.0464 21.865 29.0464 21.3234C29.0464 20.7819 29.4982 20.308 30.0403 20.308C30.5823 20.308 31.0341 20.7593 31.0341 21.3234Z" fill="white"/>
<path d="M31.0341 31.5C31.0341 32.0641 30.5823 32.4929 30.0403 32.4929C29.4982 32.4929 29.0464 32.0416 29.0464 31.5C29.0464 30.9585 29.4982 30.4846 30.0403 30.4846C30.5823 30.4846 31.0341 30.9359 31.0341 31.5Z" fill="white"/>
<path d="M30.0403 42.6469C30.5891 42.6469 31.0341 42.2024 31.0341 41.654C31.0341 41.1057 30.5891 40.6612 30.0403 40.6612C29.4914 40.6612 29.0464 41.1057 29.0464 41.654C29.0464 42.2024 29.4914 42.6469 30.0403 42.6469Z" fill="white"/>
<path d="M31.0341 51.8306C31.0341 52.3947 30.5823 52.846 30.0403 52.846C29.4982 52.846 29.0464 52.3947 29.0464 51.8306C29.0464 51.2665 29.4982 50.8378 30.0403 50.8378C30.5823 50.8378 31.0341 51.2891 31.0341 51.8306Z" fill="white"/>
<path d="M31.0341 62.0072C31.0341 62.5713 30.5823 63 30.0403 63C29.4982 63 29.0464 62.5487 29.0464 62.0072C29.0464 61.4656 29.4982 60.9918 30.0403 60.9918C30.5823 60.9918 31.0341 61.4431 31.0341 62.0072Z" fill="white"/>
</svg>
