<svg width="22" height="77" viewBox="0 0 22 77" fill="none" xmlns="http://www.w3.org/2000/svg">
<rect x="20.9999" y="6.36363" width="7" height="7" rx="1" transform="rotate(90 20.9999 6.36363)" fill="#9D94D7"/>
<rect x="20.9999" y="28" width="7" height="7" rx="1" transform="rotate(90 20.9999 28)" fill="#E95063"/>
<rect x="14" y="35" width="7" height="7" rx="1" transform="rotate(90 14 35)" fill="#9D94D7"/>
<rect x="20.9999" y="42" width="7" height="7" rx="1" transform="rotate(90 20.9999 42)" fill="#9D94D7"/>
<rect x="14" y="49" width="7" height="7" rx="1" transform="rotate(90 14 49)" fill="#E95063"/>
<rect x="21.6364" y="56" width="7" height="7" rx="1" transform="rotate(90 21.6364 56)" fill="#9D94D7"/>
<rect x="14" y="63" width="7" height="7" rx="1" transform="rotate(90 14 63)" fill="#9D94D7"/>
<rect x="20.9999" y="70" width="7" height="7" rx="1" transform="rotate(90 20.9999 70)" fill="#9D94D7"/>
<rect x="7.00006" y="70" width="7" height="7" rx="1" transform="rotate(90 7.00006 70)" fill="#E95063"/>
<rect x="7.00006" y="56" width="7" height="7" rx="1" transform="rotate(90 7.00006 56)" fill="#9D94D7"/>
<rect x="14" y="21" width="7" height="14" rx="1" transform="rotate(90 14 21)" fill="#9D94D7"/>
<rect x="14" width="7" height="7" rx="1" transform="rotate(90 14 0)" fill="#9D94D7"/>
<rect x="7.00006" y="7" width="7" height="7" rx="1" transform="rotate(90 7.00006 7)" fill="#E95063"/>
</svg>
