<svg width="22" height="22" viewBox="0 0 22 22" fill="none" xmlns="http://www.w3.org/2000/svg">
<g clip-path="url(#clip0_12_702)">
<path d="M21.0852 19.7853H21.2933L20.8945 19.1822C21.1383 19.1822 21.2676 19.0273 21.2694 18.8375C21.2694 18.8302 21.2694 18.8219 21.2685 18.8146C21.2685 18.5561 21.1127 18.4323 20.7928 18.4323H20.2758V19.7853H20.4701V19.1959H20.7093L21.0852 19.7853ZM20.6956 19.0428H20.4701V18.5854H20.7561C20.9037 18.5854 21.0723 18.6093 21.0723 18.8027C21.0723 19.0245 20.9028 19.0428 20.6956 19.0428Z" fill="white"/>
<path d="M15.8501 17.4836H13.0937V13.167C13.0937 12.1376 13.0753 10.813 11.66 10.813C10.2245 10.813 10.0045 11.9341 10.0045 13.0928V17.4836H7.249V8.60659H9.89542V9.81934H9.93208C10.472 8.89717 11.4748 8.34625 12.5427 8.38567C15.3367 8.38567 15.851 10.2236 15.851 12.6133L15.8501 17.4836ZM4.13875 7.39292C3.25508 7.39292 2.53917 6.677 2.53917 5.79334C2.53917 4.90967 3.25508 4.19375 4.13875 4.19375C5.02242 4.19375 5.73833 4.90967 5.73833 5.79334C5.73833 6.677 5.02242 7.39292 4.13875 7.39292ZM5.5165 17.4836H2.75733V8.60659H5.5165V17.4836ZM17.2242 1.63442H1.37225C0.623333 1.62617 0.00916667 2.22659 0 2.9755V18.8925C0.00916667 19.6423 0.623333 20.2428 1.37225 20.2345H17.2242C17.9749 20.2437 18.5918 19.6433 18.6019 18.8925V2.97459C18.5909 2.22384 17.974 1.62342 17.2242 1.6335" fill="white"/>
<path d="M20.7194 17.8301C20.0191 17.8365 19.4562 18.4103 19.4636 19.1107C19.47 19.811 20.0438 20.3738 20.7442 20.3665C21.4445 20.3601 22.0073 19.7863 22 19.0859C21.9936 18.3948 21.4344 17.8365 20.7442 17.8301H20.7194ZM20.7487 20.2208C20.1346 20.2308 19.5992 19.7423 19.5892 19.1281C19.5791 18.5139 20.0686 18.0079 20.6827 17.9978C21.2969 17.9878 21.8029 18.4773 21.813 19.0914C21.813 19.0978 21.813 19.1033 21.813 19.1098C21.8258 19.7102 21.3492 20.2079 20.7487 20.2208H20.7203H20.7487Z" fill="white"/>
</g>
<defs>
<clipPath id="clip0_12_702">
<rect width="22" height="22" fill="white"/>
</clipPath>
</defs>
</svg>
