<svg width="239" height="66" viewBox="0 0 239 66" fill="none" xmlns="http://www.w3.org/2000/svg">
<path d="M115.944 59.5637C115.588 59.6791 115.204 59.7367 114.81 59.7367C114.31 59.7367 113.868 59.6598 113.474 59.4964C113.08 59.333 112.753 59.112 112.474 58.8236C112.195 58.5353 111.994 58.1893 111.849 57.7856C111.705 57.3819 111.638 56.9398 111.638 56.4496C111.638 55.9594 111.715 55.5461 111.859 55.1424C112.003 54.7387 112.224 54.3927 112.503 54.0948C112.782 53.7968 113.118 53.5661 113.503 53.4027C113.897 53.2393 114.329 53.1528 114.81 53.1528C115.146 53.1528 115.473 53.1913 115.8 53.2682C115.838 53.2778 115.886 53.297 115.944 53.3066C116.002 53.3258 116.059 53.3355 116.127 53.3547C116.184 53.3739 116.252 53.3931 116.3 53.4027C116.348 53.4123 116.405 53.422 116.444 53.422C116.559 53.422 116.636 53.3643 116.665 53.2489H116.771V53.595C116.771 53.7199 116.771 53.8449 116.771 53.9794C116.771 54.114 116.771 54.2389 116.751 54.3639C116.751 54.4888 116.723 54.5946 116.703 54.6907C116.482 54.3351 116.242 54.0659 115.973 53.8833C115.704 53.7007 115.358 53.6046 114.925 53.6046C114.493 53.6046 114.147 53.6815 113.839 53.8352C113.532 53.989 113.282 54.1909 113.08 54.4504C112.888 54.7099 112.734 55.0079 112.638 55.3539C112.542 55.6999 112.493 56.0651 112.493 56.44C112.493 56.8148 112.542 57.1993 112.647 57.5453C112.743 57.8913 112.897 58.1893 113.099 58.4392C113.301 58.6891 113.56 58.8909 113.868 59.0351C114.175 59.1793 114.541 59.2562 114.973 59.2562C115.127 59.2562 115.29 59.2562 115.463 59.2562C115.636 59.2562 115.809 59.2369 115.982 59.2081C116.155 59.1793 116.319 59.1408 116.473 59.0735C116.626 59.0159 116.771 58.9294 116.896 58.8236L116.934 58.987C116.636 59.2562 116.3 59.4484 115.944 59.5637Z" fill="#007EA9"/>
<path d="M123.037 57.7273C122.902 58.1213 122.71 58.477 122.46 58.7749C122.21 59.0729 121.893 59.3132 121.528 59.4862C121.163 59.6592 120.74 59.7457 120.259 59.7457C119.779 59.7457 119.356 59.6592 118.981 59.4862C118.616 59.3132 118.299 59.0825 118.049 58.7845C117.799 58.4866 117.606 58.1406 117.482 57.7369C117.357 57.3332 117.289 56.9103 117.289 56.4586C117.289 55.9011 117.376 55.4205 117.539 55.0072C117.712 54.5939 117.933 54.2479 118.212 53.9692C118.491 53.6904 118.808 53.479 119.173 53.3444C119.529 53.2099 119.894 53.1426 120.259 53.1426C120.625 53.1426 120.99 53.2195 121.345 53.354C121.701 53.4886 122.018 53.7 122.307 53.9692C122.585 54.2479 122.816 54.5939 122.979 55.0072C123.152 55.4205 123.229 55.9107 123.229 56.4586C123.229 56.9103 123.162 57.3332 123.037 57.7273ZM122.278 55.459C122.201 55.1226 122.076 54.815 121.903 54.5363C121.73 54.2575 121.518 54.0365 121.249 53.8634C120.98 53.6904 120.653 53.6039 120.269 53.6039C119.884 53.6039 119.548 53.6904 119.279 53.8634C119.01 54.0365 118.789 54.2671 118.625 54.5363C118.452 54.815 118.337 55.1226 118.26 55.459C118.183 55.7954 118.145 56.1318 118.145 56.4586C118.145 56.7853 118.183 57.1218 118.26 57.4678C118.337 57.8042 118.462 58.1117 118.625 58.3905C118.798 58.6596 119.01 58.8807 119.279 59.0537C119.548 59.2267 119.875 59.3132 120.269 59.3132C120.663 59.3132 120.99 59.2267 121.259 59.0537C121.528 58.8807 121.749 58.6596 121.922 58.3809C122.095 58.1021 122.21 57.7946 122.287 57.4582C122.364 57.1217 122.403 56.7853 122.403 56.4586C122.403 56.1318 122.364 55.805 122.287 55.459H122.278Z" fill="#007EA9"/>
<path d="M129.467 53.4121C129.4 53.4409 129.352 53.4794 129.323 53.537C129.294 53.5947 129.275 53.662 129.275 53.7485C129.275 53.835 129.275 53.9407 129.275 54.0561V59.6596H128.795L125.037 54.2771V58.8426C125.037 58.9579 125.037 59.0637 125.037 59.1502C125.037 59.2367 125.056 59.3039 125.085 59.3616C125.113 59.4193 125.161 59.4577 125.229 59.4866C125.296 59.5154 125.392 59.525 125.517 59.525V59.6211H124.008V59.525C124.143 59.525 124.239 59.5154 124.306 59.4866C124.373 59.4577 124.421 59.4193 124.46 59.3712C124.489 59.3136 124.508 59.2463 124.508 59.1694C124.508 59.0829 124.508 58.9772 124.508 58.8522V53.7581C124.469 53.6812 124.441 53.6139 124.412 53.5563C124.383 53.4986 124.364 53.4601 124.325 53.4313C124.287 53.4025 124.258 53.3832 124.21 53.3736C124.162 53.3736 124.095 53.364 123.999 53.364V53.2679H125.238C125.815 54.1329 126.401 54.9884 126.988 55.8246C127.584 56.6608 128.17 57.5162 128.737 58.3812V54.0464C128.737 53.9215 128.737 53.8158 128.737 53.7293C128.737 53.6428 128.718 53.5659 128.689 53.5178C128.66 53.4601 128.612 53.4217 128.535 53.3929C128.468 53.364 128.362 53.3544 128.228 53.3544V53.2583H129.746V53.3544C129.612 53.3544 129.516 53.364 129.448 53.3929L129.467 53.4121Z" fill="#007EA9"/>
<path d="M130.774 59.5054C130.774 59.5054 130.726 59.5727 130.726 59.6207H130.611L130.563 58.2559L130.582 58.2271H130.669C130.784 58.4962 130.928 58.7076 131.12 58.871C131.313 59.0344 131.515 59.1498 131.726 59.2266C131.937 59.3035 132.158 59.3324 132.37 59.3132C132.581 59.2939 132.783 59.2459 132.966 59.1498C133.139 59.0536 133.293 58.9287 133.398 58.7653C133.504 58.6019 133.562 58.4001 133.562 58.179C133.562 57.9099 133.485 57.6888 133.341 57.5062C133.197 57.3236 133.014 57.1602 132.793 57.016C132.572 56.8718 132.331 56.7277 132.072 56.5931C131.812 56.4585 131.572 56.3047 131.351 56.1413C131.13 55.978 130.947 55.7857 130.803 55.5647C130.659 55.3436 130.582 55.0649 130.582 54.7381C130.582 54.4978 130.63 54.2767 130.736 54.0845C130.842 53.8923 130.976 53.7289 131.14 53.5943C131.313 53.4597 131.505 53.354 131.716 53.2771C131.928 53.2098 132.149 53.1714 132.38 53.1714C132.514 53.1714 132.639 53.181 132.774 53.2002C132.899 53.2194 133.024 53.2483 133.148 53.2867C133.158 53.2867 133.197 53.3059 133.254 53.3156C133.312 53.3348 133.37 53.3444 133.437 53.3636C133.504 53.3828 133.562 53.4021 133.619 53.4117C133.677 53.4309 133.706 53.4309 133.716 53.4309C133.821 53.4213 133.879 53.3636 133.889 53.2579H133.994C134.023 53.4886 134.042 53.7289 134.062 53.9691C134.081 54.2094 134.09 54.4497 134.071 54.6804H133.965C133.889 54.4401 133.764 54.2479 133.6 54.0941C133.437 53.9403 133.254 53.8154 133.062 53.7385C132.87 53.6616 132.658 53.6135 132.447 53.6135C132.235 53.6135 132.053 53.652 131.88 53.7289C131.707 53.8057 131.563 53.9115 131.457 54.0653C131.351 54.219 131.293 54.4017 131.293 54.6227C131.293 54.7957 131.342 54.9399 131.428 55.0649C131.515 55.1898 131.63 55.3148 131.755 55.4205C131.918 55.555 132.091 55.6704 132.274 55.7857C132.456 55.9011 132.639 56.0068 132.822 56.1029L132.754 56.0741C132.956 56.1798 133.158 56.2951 133.35 56.4201C133.543 56.545 133.716 56.6892 133.86 56.843C134.004 56.9968 134.129 57.1794 134.215 57.3716C134.302 57.5639 134.35 57.7945 134.35 58.054C134.35 58.3232 134.292 58.5635 134.167 58.7749C134.052 58.9864 133.898 59.1594 133.706 59.3035C133.514 59.4477 133.302 59.5534 133.062 59.6303C132.822 59.7072 132.581 59.7457 132.341 59.7457C132.082 59.7457 131.832 59.7168 131.591 59.6496C131.351 59.5919 131.111 59.5246 130.861 59.4573C130.813 59.4573 130.784 59.4765 130.746 59.5054H130.774Z" fill="#007EA9"/>
<path d="M140.924 53.3735C140.828 53.3735 140.761 53.4023 140.713 53.4504C140.665 53.508 140.626 53.5657 140.607 53.6426C140.588 53.7195 140.578 53.7964 140.578 53.8829V57.4007C140.578 58.16 140.367 58.7367 139.953 59.1404C139.54 59.5441 138.954 59.7363 138.204 59.7363C137.454 59.7363 136.859 59.5344 136.455 59.1308C136.042 58.7271 135.84 58.1408 135.84 57.3911V53.8348C135.84 53.7002 135.82 53.5849 135.792 53.4984C135.763 53.4119 135.667 53.3735 135.503 53.3735H135.359V53.2773H137.099V53.3735C137.003 53.3735 136.916 53.3735 136.859 53.3735C136.801 53.3735 136.753 53.4023 136.714 53.4311C136.676 53.46 136.657 53.508 136.647 53.5753C136.637 53.6426 136.628 53.7195 136.628 53.8252V57.4007C136.628 57.9774 136.762 58.4291 137.022 58.7655C137.291 59.1019 137.724 59.2653 138.319 59.2653C138.867 59.2653 139.3 59.1115 139.598 58.7944C139.905 58.4772 140.05 58.0543 140.05 57.5064V53.7964C140.05 53.7003 140.04 53.6234 140.011 53.5657C139.982 53.508 139.934 53.4504 139.867 53.4215C139.8 53.3927 139.694 53.3735 139.569 53.3735V53.2773H141.059V53.3735H140.915H140.924Z" fill="#007EA9"/>
<path d="M146.537 59.6299H142.308V59.5338C142.404 59.5338 142.491 59.5338 142.548 59.5242C142.606 59.5242 142.654 59.4953 142.683 59.4665C142.712 59.4377 142.731 59.3896 142.741 59.3319C142.741 59.2743 142.75 59.1878 142.75 59.082V53.8438C142.75 53.7476 142.75 53.6611 142.741 53.6035C142.741 53.5458 142.712 53.4977 142.683 53.4593C142.654 53.4305 142.606 53.4112 142.548 53.4016C142.491 53.4016 142.414 53.392 142.308 53.392V53.2959H144.038V53.392C143.942 53.392 143.856 53.392 143.798 53.4016C143.74 53.4016 143.683 53.4305 143.654 53.4593C143.615 53.4881 143.596 53.5362 143.587 53.5939C143.577 53.6515 143.567 53.738 143.567 53.8438V59.0148C143.567 59.0724 143.587 59.1109 143.615 59.1397C143.644 59.1685 143.692 59.1878 143.74 59.1878C143.788 59.1878 143.836 59.1878 143.894 59.1878C143.942 59.1878 143.99 59.1878 144.029 59.1878H145.393C145.566 59.1878 145.711 59.1878 145.845 59.1685C145.98 59.1589 146.095 59.1301 146.191 59.082C146.287 59.034 146.383 58.9667 146.46 58.8706C146.537 58.7745 146.614 58.6399 146.691 58.4861L146.816 58.515L146.556 59.6491L146.537 59.6299Z" fill="#007EA9"/>
<path d="M150.824 54.402C150.776 54.1521 150.699 53.9791 150.584 53.8926C150.478 53.8061 150.295 53.7581 150.045 53.7581H148.825V59.0732C148.825 59.1886 148.825 59.2751 148.844 59.3328C148.863 59.3904 148.882 59.4385 148.921 59.4673C148.959 59.4962 149.007 59.5154 149.075 59.525C149.142 59.525 149.228 59.525 149.334 59.525V59.6211H147.527V59.525C147.623 59.525 147.71 59.525 147.777 59.525C147.844 59.525 147.892 59.4962 147.931 59.4673C147.969 59.4385 147.998 59.3904 148.008 59.3328C148.017 59.2751 148.027 59.1886 148.027 59.0732V53.7581H146.787C146.547 53.7581 146.364 53.8061 146.249 53.9023C146.134 53.9984 146.047 54.1618 145.999 54.4117H145.913L145.951 53.2871H150.882L150.91 54.4117H150.814L150.824 54.402Z" fill="#007EA9"/>
<path d="M156.812 57.7273C156.677 58.1213 156.485 58.477 156.235 58.7749C155.985 59.0729 155.668 59.3132 155.303 59.4862C154.938 59.6592 154.515 59.7457 154.034 59.7457C153.554 59.7457 153.131 59.6592 152.756 59.4862C152.391 59.3132 152.073 59.0825 151.824 58.7845C151.574 58.4866 151.381 58.1406 151.247 57.7369C151.112 57.3332 151.055 56.9103 151.055 56.4586C151.055 55.9011 151.141 55.4205 151.305 55.0072C151.478 54.5939 151.699 54.2479 151.977 53.9692C152.256 53.6904 152.573 53.479 152.929 53.3444C153.285 53.2099 153.65 53.1426 154.015 53.1426C154.38 53.1426 154.745 53.2195 155.101 53.354C155.457 53.4886 155.774 53.7 156.053 53.9692C156.331 54.2479 156.562 54.5939 156.725 55.0072C156.898 55.4205 156.975 55.9107 156.975 56.4586C156.975 56.9103 156.908 57.3332 156.783 57.7273H156.812ZM156.053 55.459C155.976 55.1226 155.851 54.815 155.687 54.5363C155.514 54.2575 155.303 54.0365 155.034 53.8634C154.765 53.6904 154.438 53.6039 154.044 53.6039C153.65 53.6039 153.323 53.6904 153.054 53.8634C152.785 54.0365 152.564 54.2671 152.4 54.5363C152.227 54.815 152.112 55.1226 152.035 55.459C151.958 55.7954 151.92 56.1318 151.92 56.4586C151.92 56.7853 151.958 57.1218 152.035 57.4678C152.112 57.8042 152.227 58.1117 152.4 58.3905C152.573 58.6596 152.785 58.8807 153.054 59.0537C153.323 59.2267 153.65 59.3132 154.044 59.3132C154.438 59.3132 154.765 59.2267 155.034 59.0537C155.303 58.8807 155.524 58.6596 155.697 58.3809C155.87 58.1021 155.985 57.7946 156.062 57.4582C156.139 57.1217 156.178 56.7853 156.178 56.4586C156.178 56.1318 156.139 55.805 156.062 55.459H156.053Z" fill="#007EA9"/>
<path d="M161.983 59.6299C161.829 59.3031 161.685 58.9955 161.531 58.736C161.378 58.4765 161.214 58.2266 161.041 57.9863C160.868 57.746 160.676 57.5346 160.465 57.3231C160.253 57.1117 160.022 56.8906 159.763 56.6599H159.09V59.082C159.09 59.1878 159.09 59.2743 159.109 59.3319C159.119 59.3992 159.148 59.4377 159.177 59.4761C159.205 59.5049 159.253 59.5242 159.321 59.5338C159.388 59.5338 159.465 59.5338 159.561 59.5338V59.6299H157.86V59.5338C157.956 59.5338 158.033 59.5338 158.09 59.5242C158.148 59.5242 158.196 59.4953 158.225 59.4665C158.254 59.4377 158.273 59.3896 158.283 59.3319C158.283 59.2743 158.292 59.1878 158.292 59.082V53.8438C158.292 53.7476 158.292 53.6611 158.283 53.6035C158.283 53.5458 158.254 53.4977 158.225 53.4593C158.196 53.4305 158.148 53.4112 158.09 53.4016C158.033 53.4016 157.956 53.392 157.86 53.392V53.2959H160.099C160.378 53.2959 160.638 53.3247 160.887 53.3824C161.137 53.4401 161.368 53.5362 161.56 53.6707C161.752 53.8053 161.906 53.9783 162.022 54.1898C162.137 54.4012 162.195 54.6607 162.195 54.9779C162.195 55.2182 162.147 55.42 162.06 55.6027C161.974 55.7853 161.858 55.9295 161.704 56.0544C161.551 56.1794 161.378 56.2755 161.185 56.3524C160.993 56.4293 160.791 56.4773 160.58 56.5158C160.762 56.6695 160.907 56.7945 161.022 56.9002C161.137 57.0059 161.233 57.1117 161.32 57.2078C161.406 57.3039 161.483 57.4096 161.57 57.5057C161.647 57.6115 161.752 57.7268 161.858 57.871C161.983 58.0248 162.098 58.2074 162.214 58.3996C162.329 58.5918 162.435 58.7841 162.531 58.9571C162.627 59.1301 162.714 59.2743 162.8 59.3896C162.877 59.5049 162.964 59.5722 163.031 59.5722V59.6683H161.983V59.6299ZM159.1 56.2178H159.551C159.773 56.2178 159.994 56.1986 160.215 56.1601C160.426 56.1217 160.628 56.0448 160.801 55.9487C160.974 55.8526 161.118 55.7084 161.224 55.5354C161.33 55.3624 161.387 55.1413 161.387 54.8818C161.387 54.6511 161.339 54.4589 161.253 54.3051C161.166 54.1513 161.051 54.036 160.897 53.9495C160.753 53.863 160.58 53.8053 160.397 53.7765C160.215 53.7476 160.022 53.7284 159.821 53.7284H159.638C159.58 53.7284 159.513 53.7284 159.446 53.7284C159.378 53.7284 159.311 53.7476 159.253 53.7765C159.196 53.8053 159.148 53.8341 159.109 53.8822V56.2178H159.1Z" fill="#007EA9"/>
<path d="M164.155 59.6307V59.5346C164.261 59.5346 164.347 59.5346 164.415 59.5346C164.482 59.5346 164.53 59.5154 164.568 59.4865C164.607 59.4577 164.626 59.4096 164.645 59.352C164.665 59.2943 164.665 59.1982 164.665 59.0924V53.8542C164.665 53.7388 164.665 53.6523 164.645 53.5946C164.636 53.537 164.607 53.4889 164.568 53.4601C164.53 53.4313 164.482 53.412 164.415 53.412C164.347 53.412 164.261 53.412 164.155 53.412V53.3159H165.972V53.412C165.866 53.412 165.78 53.412 165.712 53.412C165.645 53.412 165.597 53.4313 165.558 53.4601C165.52 53.4889 165.491 53.537 165.482 53.5946C165.472 53.6619 165.462 53.7484 165.462 53.8542V59.0924C165.462 59.2078 165.462 59.2943 165.482 59.352C165.501 59.4096 165.52 59.4577 165.558 59.4865C165.597 59.5154 165.645 59.5346 165.712 59.5346C165.78 59.5346 165.866 59.5346 165.972 59.5346V59.6307H164.155Z" fill="#007EA9"/>
<path d="M171.662 59.6306V59.5345C171.806 59.5345 171.912 59.5057 171.979 59.4576C172.046 59.4096 172.046 59.3038 171.979 59.1404L171.402 57.7179H168.577L168.048 59.0347C167.981 59.1981 167.962 59.323 167.99 59.4096C168.019 59.4961 168.135 59.5441 168.336 59.5441V59.6402H167.02V59.5441C167.096 59.5441 167.164 59.5153 167.212 59.4768C167.26 59.4384 167.308 59.3999 167.356 59.3423C167.394 59.2942 167.433 59.2365 167.462 59.1693C167.491 59.1116 167.519 59.0443 167.539 58.9866L169.941 53.2197H170.461L172.95 59.2269C173.017 59.3999 173.152 59.4961 173.354 59.5345V59.6306H171.662ZM169.999 54.2001L168.759 57.2566H171.239L169.999 54.2001Z" fill="#007EA9"/>
<path d="M180.918 59.5637C180.562 59.6791 180.178 59.7367 179.784 59.7367C179.284 59.7367 178.842 59.6598 178.448 59.4964C178.054 59.333 177.727 59.112 177.448 58.8236C177.17 58.5353 176.968 58.1893 176.824 57.7856C176.679 57.3819 176.612 56.9398 176.612 56.4496C176.612 55.9594 176.689 55.5461 176.833 55.1424C176.977 54.7387 177.198 54.3927 177.477 54.0948C177.756 53.7968 178.092 53.5661 178.477 53.4027C178.861 53.2393 179.303 53.1528 179.784 53.1528C180.12 53.1528 180.447 53.1913 180.774 53.2682C180.812 53.2778 180.86 53.297 180.918 53.3066C180.976 53.3258 181.043 53.3355 181.101 53.3547C181.168 53.3739 181.226 53.3931 181.283 53.4027C181.341 53.4123 181.389 53.422 181.427 53.422C181.543 53.422 181.62 53.3643 181.649 53.2489H181.754V53.595C181.754 53.7199 181.754 53.8449 181.754 53.9794C181.754 54.114 181.754 54.2389 181.735 54.3639C181.716 54.4888 181.706 54.5946 181.687 54.6907C181.466 54.3351 181.226 54.0659 180.956 53.8833C180.687 53.7007 180.341 53.6046 179.909 53.6046C179.476 53.6046 179.13 53.6815 178.823 53.8352C178.515 53.989 178.265 54.1909 178.073 54.4504C177.881 54.7099 177.727 55.0079 177.631 55.3539C177.535 55.6999 177.487 56.0651 177.487 56.44C177.487 56.8148 177.535 57.1993 177.641 57.5453C177.737 57.8913 177.89 58.1893 178.092 58.4392C178.294 58.6891 178.554 58.8909 178.861 59.0351C179.169 59.1793 179.534 59.2562 179.966 59.2562C180.12 59.2562 180.284 59.2562 180.457 59.2562C180.63 59.2562 180.803 59.2369 180.976 59.2081C181.149 59.1793 181.312 59.1408 181.466 59.0735C181.62 59.0159 181.764 58.9294 181.889 58.8236L181.927 58.987C181.629 59.2562 181.293 59.4484 180.937 59.5637H180.918Z" fill="#007EA9"/>
<path d="M188.011 57.7273C187.876 58.1213 187.684 58.477 187.434 58.7749C187.184 59.0729 186.867 59.3132 186.502 59.4862C186.137 59.6592 185.714 59.7457 185.233 59.7457C184.753 59.7457 184.33 59.6592 183.955 59.4862C183.59 59.3132 183.272 59.0825 183.023 58.7845C182.773 58.4866 182.58 58.1406 182.446 57.7369C182.311 57.3332 182.254 56.9103 182.254 56.4586C182.254 55.9011 182.34 55.4205 182.504 55.0072C182.677 54.5939 182.898 54.2479 183.176 53.9692C183.455 53.6904 183.772 53.479 184.128 53.3444C184.484 53.2099 184.849 53.1426 185.214 53.1426C185.579 53.1426 185.944 53.2195 186.3 53.354C186.656 53.4886 186.973 53.7 187.252 53.9692C187.53 54.2479 187.761 54.5939 187.924 55.0072C188.097 55.4205 188.174 55.9107 188.174 56.4586C188.174 56.9103 188.107 57.3332 187.982 57.7273H188.011ZM187.252 55.459C187.175 55.1226 187.05 54.815 186.886 54.5363C186.713 54.2575 186.502 54.0365 186.233 53.8634C185.964 53.6904 185.637 53.6039 185.243 53.6039C184.849 53.6039 184.522 53.6904 184.253 53.8634C183.984 54.0365 183.763 54.2671 183.599 54.5363C183.426 54.815 183.311 55.1226 183.234 55.459C183.157 55.7954 183.119 56.1318 183.119 56.4586C183.119 56.7853 183.157 57.1218 183.234 57.4678C183.311 57.8042 183.426 58.1117 183.599 58.3905C183.772 58.6596 183.984 58.8807 184.253 59.0537C184.522 59.2267 184.849 59.3132 185.243 59.3132C185.637 59.3132 185.964 59.2267 186.233 59.0537C186.502 58.8807 186.723 58.6596 186.896 58.3809C187.069 58.1021 187.184 57.7946 187.261 57.4582C187.338 57.1217 187.377 56.7853 187.377 56.4586C187.377 56.1318 187.338 55.805 187.261 55.459H187.252Z" fill="#007EA9"/>
<path d="M193.182 59.6299C193.029 59.3031 192.884 58.9955 192.731 58.736C192.577 58.4765 192.413 58.2266 192.24 57.9863C192.067 57.746 191.875 57.5346 191.664 57.3231C191.452 57.1117 191.222 56.8906 190.962 56.6599H190.289V59.082C190.289 59.1878 190.289 59.2743 190.308 59.3319C190.318 59.3992 190.347 59.4377 190.376 59.4761C190.405 59.5049 190.453 59.5242 190.52 59.5338C190.587 59.5338 190.664 59.5338 190.76 59.5338V59.6299H189.059V59.5338C189.155 59.5338 189.232 59.5338 189.29 59.5242C189.347 59.5242 189.395 59.4953 189.424 59.4665C189.453 59.4377 189.472 59.3896 189.482 59.3319C189.482 59.2743 189.491 59.1878 189.491 59.082V53.8438C189.491 53.7476 189.491 53.6611 189.482 53.6035C189.482 53.5458 189.453 53.4977 189.424 53.4593C189.395 53.4305 189.347 53.4112 189.29 53.4016C189.232 53.4016 189.155 53.392 189.059 53.392V53.2959H191.298C191.577 53.2959 191.837 53.3247 192.087 53.3824C192.336 53.4401 192.567 53.5362 192.759 53.6707C192.952 53.8053 193.105 53.9783 193.221 54.1898C193.336 54.4012 193.394 54.6607 193.394 54.9779C193.394 55.2182 193.346 55.42 193.259 55.6027C193.173 55.7853 193.057 55.9295 192.904 56.0544C192.75 56.1794 192.577 56.2755 192.385 56.3524C192.192 56.4293 191.99 56.4773 191.779 56.5158C191.962 56.6695 192.106 56.7945 192.221 56.9002C192.336 57.0059 192.433 57.1117 192.519 57.2078C192.606 57.3039 192.682 57.4096 192.769 57.5057C192.846 57.6115 192.952 57.7268 193.057 57.871C193.182 58.0248 193.298 58.2074 193.413 58.3996C193.528 58.5918 193.634 58.7841 193.73 58.9571C193.826 59.1301 193.913 59.2743 193.999 59.3896C194.076 59.5049 194.163 59.5722 194.23 59.5722V59.6683H193.182V59.6299ZM190.289 56.2178H190.741C190.962 56.2178 191.183 56.1986 191.404 56.1601C191.616 56.1217 191.817 56.0448 191.99 55.9487C192.163 55.8526 192.308 55.7084 192.413 55.5354C192.519 55.3624 192.577 55.1413 192.577 54.8818C192.577 54.6511 192.529 54.4589 192.442 54.3051C192.356 54.1513 192.24 54.036 192.087 53.9495C191.942 53.863 191.769 53.8053 191.587 53.7765C191.404 53.7476 191.212 53.7284 191.01 53.7284H190.827C190.77 53.7284 190.703 53.7284 190.635 53.7284C190.568 53.7284 190.501 53.7476 190.443 53.7765C190.385 53.8053 190.337 53.8341 190.299 53.8822V56.2178H190.289Z" fill="#007EA9"/>
<path d="M196.604 59.0732C196.604 59.1886 196.604 59.2751 196.623 59.3328C196.633 59.3904 196.662 59.4385 196.7 59.4673C196.739 59.4962 196.787 59.5154 196.854 59.525C196.921 59.5346 196.998 59.525 197.094 59.525V59.6211H195.374V59.525C195.47 59.525 195.547 59.525 195.604 59.5154C195.662 59.5154 195.71 59.4865 195.739 59.4577C195.768 59.4289 195.787 59.3808 195.797 59.3232C195.797 59.2655 195.806 59.179 195.806 59.0732V53.835C195.806 53.7389 195.806 53.6523 195.797 53.5947C195.797 53.537 195.768 53.489 195.739 53.4505C195.71 53.4217 195.662 53.4024 195.604 53.3928C195.547 53.3928 195.47 53.3832 195.374 53.3832V53.2871H197.488C197.767 53.2871 198.046 53.3159 198.305 53.3832C198.565 53.4505 198.805 53.5562 199.016 53.6908C199.218 53.835 199.382 54.0176 199.507 54.2387C199.632 54.4597 199.689 54.7385 199.689 55.0556C199.689 55.392 199.622 55.6804 199.497 55.9111C199.372 56.1417 199.199 56.334 198.978 56.4877C198.767 56.6319 198.517 56.7376 198.238 56.8049C197.959 56.8722 197.671 56.8914 197.373 56.8914L196.604 56.8722V59.0829V59.0732ZM196.604 56.3916L197.267 56.4109C197.507 56.4109 197.719 56.4012 197.921 56.3532C198.113 56.3051 198.286 56.2282 198.43 56.1225C198.574 56.0168 198.68 55.8726 198.757 55.69C198.834 55.5074 198.872 55.2959 198.872 55.0364C198.872 54.8057 198.834 54.6039 198.747 54.4405C198.661 54.2675 198.545 54.1329 198.401 54.0368C198.257 53.9311 198.094 53.8542 197.902 53.8061C197.709 53.7581 197.507 53.7292 197.296 53.7292C197.238 53.7292 197.181 53.7292 197.123 53.7196C197.065 53.7196 196.998 53.7004 196.94 53.7004C196.883 53.7004 196.815 53.7004 196.758 53.7004C196.7 53.7004 196.642 53.7292 196.604 53.7581V56.4012V56.3916Z" fill="#007EA9"/>
<path d="M206.388 57.7273C206.254 58.1213 206.062 58.477 205.812 58.7749C205.562 59.0729 205.245 59.3132 204.879 59.4862C204.514 59.6592 204.091 59.7457 203.611 59.7457C203.13 59.7457 202.707 59.6592 202.332 59.4862C201.967 59.3132 201.65 59.0825 201.4 58.7845C201.15 58.4866 200.958 58.1406 200.823 57.7369C200.689 57.3332 200.631 56.9103 200.631 56.4586C200.631 55.9011 200.718 55.4205 200.881 55.0072C201.054 54.5939 201.275 54.2479 201.554 53.9692C201.833 53.6904 202.15 53.479 202.505 53.3444C202.861 53.2099 203.226 53.1426 203.591 53.1426C203.957 53.1426 204.322 53.2195 204.678 53.354C205.033 53.4886 205.35 53.7 205.629 53.9692C205.908 54.2479 206.138 54.5939 206.302 55.0072C206.475 55.4205 206.552 55.9107 206.552 56.4586C206.552 56.9103 206.484 57.3332 206.36 57.7273H206.388ZM205.619 55.459C205.543 55.1226 205.418 54.815 205.254 54.5363C205.081 54.2575 204.87 54.0365 204.601 53.8634C204.332 53.6904 204.005 53.6039 203.611 53.6039C203.217 53.6039 202.89 53.6904 202.621 53.8634C202.352 54.0365 202.13 54.2671 201.967 54.5363C201.794 54.815 201.679 55.1226 201.602 55.459C201.525 55.7954 201.486 56.1318 201.486 56.4586C201.486 56.7853 201.525 57.1218 201.602 57.4678C201.679 57.8042 201.794 58.1117 201.967 58.3905C202.14 58.6596 202.352 58.8807 202.621 59.0537C202.89 59.2267 203.217 59.3132 203.611 59.3132C204.005 59.3132 204.332 59.2267 204.601 59.0537C204.87 58.8807 205.091 58.6596 205.264 58.3809C205.437 58.1021 205.552 57.7946 205.629 57.4582C205.706 57.1217 205.744 56.7853 205.744 56.4586C205.744 56.1318 205.706 55.805 205.629 55.459H205.619Z" fill="#007EA9"/>
<path d="M211.549 59.6299C211.396 59.3031 211.251 58.9955 211.098 58.736C210.944 58.4765 210.781 58.2266 210.607 57.9863C210.434 57.746 210.242 57.5346 210.031 57.3231C209.819 57.1117 209.589 56.8906 209.329 56.6599H208.656V59.082C208.656 59.1878 208.656 59.2743 208.676 59.3319C208.685 59.3992 208.714 59.4377 208.743 59.4761C208.772 59.5049 208.82 59.5242 208.887 59.5338C208.954 59.5338 209.031 59.5338 209.127 59.5338V59.6299H207.426V59.5338C207.522 59.5338 207.599 59.5338 207.657 59.5242C207.714 59.5242 207.762 59.4953 207.791 59.4665C207.82 59.4377 207.839 59.3896 207.849 59.3319C207.849 59.2743 207.859 59.1878 207.859 59.082V53.8438C207.859 53.7476 207.859 53.6611 207.849 53.6035C207.849 53.5458 207.82 53.4977 207.791 53.4593C207.762 53.4305 207.714 53.4112 207.657 53.4016C207.599 53.4016 207.522 53.392 207.426 53.392V53.2959H209.666C209.944 53.2959 210.204 53.3247 210.454 53.3824C210.704 53.4401 210.934 53.5362 211.127 53.6707C211.319 53.8053 211.473 53.9783 211.588 54.1898C211.703 54.4012 211.761 54.6607 211.761 54.9779C211.761 55.2182 211.713 55.42 211.626 55.6027C211.54 55.7853 211.424 55.9295 211.271 56.0544C211.117 56.1794 210.944 56.2755 210.752 56.3524C210.559 56.4293 210.358 56.4773 210.146 56.5158C210.329 56.6695 210.473 56.7945 210.588 56.9002C210.704 57.0059 210.8 57.1117 210.886 57.2078C210.973 57.3039 211.05 57.4096 211.136 57.5057C211.213 57.6115 211.319 57.7268 211.424 57.871C211.549 58.0248 211.665 58.2074 211.78 58.3996C211.895 58.5918 212.001 58.7841 212.097 58.9571C212.193 59.1301 212.28 59.2743 212.366 59.3896C212.443 59.5049 212.53 59.5722 212.597 59.5722V59.6683H211.549V59.6299ZM208.666 56.2178H209.118C209.339 56.2178 209.56 56.1986 209.781 56.1601C209.992 56.1217 210.194 56.0448 210.367 55.9487C210.54 55.8526 210.684 55.7084 210.79 55.5354C210.896 55.3624 210.954 55.1413 210.954 54.8818C210.954 54.6511 210.905 54.4589 210.819 54.3051C210.732 54.1513 210.617 54.036 210.463 53.9495C210.319 53.863 210.146 53.8053 209.964 53.7765C209.781 53.7476 209.589 53.7284 209.387 53.7284H209.204C209.147 53.7284 209.079 53.7284 209.012 53.7284C208.945 53.7284 208.877 53.7476 208.82 53.7765C208.762 53.8053 208.714 53.8341 208.676 53.8822V56.2178H208.666Z" fill="#007EA9"/>
<path d="M217.691 59.6306V59.5345C217.836 59.5345 217.941 59.5057 218.009 59.4576C218.076 59.4096 218.076 59.3038 218.009 59.1404L217.432 57.7179H214.606L214.077 59.0347C214.01 59.1981 213.991 59.323 214.02 59.4096C214.049 59.4961 214.164 59.5441 214.366 59.5441V59.6402H213.049V59.5441C213.126 59.5441 213.193 59.5153 213.241 59.4768C213.289 59.4384 213.337 59.3999 213.385 59.3423C213.424 59.2942 213.462 59.2365 213.491 59.1693C213.52 59.1116 213.549 59.0443 213.568 58.9866L215.971 53.2197H216.49L218.979 59.2269C219.047 59.3999 219.181 59.4961 219.383 59.5345V59.6306H217.691ZM216.038 54.2001L214.798 57.2566H217.278L216.038 54.2001Z" fill="#007EA9"/>
<path d="M223.718 54.402C223.67 54.1521 223.593 53.9791 223.477 53.8926C223.372 53.8061 223.189 53.7581 222.939 53.7581H221.719V59.0732C221.719 59.1886 221.719 59.2751 221.738 59.3328C221.757 59.3904 221.776 59.4385 221.815 59.4673C221.853 59.4962 221.901 59.5154 221.968 59.525C222.036 59.525 222.122 59.525 222.228 59.525V59.6211H220.421V59.525C220.517 59.525 220.604 59.525 220.671 59.525C220.738 59.525 220.786 59.4962 220.825 59.4673C220.863 59.4385 220.892 59.3904 220.902 59.3328C220.911 59.2751 220.921 59.1886 220.921 59.0732V53.7581H219.681C219.441 53.7581 219.258 53.8061 219.143 53.9023C219.027 53.9984 218.941 54.1618 218.893 54.4117H218.806L218.845 53.2871H223.775L223.804 54.4117H223.708L223.718 54.402Z" fill="#007EA9"/>
<path d="M224.804 59.6307V59.5346C224.91 59.5346 224.996 59.5346 225.063 59.5346C225.131 59.5346 225.179 59.5154 225.217 59.4865C225.256 59.4577 225.284 59.4096 225.294 59.352C225.304 59.2943 225.313 59.1982 225.313 59.0924V53.8542C225.313 53.7388 225.313 53.6523 225.294 53.5946C225.284 53.537 225.256 53.4889 225.217 53.4601C225.179 53.4313 225.131 53.412 225.063 53.412C224.996 53.412 224.91 53.412 224.804 53.412V53.3159H226.62V53.412C226.515 53.412 226.428 53.412 226.361 53.412C226.294 53.412 226.246 53.4313 226.207 53.4601C226.169 53.4889 226.149 53.537 226.13 53.5946C226.121 53.6619 226.111 53.7484 226.111 53.8542V59.0924C226.111 59.2078 226.111 59.2943 226.13 59.352C226.149 59.4096 226.169 59.4577 226.207 59.4865C226.246 59.5154 226.294 59.5346 226.361 59.5346C226.428 59.5346 226.515 59.5346 226.62 59.5346V59.6307H224.804Z" fill="#007EA9"/>
<path d="M233.406 53.4888C233.349 53.5657 233.291 53.6522 233.253 53.7579L230.955 59.6978H230.571L228.149 53.7771C228.101 53.6618 228.034 53.5657 227.966 53.4888C227.899 53.4215 227.793 53.3735 227.659 53.3735V53.2773H229.321V53.3735C229.254 53.3735 229.197 53.3735 229.139 53.3735C229.081 53.3735 229.033 53.3927 228.995 53.4119C228.956 53.4311 228.937 53.4696 228.927 53.508C228.927 53.5561 228.927 53.6137 228.956 53.6906L230.869 58.5156L232.628 53.9021C232.695 53.7291 232.714 53.5945 232.676 53.5176C232.637 53.4407 232.522 53.3927 232.32 53.3735V53.2773H233.676V53.3735C233.551 53.3735 233.454 53.4119 233.397 53.4888H233.406Z" fill="#007EA9"/>
<path d="M237.308 59.6306V59.5345C237.453 59.5345 237.558 59.5057 237.626 59.4576C237.693 59.4096 237.693 59.3038 237.626 59.1404L237.049 57.7179H234.223L233.695 59.0347C233.627 59.1981 233.608 59.323 233.637 59.4096C233.666 59.4961 233.781 59.5441 233.983 59.5441V59.6402H232.666V59.5441C232.743 59.5441 232.81 59.5153 232.858 59.4768C232.906 59.4384 232.954 59.3999 233.003 59.3423C233.041 59.2942 233.079 59.2365 233.108 59.1693C233.137 59.1116 233.166 59.0443 233.185 58.9866L235.588 53.2197H236.107L238.596 59.2269C238.664 59.3999 238.798 59.4961 239 59.5345V59.6306H237.308ZM235.655 54.2001L234.415 57.2566H236.895L235.655 54.2001Z" fill="#007EA9"/>
<path d="M142.299 41.3297V40.7434C143.202 40.7434 143.865 40.58 144.298 40.2436C144.73 39.9072 144.73 39.2536 144.298 38.2732L140.655 29.3441H122.979L119.692 37.5619C119.26 38.5808 119.135 39.3593 119.308 39.9072C119.481 40.455 120.202 40.7337 121.451 40.7337V41.32H113.233V40.7337C113.704 40.6953 114.108 40.5607 114.435 40.3204C114.771 40.0898 115.06 39.811 115.319 39.4939C115.569 39.1767 115.79 38.8307 115.963 38.4366C116.136 38.0425 116.309 37.6581 116.463 37.264L131.495 1.16309H134.725L150.344 38.8018C150.776 39.8591 151.612 40.5031 152.871 40.7434V41.3297H142.299ZM131.909 7.32407L124.162 26.4702H139.665L131.918 7.32407H131.909Z" fill="#007EA9"/>
<path d="M175.603 40.9449C173.354 41.6657 170.989 42.031 168.529 42.031C165.395 42.031 162.608 41.5312 160.157 40.5316C157.706 39.532 155.63 38.1383 153.9 36.3313C152.18 34.534 150.863 32.3714 149.969 29.8435C149.065 27.3157 148.614 24.5284 148.614 21.4719C148.614 18.4154 149.085 15.8011 150.027 13.2829C150.968 10.7551 152.304 8.56363 154.044 6.70861C155.784 4.85358 157.879 3.40224 160.33 2.3642C162.771 1.32615 165.511 0.807129 168.519 0.807129C170.595 0.807129 172.671 1.03781 174.747 1.50877C174.978 1.58566 175.286 1.67217 175.66 1.77789C176.035 1.88362 176.41 1.97974 176.804 2.10469C177.198 2.22002 177.564 2.31614 177.919 2.40264C178.275 2.47953 178.563 2.51798 178.803 2.51798C179.544 2.51798 180.015 2.16235 180.216 1.46071H180.86V3.63292C180.86 4.42106 180.851 5.21882 180.831 6.04541C180.812 6.872 180.774 7.66976 180.716 8.44829C180.658 9.23644 180.553 9.91886 180.389 10.5052C179.015 8.27528 177.496 6.58366 175.805 5.43027C174.123 4.27689 171.931 3.7002 169.23 3.7002C166.53 3.7002 164.338 4.18077 162.416 5.14193C160.493 6.10308 158.917 7.38141 157.687 8.98654C156.457 10.5917 155.534 12.4755 154.928 14.6189C154.323 16.7719 154.015 19.0402 154.015 21.4335C154.015 23.8267 154.333 26.2104 154.957 28.3634C155.582 30.5164 156.534 32.3906 157.802 33.9669C159.071 35.5528 160.676 36.8023 162.618 37.725C164.559 38.6477 166.856 39.1091 169.519 39.1091C170.461 39.1091 171.479 39.0898 172.575 39.0514C173.671 39.0129 174.757 38.9072 175.833 38.7246C176.91 38.5516 177.938 38.2729 178.919 37.898C179.899 37.5232 180.774 37.0041 181.562 36.3409L181.793 37.3405C179.918 39.0226 177.852 40.224 175.593 40.9545L175.603 40.9449Z" fill="#007EA9"/>
<path d="M220.2 41.3293V40.743C220.825 40.743 221.334 40.7142 221.728 40.6565C222.122 40.5988 222.42 40.4739 222.641 40.272C222.853 40.0798 223.006 39.7914 223.083 39.4166C223.16 39.0417 223.199 38.5227 223.199 37.8595V6.1511L208.166 41.3197H206.167L191.135 6.91042V36.3313C191.135 37.0714 191.135 37.725 191.163 38.2728C191.183 38.8207 191.279 39.282 191.452 39.6569C191.625 40.0317 191.923 40.3009 192.336 40.4835C192.749 40.6565 193.365 40.743 194.182 40.743V41.3293H184.724V40.743C185.55 40.743 186.185 40.6565 186.636 40.4835C187.088 40.3105 187.396 40.0413 187.578 39.6953C187.751 39.3397 187.848 38.8976 187.867 38.3401C187.886 37.7922 187.896 37.1291 187.896 36.3409V5.03617C187.896 4.33453 187.848 3.78667 187.751 3.3926C187.655 2.99852 187.482 2.71979 187.252 2.53717C187.021 2.35455 186.694 2.24882 186.281 2.21038C185.868 2.17193 185.349 2.15271 184.724 2.15271V1.56641H193.884L208.157 34.1014L222.016 1.57602H231.003V2.16232C230.379 2.16232 229.879 2.19116 229.504 2.24882C229.129 2.30649 228.85 2.43144 228.648 2.63329C228.456 2.82552 228.322 3.12347 228.264 3.51755C228.206 3.91162 228.177 4.42103 228.177 5.04578V37.8691C228.177 38.5323 228.206 39.0514 228.264 39.4262C228.322 39.8011 228.447 40.0798 228.648 40.2816C228.841 40.4739 229.129 40.6084 229.504 40.6661C229.879 40.7238 230.379 40.7526 231.003 40.7526V41.3389H220.2V41.3293Z" fill="#007EA9"/>
<path d="M107.428 32.6211C107.428 42.5017 107.313 52.0267 107.092 61.0231C106.803 50.931 106.65 40.07 106.65 28.738C106.65 18.8573 106.765 9.33232 106.986 0.335938C107.274 10.428 107.428 21.2891 107.428 32.6211Z" fill="#007EA9"/>
<path d="M73.7206 53.1223C78.291 53.1223 81.9961 49.4173 81.9961 44.8468C81.9961 40.2764 78.291 36.5713 73.7206 36.5713C69.1501 36.5713 65.445 40.2764 65.445 44.8468C65.445 49.4173 69.1501 53.1223 73.7206 53.1223Z" fill="#007EA9"/>
<path d="M27.3352 53.1223C31.9057 53.1223 35.6108 49.4173 35.6108 44.8468C35.6108 40.2764 31.9057 36.5713 27.3352 36.5713C22.7648 36.5713 19.0597 40.2764 19.0597 44.8468C19.0597 49.4173 22.7648 53.1223 27.3352 53.1223Z" fill="#007EA9"/>
<path d="M28.7961 41.06L42.6463 20.5586C42.6463 20.5586 50.595 21.8562 50.7007 26.8445C50.7007 26.8445 45.7604 16.4929 31.2085 42.5978L28.7961 41.06Z" fill="#007EA9"/>
<path d="M72.7687 41.06L58.9185 20.5586C58.9185 20.5586 50.9698 21.8562 50.8641 26.8445C50.8641 26.8445 55.8044 16.4929 70.3562 42.5978L72.7687 41.06Z" fill="#007EA9"/>
<path d="M101.709 24.9711C99.2007 27.5374 95.7213 29.1714 91.8671 29.2771C91.473 29.2579 91.0693 29.2579 90.6752 29.2579H90.5887C69.7029 29.3059 52.604 45.4917 51.1142 66.0027C51.0373 65.0416 51.0085 64.0612 51.0085 63.0808C51.0085 44.5594 63.7149 28.9984 80.8811 24.6347C84.0145 23.837 87.292 23.4141 90.6752 23.4141C94.5102 23.4141 98.2107 23.9523 101.709 24.9711Z" fill="#007EA9"/>
<path d="M101.709 24.9711C99.2005 27.5374 95.7211 29.1714 91.8669 29.2771C91.7324 29.2867 91.5882 29.2867 91.4536 29.2867C91.1653 29.2867 90.8769 29.2771 90.5886 29.2579C86.744 29.0368 83.3127 27.2971 80.8713 24.6347C84.0047 23.837 87.2822 23.4141 90.6655 23.4141C94.5005 23.4141 98.2009 23.9523 101.7 24.9711H101.709Z" fill="#007EA9"/>
<path d="M3.05176e-05 24.9711C2.50864 27.5374 5.98801 29.1714 9.84223 29.2771C10.2363 29.2579 10.64 29.2579 11.0341 29.2579H11.1206C32.0064 29.3059 49.1053 45.4917 50.5951 66.0027C50.672 65.0416 50.7008 64.0612 50.7008 63.0808C50.7008 44.5594 37.9944 28.9984 20.8282 24.6347C17.6949 23.837 14.4173 23.4141 11.0341 23.4141C7.19906 23.4141 3.49863 23.9523 3.05176e-05 24.9711Z" fill="#007EA9"/>
<path d="M3.05176e-05 24.9711C2.50864 27.5374 5.98801 29.1714 9.84223 29.2771C9.97679 29.2867 10.121 29.2867 10.2555 29.2867C10.5439 29.2867 10.8322 29.2771 11.1206 29.2579C14.9652 29.0368 18.3965 27.2971 20.8378 24.6347C17.7045 23.837 14.4269 23.4141 11.0437 23.4141C7.20867 23.4141 3.50824 23.9523 0.00964204 24.9711H3.05176e-05Z" fill="#007EA9"/>
<path d="M89.0028 37.485C89.0028 44.8762 86.821 51.7581 83.0629 57.5634H80.4294C84.447 51.8638 86.8114 44.9531 86.8114 37.485V37.3792C86.7922 37.7829 86.773 38.177 86.7441 38.5614C85.4562 20.4245 69.8855 6.09371 50.8547 6.09371C31.8239 6.09371 16.2628 20.4149 14.9749 38.5614C14.946 38.1289 14.9172 37.6868 14.9076 37.2543C14.9076 37.3312 14.9076 37.4081 14.9076 37.485C14.9076 44.9435 17.2624 51.8638 21.28 57.5634H18.6561C14.898 51.7581 12.7162 44.8762 12.7162 37.485C12.7162 16.7913 29.7958 0 50.8547 0C61.5523 0 71.2215 4.32519 78.1418 11.3032C78.978 12.1394 79.7758 13.014 80.5255 13.9271C85.831 20.3668 89.0028 28.5558 89.0028 37.485Z" fill="#007EA9"/>
<path d="M165.405 50.9126C165.491 50.7972 165.578 50.6915 165.664 50.5665C165.751 50.4416 165.847 50.3359 165.924 50.2397C166.01 50.1436 166.077 50.0764 166.125 50.0571C166.222 50.0571 166.298 50.0571 166.356 50.0571C166.423 50.0571 166.491 50.0956 166.577 50.1436C166.587 50.1436 166.606 50.1629 166.635 50.1821C166.664 50.1917 166.683 50.2109 166.693 50.2301C166.712 50.2494 166.721 50.2686 166.721 50.2878C166.721 50.307 166.721 50.3263 166.693 50.3455L165.683 51.1528H165.212C165.251 51.1048 165.318 51.0279 165.395 50.9126H165.405Z" fill="#007EA9"/>
</svg>
