<svg width="118" height="33" viewBox="0 0 118 33" fill="none" xmlns="http://www.w3.org/2000/svg">
<path d="M57.2443 29.4076C57.0687 29.4646 56.8789 29.4931 56.6843 29.4931C56.4376 29.4931 56.2193 29.4551 56.0247 29.3744C55.8302 29.2938 55.6688 29.1846 55.5312 29.0422C55.3936 28.8999 55.2939 28.729 55.2227 28.5297C55.1516 28.3304 55.1183 28.1121 55.1183 27.8701C55.1183 27.6281 55.1563 27.424 55.2275 27.2247C55.2987 27.0254 55.4078 26.8546 55.5454 26.7075C55.6831 26.5604 55.8491 26.4465 56.039 26.3658C56.2335 26.2851 56.4471 26.2424 56.6843 26.2424C56.8504 26.2424 57.0118 26.2614 57.1731 26.2994C57.1921 26.3041 57.2158 26.3136 57.2443 26.3184C57.2728 26.3278 57.3012 26.3326 57.3345 26.3421C57.3629 26.3516 57.3962 26.3611 57.4199 26.3658C57.4436 26.3706 57.4721 26.3753 57.4911 26.3753C57.548 26.3753 57.586 26.3468 57.6002 26.2899H57.6524V26.4607C57.6524 26.5224 57.6524 26.5841 57.6524 26.6505C57.6524 26.717 57.6524 26.7787 57.6429 26.8404C57.6429 26.902 57.6287 26.9542 57.6192 27.0017C57.51 26.8261 57.3914 26.6932 57.2585 26.6031C57.1257 26.5129 56.9548 26.4655 56.7413 26.4655C56.5277 26.4655 56.3569 26.5034 56.2051 26.5794C56.0532 26.6553 55.9298 26.7549 55.8302 26.8831C55.7353 27.0112 55.6593 27.1583 55.6119 27.3291C55.5644 27.5 55.5407 27.6803 55.5407 27.8654C55.5407 28.0504 55.5644 28.2403 55.6166 28.4111C55.6641 28.5819 55.74 28.729 55.8397 28.8524C55.9393 28.9758 56.0674 29.0755 56.2193 29.1466C56.3711 29.2178 56.5515 29.2558 56.765 29.2558C56.8409 29.2558 56.9216 29.2558 57.007 29.2558C57.0924 29.2558 57.1779 29.2463 57.2633 29.2321C57.3487 29.2178 57.4294 29.1988 57.5053 29.1656C57.5812 29.1371 57.6524 29.0944 57.7141 29.0422L57.7331 29.1229C57.586 29.2558 57.4199 29.3507 57.2443 29.4076Z" fill="#007EA9"/>
<path d="M60.7463 28.5011C60.6798 28.6957 60.5849 28.8713 60.4616 29.0184C60.3382 29.1655 60.1816 29.2841 60.0012 29.3695C59.8209 29.455 59.6121 29.4977 59.3749 29.4977C59.1376 29.4977 58.9288 29.455 58.7437 29.3695C58.5634 29.2841 58.4068 29.1702 58.2834 29.0231C58.16 28.876 58.0651 28.7052 58.0034 28.5059C57.9417 28.3066 57.9085 28.0978 57.9085 27.8747C57.9085 27.5995 57.9512 27.3622 58.0319 27.1582C58.1173 26.9541 58.2265 26.7833 58.3641 26.6457C58.5017 26.508 58.6583 26.4036 58.8386 26.3372C59.0142 26.2708 59.1945 26.2375 59.3749 26.2375C59.5552 26.2375 59.7355 26.2755 59.9111 26.3419C60.0867 26.4084 60.2433 26.5128 60.3856 26.6457C60.5232 26.7833 60.6371 26.9541 60.7178 27.1582C60.8032 27.3622 60.8412 27.6042 60.8412 27.8747C60.8412 28.0978 60.808 28.3066 60.7463 28.5011ZM60.3714 27.3812C60.3334 27.2151 60.2717 27.0633 60.1863 26.9256C60.1009 26.788 59.9965 26.6789 59.8636 26.5935C59.7308 26.508 59.5694 26.4653 59.3796 26.4653C59.1898 26.4653 59.0237 26.508 58.8908 26.5935C58.7579 26.6789 58.6488 26.7928 58.5681 26.9256C58.4827 27.0633 58.4258 27.2151 58.3878 27.3812C58.3498 27.5473 58.3309 27.7134 58.3309 27.8747C58.3309 28.0361 58.3498 28.2022 58.3878 28.373C58.4258 28.5391 58.4875 28.6909 58.5681 28.8286C58.6535 28.9614 58.7579 29.0706 58.8908 29.156C59.0237 29.2414 59.185 29.2841 59.3796 29.2841C59.5742 29.2841 59.7355 29.2414 59.8684 29.156C60.0012 29.0706 60.1104 28.9614 60.1958 28.8238C60.2812 28.6862 60.3382 28.5343 60.3761 28.3683C60.4141 28.2022 60.4331 28.0361 60.4331 27.8747C60.4331 27.7134 60.4141 27.552 60.3761 27.3812H60.3714Z" fill="#007EA9"/>
<path d="M63.9212 26.3704C63.8879 26.3846 63.8642 26.4036 63.85 26.4321C63.8357 26.4605 63.8263 26.4937 63.8263 26.5365C63.8263 26.5792 63.8263 26.6314 63.8263 26.6883V29.4549H63.589L61.7335 26.7975V29.0515C61.7335 29.1085 61.7335 29.1607 61.7335 29.2034C61.7335 29.2461 61.743 29.2793 61.7572 29.3078C61.7715 29.3363 61.7952 29.3552 61.8284 29.3695C61.8616 29.3837 61.9091 29.3885 61.9708 29.3885V29.4359H61.2258V29.3885C61.2922 29.3885 61.3396 29.3837 61.3729 29.3695C61.4061 29.3552 61.4298 29.3363 61.4488 29.3125C61.463 29.2841 61.4725 29.2508 61.4725 29.2129C61.4725 29.1702 61.4725 29.118 61.4725 29.0563V26.5412C61.4535 26.5032 61.4393 26.47 61.4251 26.4415C61.4108 26.4131 61.4013 26.3941 61.3824 26.3799C61.3634 26.3656 61.3491 26.3561 61.3254 26.3514C61.3017 26.3514 61.2685 26.3466 61.221 26.3466V26.2992H61.8332C62.1179 26.7263 62.4074 27.1486 62.6968 27.5615C62.9911 27.9743 63.2805 28.3967 63.5605 28.8238V26.6836C63.5605 26.6219 63.5605 26.5697 63.5605 26.527C63.5605 26.4843 63.551 26.4463 63.5368 26.4226C63.5225 26.3941 63.4988 26.3751 63.4609 26.3609C63.4276 26.3466 63.3754 26.3419 63.309 26.3419V26.2944H64.0588V26.3419C63.9924 26.3419 63.9449 26.3466 63.9117 26.3609L63.9212 26.3704Z" fill="#007EA9"/>
<path d="M64.5664 29.3792C64.5664 29.3792 64.5427 29.4124 64.5427 29.4361H64.4858L64.462 28.7623L64.4715 28.7481H64.5142C64.5712 28.8809 64.6424 28.9853 64.7373 29.066C64.8322 29.1467 64.9318 29.2036 65.0362 29.2416C65.1406 29.2795 65.2498 29.2938 65.3542 29.2843C65.4586 29.2748 65.5582 29.2511 65.6484 29.2036C65.7338 29.1562 65.8097 29.0945 65.8619 29.0138C65.9141 28.9331 65.9426 28.8335 65.9426 28.7243C65.9426 28.5915 65.9046 28.4823 65.8335 28.3921C65.7623 28.302 65.6721 28.2213 65.563 28.1501C65.4538 28.0789 65.3352 28.0078 65.2071 27.9413C65.0789 27.8749 64.9603 27.799 64.8512 27.7183C64.742 27.6376 64.6519 27.5427 64.5807 27.4336C64.5095 27.3244 64.4715 27.1868 64.4715 27.0255C64.4715 26.9068 64.4953 26.7977 64.5475 26.7028C64.5997 26.6079 64.6661 26.5272 64.7468 26.4608C64.8322 26.3943 64.9271 26.3421 65.0315 26.3042C65.1359 26.2709 65.245 26.252 65.3589 26.252C65.4254 26.252 65.4871 26.2567 65.5535 26.2662C65.6152 26.2757 65.6769 26.2899 65.7386 26.3089C65.7433 26.3089 65.7623 26.3184 65.7908 26.3231C65.8192 26.3326 65.8477 26.3374 65.8809 26.3469C65.9141 26.3564 65.9426 26.3658 65.9711 26.3706C65.9996 26.3801 66.0138 26.3801 66.0185 26.3801C66.0707 26.3753 66.0992 26.3469 66.104 26.2947H66.1562C66.1704 26.4086 66.1799 26.5272 66.1894 26.6458C66.1989 26.7645 66.2036 26.8831 66.1941 26.997H66.1419C66.104 26.8784 66.0423 26.7834 65.9616 26.7075C65.8809 26.6316 65.7908 26.5699 65.6959 26.5319C65.6009 26.494 65.4965 26.4702 65.3921 26.4702C65.2877 26.4702 65.1976 26.4892 65.1122 26.5272C65.0267 26.5652 64.9556 26.6174 64.9034 26.6933C64.8512 26.7692 64.8227 26.8594 64.8227 26.9685C64.8227 27.0539 64.8464 27.1251 64.8891 27.1868C64.9318 27.2485 64.9888 27.3102 65.0505 27.3624C65.1311 27.4288 65.2166 27.4858 65.3067 27.5427C65.3969 27.5997 65.4871 27.6519 65.5772 27.6993L65.544 27.6851C65.6437 27.7373 65.7433 27.7942 65.8382 27.8559C65.9331 27.9176 66.0185 27.9888 66.0897 28.0647C66.1609 28.1406 66.2226 28.2308 66.2653 28.3257C66.308 28.4206 66.3317 28.5345 66.3317 28.6626C66.3317 28.7955 66.3033 28.9141 66.2416 29.0185C66.1846 29.1229 66.1087 29.2084 66.0138 29.2795C65.9189 29.3507 65.8145 29.4029 65.6959 29.4409C65.5772 29.4789 65.4586 29.4978 65.3399 29.4978C65.2118 29.4978 65.0884 29.4836 64.9698 29.4504C64.8512 29.4219 64.7325 29.3887 64.6091 29.3555C64.5854 29.3555 64.5712 29.365 64.5522 29.3792H64.5664Z" fill="#007EA9"/>
<path d="M69.5776 26.3514C69.5302 26.3514 69.497 26.3656 69.4732 26.3894C69.4495 26.4178 69.4305 26.4463 69.421 26.4843C69.4115 26.5222 69.4068 26.5602 69.4068 26.6029V28.3397C69.4068 28.7146 69.3024 28.9994 69.0983 29.1987C68.8943 29.398 68.6048 29.4929 68.2347 29.4929C67.8645 29.4929 67.5703 29.3932 67.371 29.1939C67.1669 28.9946 67.0673 28.7051 67.0673 28.335V26.5792C67.0673 26.5128 67.0578 26.4558 67.0436 26.4131C67.0293 26.3704 66.9819 26.3514 66.9012 26.3514H66.83V26.304H67.6889V26.3514C67.6415 26.3514 67.5988 26.3514 67.5703 26.3514C67.5418 26.3514 67.5181 26.3656 67.4991 26.3799C67.4801 26.3941 67.4706 26.4178 67.4659 26.4511C67.4612 26.4843 67.4564 26.5222 67.4564 26.5744V28.3397C67.4564 28.6245 67.5228 28.8475 67.651 29.0136C67.7838 29.1797 67.9974 29.2604 68.2916 29.2604C68.5621 29.2604 68.7756 29.1844 68.9228 29.0278C69.0746 28.8712 69.1458 28.6624 69.1458 28.3919V26.5602C69.1458 26.5128 69.141 26.4748 69.1268 26.4463C69.1126 26.4178 69.0888 26.3894 69.0556 26.3751C69.0224 26.3609 68.9702 26.3514 68.9085 26.3514V26.304H69.6441V26.3514H69.5729H69.5776Z" fill="#007EA9"/>
<path d="M72.3489 29.4407H70.2609V29.3933C70.3084 29.3933 70.3511 29.3933 70.3796 29.3885C70.408 29.3885 70.4318 29.3743 70.446 29.36C70.4602 29.3458 70.4697 29.3221 70.4745 29.2936C70.4745 29.2651 70.4792 29.2224 70.4792 29.1702V26.584C70.4792 26.5365 70.4792 26.4938 70.4745 26.4653C70.4745 26.4369 70.4602 26.4131 70.446 26.3941C70.4318 26.3799 70.408 26.3704 70.3796 26.3657C70.3511 26.3657 70.3131 26.3609 70.2609 26.3609V26.3135H71.1151V26.3609C71.0677 26.3609 71.0249 26.3609 70.9965 26.3657C70.968 26.3657 70.9395 26.3799 70.9253 26.3941C70.9063 26.4084 70.8968 26.4321 70.8921 26.4606C70.8873 26.4891 70.8826 26.5318 70.8826 26.584V29.137C70.8826 29.1655 70.8921 29.1845 70.9063 29.1987C70.9205 29.2129 70.9443 29.2224 70.968 29.2224C70.9917 29.2224 71.0155 29.2224 71.0439 29.2224C71.0677 29.2224 71.0914 29.2224 71.1104 29.2224H71.7842C71.8696 29.2224 71.9408 29.2224 72.0073 29.2129C72.0737 29.2082 72.1306 29.194 72.1781 29.1702C72.2255 29.1465 72.273 29.1133 72.311 29.0658C72.3489 29.0184 72.3869 28.9519 72.4248 28.876L72.4865 28.8903L72.3584 29.4502L72.3489 29.4407Z" fill="#007EA9"/>
<path d="M74.4654 26.8593C74.4417 26.7359 74.4037 26.6505 74.3468 26.6078C74.2946 26.5651 74.2044 26.5414 74.081 26.5414H73.4783V29.1656C73.4783 29.2225 73.4783 29.2652 73.4878 29.2937C73.4973 29.3222 73.5068 29.3459 73.5258 29.3602C73.5448 29.3744 73.5685 29.3839 73.6017 29.3886C73.6349 29.3886 73.6776 29.3886 73.7298 29.3886V29.4361H72.8377V29.3886C72.8852 29.3886 72.9279 29.3886 72.9611 29.3886C72.9943 29.3886 73.018 29.3744 73.037 29.3602C73.056 29.3459 73.0702 29.3222 73.075 29.2937C73.0797 29.2652 73.0845 29.2225 73.0845 29.1656V26.5414H72.4723C72.3537 26.5414 72.2635 26.5651 72.2066 26.6125C72.1496 26.66 72.1069 26.7407 72.0832 26.8641H72.0405L72.0595 26.3088H74.4939L74.5081 26.8641H74.4606L74.4654 26.8593Z" fill="#007EA9"/>
<path d="M77.4218 28.5011C77.3554 28.6957 77.2605 28.8713 77.1371 29.0184C77.0137 29.1655 76.8571 29.2841 76.6768 29.3695C76.4964 29.455 76.2876 29.4977 76.0504 29.4977C75.8131 29.4977 75.6043 29.455 75.4192 29.3695C75.2389 29.2841 75.0823 29.1702 74.9589 29.0231C74.8355 28.876 74.7406 28.7052 74.6742 28.5059C74.6078 28.3066 74.5793 28.0978 74.5793 27.8747C74.5793 27.5995 74.622 27.3622 74.7027 27.1582C74.7881 26.9541 74.8972 26.7833 75.0348 26.6457C75.1725 26.508 75.3291 26.4036 75.5046 26.3372C75.6802 26.2708 75.8606 26.2375 76.0409 26.2375C76.2212 26.2375 76.4015 26.2755 76.5771 26.3419C76.7527 26.4084 76.9093 26.5128 77.0469 26.6457C77.1845 26.7833 77.2984 26.9541 77.3791 27.1582C77.4645 27.3622 77.5025 27.6042 77.5025 27.8747C77.5025 28.0978 77.4693 28.3066 77.4076 28.5011H77.4218ZM77.0469 27.3812C77.0089 27.2151 76.9473 27.0633 76.8666 26.9256C76.7812 26.788 76.6768 26.6789 76.5439 26.5935C76.411 26.508 76.2497 26.4653 76.0551 26.4653C75.8606 26.4653 75.6992 26.508 75.5663 26.5935C75.4335 26.6789 75.3243 26.7928 75.2436 26.9256C75.1582 27.0633 75.1013 27.2151 75.0633 27.3812C75.0254 27.5473 75.0064 27.7134 75.0064 27.8747C75.0064 28.0361 75.0254 28.2022 75.0633 28.373C75.1013 28.5391 75.1582 28.6909 75.2436 28.8286C75.3291 28.9614 75.4335 29.0706 75.5663 29.156C75.6992 29.2414 75.8606 29.2841 76.0551 29.2841C76.2497 29.2841 76.411 29.2414 76.5439 29.156C76.6768 29.0706 76.7859 28.9614 76.8713 28.8238C76.9568 28.6862 77.0137 28.5343 77.0517 28.3683C77.0896 28.2022 77.1086 28.0361 77.1086 27.8747C77.1086 27.7134 77.0896 27.552 77.0517 27.3812H77.0469Z" fill="#007EA9"/>
<path d="M79.9749 29.4407C79.899 29.2794 79.8278 29.1275 79.7519 28.9994C79.676 28.8713 79.5953 28.7479 79.5099 28.6293C79.4245 28.5106 79.3296 28.4062 79.2252 28.3018C79.1208 28.1974 79.0069 28.0883 78.8787 27.9744H78.5466V29.1702C78.5466 29.2224 78.5466 29.2651 78.556 29.2936C78.5608 29.3268 78.575 29.3458 78.5893 29.3648C78.6035 29.379 78.6272 29.3885 78.6604 29.3933C78.6937 29.3933 78.7316 29.3933 78.7791 29.3933V29.4407H77.9391V29.3933C77.9866 29.3933 78.0246 29.3933 78.053 29.3885C78.0815 29.3885 78.1052 29.3743 78.1195 29.36C78.1337 29.3458 78.1432 29.3221 78.1479 29.2936C78.1479 29.2651 78.1527 29.2224 78.1527 29.1702V26.584C78.1527 26.5365 78.1527 26.4938 78.1479 26.4653C78.1479 26.4369 78.1337 26.4131 78.1195 26.3941C78.1052 26.3799 78.0815 26.3704 78.053 26.3657C78.0246 26.3657 77.9866 26.3609 77.9391 26.3609V26.3135H79.0448C79.1825 26.3135 79.3106 26.3277 79.434 26.3562C79.5573 26.3847 79.6712 26.4321 79.7661 26.4985C79.861 26.565 79.937 26.6504 79.9939 26.7548C80.0509 26.8592 80.0793 26.9873 80.0793 27.1439C80.0793 27.2626 80.0556 27.3622 80.0129 27.4524C79.9702 27.5425 79.9133 27.6137 79.8373 27.6754C79.7614 27.7371 79.676 27.7846 79.5811 27.8225C79.4862 27.8605 79.3865 27.8842 79.2821 27.9032C79.3723 27.9791 79.4434 28.0408 79.5004 28.093C79.5573 28.1452 79.6048 28.1974 79.6475 28.2449C79.6902 28.2923 79.7282 28.3445 79.7709 28.392C79.8089 28.4442 79.861 28.5011 79.9132 28.5723C79.9749 28.6482 80.0319 28.7384 80.0888 28.8333C80.1458 28.9282 80.198 29.0231 80.2454 29.1085C80.2929 29.194 80.3356 29.2651 80.3783 29.3221C80.4163 29.379 80.459 29.4122 80.4922 29.4122V29.4597H79.9749V29.4407ZM78.5513 27.7561H78.7743C78.8835 27.7561 78.9926 27.7466 79.1018 27.7276C79.2062 27.7086 79.3058 27.6707 79.3913 27.6232C79.4767 27.5758 79.5479 27.5046 79.6001 27.4192C79.6523 27.3337 79.6807 27.2246 79.6807 27.0965C79.6807 26.9826 79.657 26.8877 79.6143 26.8117C79.5716 26.7358 79.5146 26.6789 79.4387 26.6362C79.3675 26.5935 79.2821 26.565 79.1919 26.5507C79.1018 26.5365 79.0069 26.527 78.9072 26.527H78.817C78.7886 26.527 78.7554 26.527 78.7221 26.527C78.6889 26.527 78.6557 26.5365 78.6272 26.5507C78.5988 26.565 78.575 26.5792 78.556 26.6029V27.7561H78.5513Z" fill="#007EA9"/>
<path d="M81.0473 29.4408V29.3933C81.0995 29.3933 81.1422 29.3933 81.1754 29.3933C81.2086 29.3933 81.2324 29.3838 81.2514 29.3696C81.2703 29.3553 81.2798 29.3316 81.2893 29.3031C81.2988 29.2747 81.2988 29.2272 81.2988 29.175V26.5887C81.2988 26.5318 81.2988 26.4891 81.2893 26.4606C81.2846 26.4321 81.2703 26.4084 81.2514 26.3942C81.2324 26.3799 81.2086 26.3705 81.1754 26.3705C81.1422 26.3705 81.0995 26.3705 81.0473 26.3705V26.323H81.9442V26.3705C81.892 26.3705 81.8493 26.3705 81.8161 26.3705C81.7829 26.3705 81.7591 26.3799 81.7401 26.3942C81.7212 26.4084 81.7069 26.4321 81.7022 26.4606C81.6974 26.4938 81.6927 26.5365 81.6927 26.5887V29.175C81.6927 29.232 81.6927 29.2747 81.7022 29.3031C81.7117 29.3316 81.7212 29.3553 81.7401 29.3696C81.7591 29.3838 81.7829 29.3933 81.8161 29.3933C81.8493 29.3933 81.892 29.3933 81.9442 29.3933V29.4408H81.0473Z" fill="#007EA9"/>
<path d="M84.7536 29.4406V29.3931C84.8248 29.3931 84.877 29.3789 84.9102 29.3552C84.9434 29.3315 84.9434 29.2793 84.9102 29.1986L84.6255 28.4963H83.2303L82.9693 29.1464C82.9361 29.2271 82.9266 29.2887 82.9408 29.3315C82.9551 29.3742 83.012 29.3979 83.1117 29.3979V29.4453H82.4615V29.3979C82.4995 29.3979 82.5327 29.3837 82.5565 29.3647C82.5802 29.3457 82.6039 29.3267 82.6276 29.2982C82.6466 29.2745 82.6656 29.246 82.6798 29.2128C82.6941 29.1843 82.7083 29.1511 82.7178 29.1227L83.9042 26.2754H84.1604L85.3895 29.2413C85.4227 29.3267 85.4891 29.3742 85.5888 29.3931V29.4406H84.7536ZM83.9326 26.7594L83.3205 28.2685H84.5448L83.9326 26.7594Z" fill="#007EA9"/>
<path d="M89.3235 29.4076C89.1479 29.4646 88.9581 29.4931 88.7636 29.4931C88.5168 29.4931 88.2985 29.4551 88.104 29.3744C87.9094 29.2938 87.748 29.1846 87.6104 29.0422C87.4728 28.8999 87.3732 28.729 87.302 28.5297C87.2308 28.3304 87.1976 28.1121 87.1976 27.8701C87.1976 27.6281 87.2355 27.424 87.3067 27.2247C87.3779 27.0254 87.487 26.8546 87.6247 26.7075C87.7623 26.5604 87.9284 26.4465 88.1182 26.3658C88.308 26.2851 88.5263 26.2424 88.7636 26.2424C88.9297 26.2424 89.091 26.2614 89.2523 26.2994C89.2713 26.3041 89.2951 26.3136 89.3235 26.3184C89.352 26.3278 89.3852 26.3326 89.4137 26.3421C89.4469 26.3516 89.4754 26.3611 89.5039 26.3658C89.5323 26.3706 89.5561 26.3753 89.575 26.3753C89.632 26.3753 89.6699 26.3468 89.6842 26.2899H89.7364V26.4607C89.7364 26.5224 89.7364 26.5841 89.7364 26.6505C89.7364 26.717 89.7364 26.7787 89.7269 26.8404C89.7174 26.902 89.7127 26.9542 89.7032 27.0017C89.594 26.8261 89.4754 26.6932 89.3425 26.6031C89.2096 26.5129 89.0388 26.4655 88.8253 26.4655C88.6117 26.4655 88.4409 26.5034 88.289 26.5794C88.1372 26.6553 88.0138 26.7549 87.9189 26.8831C87.824 27.0112 87.748 27.1583 87.7006 27.3291C87.6531 27.5 87.6294 27.6803 87.6294 27.8654C87.6294 28.0504 87.6531 28.2403 87.7053 28.4111C87.7528 28.5819 87.8287 28.729 87.9284 28.8524C88.028 28.9758 88.1561 29.0755 88.308 29.1466C88.4599 29.2178 88.6402 29.2558 88.8537 29.2558C88.9297 29.2558 89.0103 29.2558 89.0957 29.2558C89.1812 29.2558 89.2666 29.2463 89.352 29.2321C89.4374 29.2178 89.5181 29.1988 89.594 29.1656C89.6699 29.1371 89.7411 29.0944 89.8028 29.0422L89.8218 29.1229C89.6747 29.2558 89.5086 29.3507 89.333 29.4076H89.3235Z" fill="#007EA9"/>
<path d="M92.8255 28.5011C92.7591 28.6957 92.6641 28.8713 92.5408 29.0184C92.4174 29.1655 92.2608 29.2841 92.0805 29.3695C91.9001 29.455 91.6913 29.4977 91.4541 29.4977C91.2168 29.4977 91.008 29.455 90.8229 29.3695C90.6426 29.2841 90.486 29.1702 90.3626 29.0231C90.2392 28.876 90.1443 28.7052 90.0779 28.5059C90.0114 28.3066 89.983 28.0978 89.983 27.8747C89.983 27.5995 90.0257 27.3622 90.1064 27.1582C90.1918 26.9541 90.3009 26.7833 90.4385 26.6457C90.5762 26.508 90.7328 26.4036 90.9083 26.3372C91.0839 26.2708 91.2642 26.2375 91.4446 26.2375C91.6249 26.2375 91.8052 26.2755 91.9808 26.3419C92.1564 26.4084 92.313 26.5128 92.4506 26.6457C92.5882 26.7833 92.7021 26.9541 92.7828 27.1582C92.8682 27.3622 92.9062 27.6042 92.9062 27.8747C92.9062 28.0978 92.8729 28.3066 92.8113 28.5011H92.8255ZM92.4506 27.3812C92.4126 27.2151 92.3509 27.0633 92.2703 26.9256C92.1849 26.788 92.0805 26.6789 91.9476 26.5935C91.8147 26.508 91.6534 26.4653 91.4588 26.4653C91.2642 26.4653 91.1029 26.508 90.97 26.5935C90.8372 26.6789 90.728 26.7928 90.6473 26.9256C90.5619 27.0633 90.505 27.2151 90.467 27.3812C90.429 27.5473 90.4101 27.7134 90.4101 27.8747C90.4101 28.0361 90.429 28.2022 90.467 28.373C90.505 28.5391 90.5619 28.6909 90.6473 28.8286C90.7328 28.9614 90.8372 29.0706 90.97 29.156C91.1029 29.2414 91.2642 29.2841 91.4588 29.2841C91.6534 29.2841 91.8147 29.2414 91.9476 29.156C92.0805 29.0706 92.1896 28.9614 92.275 28.8238C92.3604 28.6862 92.4174 28.5343 92.4553 28.3683C92.4933 28.2022 92.5123 28.0361 92.5123 27.8747C92.5123 27.7134 92.4933 27.552 92.4553 27.3812H92.4506Z" fill="#007EA9"/>
<path d="M95.3787 29.4407C95.3028 29.2794 95.2316 29.1275 95.1557 28.9994C95.0797 28.8713 94.9991 28.7479 94.9136 28.6293C94.8282 28.5106 94.7333 28.4062 94.6289 28.3018C94.5245 28.1974 94.4106 28.0883 94.2825 27.9744H93.9503V29.1702C93.9503 29.2224 93.9503 29.2651 93.9598 29.2936C93.9645 29.3268 93.9788 29.3458 93.993 29.3648C94.0073 29.379 94.031 29.3885 94.0642 29.3933C94.0974 29.3933 94.1354 29.3933 94.1828 29.3933V29.4407H93.3429V29.3933C93.3903 29.3933 93.4283 29.3933 93.4568 29.3885C93.4853 29.3885 93.509 29.3743 93.5232 29.36C93.5375 29.3458 93.547 29.3221 93.5517 29.2936C93.5517 29.2651 93.5564 29.2224 93.5564 29.1702V26.584C93.5564 26.5365 93.5564 26.4938 93.5517 26.4653C93.5517 26.4369 93.5375 26.4131 93.5232 26.3941C93.509 26.3799 93.4853 26.3704 93.4568 26.3657C93.4283 26.3657 93.3903 26.3609 93.3429 26.3609V26.3135H94.4486C94.5862 26.3135 94.7143 26.3277 94.8377 26.3562C94.9611 26.3847 95.075 26.4321 95.1699 26.4985C95.2648 26.565 95.3407 26.6504 95.3977 26.7548C95.4546 26.8592 95.4831 26.9873 95.4831 27.1439C95.4831 27.2626 95.4594 27.3622 95.4167 27.4524C95.3739 27.5425 95.317 27.6137 95.2411 27.6754C95.1651 27.7371 95.0797 27.7846 94.9848 27.8225C94.8899 27.8605 94.7903 27.8842 94.6859 27.9032C94.776 27.9791 94.8472 28.0408 94.9041 28.093C94.9611 28.1452 95.0085 28.1974 95.0513 28.2449C95.094 28.2923 95.1319 28.3445 95.1746 28.392C95.2126 28.4442 95.2648 28.5011 95.317 28.5723C95.3787 28.6482 95.4356 28.7384 95.4926 28.8333C95.5495 28.9282 95.6017 29.0231 95.6492 29.1085C95.6966 29.194 95.7393 29.2651 95.7821 29.3221C95.82 29.379 95.8627 29.4122 95.8959 29.4122V29.4597H95.3787V29.4407ZM93.9503 27.7561H94.1733C94.2825 27.7561 94.3916 27.7466 94.5008 27.7276C94.6052 27.7086 94.7048 27.6707 94.7903 27.6232C94.8757 27.5758 94.9469 27.5046 94.9991 27.4192C95.0513 27.3337 95.0797 27.2246 95.0797 27.0965C95.0797 26.9826 95.056 26.8877 95.0133 26.8117C94.9706 26.7358 94.9136 26.6789 94.8377 26.6362C94.7665 26.5935 94.6811 26.565 94.5909 26.5507C94.5008 26.5365 94.4059 26.527 94.3062 26.527H94.2161C94.1876 26.527 94.1544 26.527 94.1211 26.527C94.0879 26.527 94.0547 26.5365 94.0262 26.5507C93.9978 26.565 93.974 26.5792 93.9551 26.6029V27.7561H93.9503Z" fill="#007EA9"/>
<path d="M97.068 29.1656C97.068 29.2225 97.0681 29.2652 97.0775 29.2937C97.0823 29.3222 97.0965 29.3459 97.1155 29.3602C97.1345 29.3744 97.1582 29.3839 97.1914 29.3886C97.2246 29.3934 97.2626 29.3886 97.3101 29.3886V29.4361H96.4606V29.3886C96.5081 29.3886 96.546 29.3886 96.5745 29.3839C96.603 29.3839 96.6267 29.3696 96.641 29.3554C96.6552 29.3412 96.6647 29.3174 96.6694 29.289C96.6694 29.2605 96.6742 29.2178 96.6742 29.1656V26.5793C96.6742 26.5319 96.6742 26.4892 96.6694 26.4607C96.6694 26.4322 96.6552 26.4085 96.641 26.3895C96.6267 26.3753 96.603 26.3658 96.5745 26.361C96.546 26.361 96.5081 26.3563 96.4606 26.3563V26.3088H97.5046C97.6422 26.3088 97.7799 26.3231 97.908 26.3563C98.0361 26.3895 98.1548 26.4417 98.2592 26.5081C98.3588 26.5793 98.4395 26.6695 98.5012 26.7786C98.5629 26.8878 98.5913 27.0254 98.5913 27.182C98.5913 27.3481 98.5581 27.4905 98.4964 27.6043C98.4347 27.7182 98.3493 27.8131 98.2402 27.8891C98.1358 27.9603 98.0124 28.0125 97.8748 28.0457C97.7372 28.0789 97.5948 28.0884 97.4477 28.0884L97.068 28.0789V29.1703V29.1656ZM97.068 27.8416L97.3955 27.8511C97.5141 27.8511 97.6185 27.8464 97.7182 27.8226C97.8131 27.7989 97.8985 27.7609 97.9697 27.7087C98.0409 27.6565 98.0931 27.5854 98.131 27.4952C98.169 27.405 98.188 27.3006 98.188 27.1725C98.188 27.0586 98.169 26.959 98.1263 26.8783C98.0836 26.7929 98.0266 26.7264 97.9554 26.679C97.8843 26.6268 97.8036 26.5888 97.7087 26.5651C97.6138 26.5414 97.5141 26.5271 97.4097 26.5271C97.3812 26.5271 97.3528 26.5271 97.3243 26.5224C97.2958 26.5224 97.2626 26.5129 97.2341 26.5129C97.2057 26.5129 97.1724 26.5129 97.144 26.5129C97.1155 26.5129 97.087 26.5271 97.068 26.5414V27.8464V27.8416Z" fill="#007EA9"/>
<path d="M101.899 28.5011C101.832 28.6957 101.738 28.8713 101.614 29.0184C101.491 29.1655 101.334 29.2841 101.154 29.3695C100.973 29.455 100.765 29.4977 100.527 29.4977C100.29 29.4977 100.081 29.455 99.8963 29.3695C99.7159 29.2841 99.5593 29.1702 99.436 29.0231C99.3126 28.876 99.2177 28.7052 99.1512 28.5059C99.0848 28.3066 99.0563 28.0978 99.0563 27.8747C99.0563 27.5995 99.099 27.3622 99.1797 27.1582C99.2651 26.9541 99.3743 26.7833 99.5119 26.6457C99.6495 26.508 99.8061 26.4036 99.9817 26.3372C100.157 26.2708 100.338 26.2375 100.518 26.2375C100.698 26.2375 100.879 26.2755 101.054 26.3419C101.23 26.4084 101.386 26.5128 101.524 26.6457C101.662 26.7833 101.775 26.9541 101.856 27.1582C101.942 27.3622 101.98 27.6042 101.98 27.8747C101.98 28.0978 101.946 28.3066 101.885 28.5011H101.899ZM101.519 27.3812C101.481 27.2151 101.42 27.0633 101.339 26.9256C101.253 26.788 101.149 26.6789 101.016 26.5935C100.883 26.508 100.722 26.4653 100.527 26.4653C100.333 26.4653 100.172 26.508 100.039 26.5935C99.9058 26.6789 99.7966 26.7928 99.716 26.9256C99.6305 27.0633 99.5736 27.2151 99.5356 27.3812C99.4977 27.5473 99.4787 27.7134 99.4787 27.8747C99.4787 28.0361 99.4977 28.2022 99.5356 28.373C99.5736 28.5391 99.6305 28.6909 99.716 28.8286C99.8014 28.9614 99.9058 29.0706 100.039 29.156C100.172 29.2414 100.333 29.2841 100.527 29.2841C100.722 29.2841 100.883 29.2414 101.016 29.156C101.149 29.0706 101.258 28.9614 101.344 28.8238C101.429 28.6862 101.486 28.5343 101.524 28.3683C101.562 28.2022 101.581 28.0361 101.581 27.8747C101.581 27.7134 101.562 27.552 101.524 27.3812H101.519Z" fill="#007EA9"/>
<path d="M104.447 29.4407C104.371 29.2794 104.3 29.1275 104.224 28.9994C104.148 28.8713 104.067 28.7479 103.982 28.6293C103.897 28.5106 103.802 28.4062 103.697 28.3018C103.593 28.1974 103.479 28.0883 103.351 27.9744H103.019V29.1702C103.019 29.2224 103.019 29.2651 103.028 29.2936C103.033 29.3268 103.047 29.3458 103.061 29.3648C103.076 29.379 103.099 29.3885 103.133 29.3933C103.166 29.3933 103.204 29.3933 103.251 29.3933V29.4407H102.411V29.3933C102.459 29.3933 102.497 29.3933 102.525 29.3885C102.554 29.3885 102.577 29.3743 102.592 29.36C102.606 29.3458 102.615 29.3221 102.62 29.2936C102.62 29.2651 102.625 29.2224 102.625 29.1702V26.584C102.625 26.5365 102.625 26.4938 102.62 26.4653C102.62 26.4369 102.606 26.4131 102.592 26.3941C102.577 26.3799 102.554 26.3704 102.525 26.3657C102.497 26.3657 102.459 26.3609 102.411 26.3609V26.3135H103.517C103.655 26.3135 103.783 26.3277 103.906 26.3562C104.029 26.3847 104.143 26.4321 104.238 26.4985C104.333 26.565 104.409 26.6504 104.466 26.7548C104.523 26.8592 104.551 26.9873 104.551 27.1439C104.551 27.2626 104.528 27.3622 104.485 27.4524C104.442 27.5425 104.385 27.6137 104.309 27.6754C104.233 27.7371 104.148 27.7846 104.053 27.8225C103.958 27.8605 103.859 27.8842 103.754 27.9032C103.844 27.9791 103.916 28.0408 103.972 28.093C104.029 28.1452 104.077 28.1974 104.12 28.2449C104.162 28.2923 104.2 28.3445 104.243 28.392C104.281 28.4442 104.333 28.5011 104.385 28.5723C104.447 28.6482 104.504 28.7384 104.561 28.8333C104.618 28.9282 104.67 29.0231 104.717 29.1085C104.765 29.194 104.808 29.2651 104.85 29.3221C104.888 29.379 104.931 29.4122 104.964 29.4122V29.4597H104.447V29.4407ZM103.023 27.7561H103.246C103.356 27.7561 103.465 27.7466 103.574 27.7276C103.678 27.7086 103.778 27.6707 103.863 27.6232C103.949 27.5758 104.02 27.5046 104.072 27.4192C104.124 27.3337 104.153 27.2246 104.153 27.0965C104.153 26.9826 104.129 26.8877 104.086 26.8117C104.044 26.7358 103.987 26.6789 103.911 26.6362C103.84 26.5935 103.754 26.565 103.664 26.5507C103.574 26.5365 103.479 26.527 103.379 26.527H103.289C103.261 26.527 103.227 26.527 103.194 26.527C103.161 26.527 103.128 26.5365 103.099 26.5507C103.071 26.565 103.047 26.5792 103.028 26.6029V27.7561H103.023Z" fill="#007EA9"/>
<path d="M107.479 29.4406V29.3931C107.551 29.3931 107.603 29.3789 107.636 29.3552C107.669 29.3315 107.669 29.2793 107.636 29.1986L107.351 28.4963H105.956L105.695 29.1464C105.662 29.2271 105.652 29.2887 105.667 29.3315C105.681 29.3742 105.738 29.3979 105.838 29.3979V29.4453H105.187V29.3979C105.225 29.3979 105.259 29.3837 105.282 29.3647C105.306 29.3457 105.33 29.3267 105.353 29.2982C105.372 29.2745 105.391 29.246 105.406 29.2128C105.42 29.1843 105.434 29.1511 105.444 29.1227L106.63 26.2754H106.886L108.115 29.2413C108.149 29.3267 108.215 29.3742 108.315 29.3931V29.4406H107.479ZM106.663 26.7594L106.051 28.2685H107.275L106.663 26.7594Z" fill="#007EA9"/>
<path d="M110.455 26.8593C110.431 26.7359 110.393 26.6505 110.336 26.6078C110.284 26.5651 110.194 26.5414 110.07 26.5414H109.468V29.1656C109.468 29.2225 109.468 29.2652 109.477 29.2937C109.487 29.3222 109.496 29.3459 109.515 29.3602C109.534 29.3744 109.558 29.3839 109.591 29.3886C109.624 29.3886 109.667 29.3886 109.719 29.3886V29.4361H108.827V29.3886C108.875 29.3886 108.917 29.3886 108.95 29.3886C108.984 29.3886 109.007 29.3744 109.026 29.3602C109.045 29.3459 109.06 29.3222 109.064 29.2937C109.069 29.2652 109.074 29.2225 109.074 29.1656V26.5414H108.462C108.343 26.5414 108.253 26.5651 108.196 26.6125C108.139 26.66 108.096 26.7407 108.073 26.8641H108.03L108.049 26.3088H110.483L110.497 26.8641H110.45L110.455 26.8593Z" fill="#007EA9"/>
<path d="M110.991 29.4408V29.3933C111.043 29.3933 111.086 29.3933 111.119 29.3933C111.152 29.3933 111.176 29.3838 111.195 29.3696C111.214 29.3553 111.228 29.3316 111.233 29.3031C111.238 29.2747 111.243 29.2272 111.243 29.175V26.5887C111.243 26.5318 111.243 26.4891 111.233 26.4606C111.228 26.4321 111.214 26.4084 111.195 26.3942C111.176 26.3799 111.152 26.3705 111.119 26.3705C111.086 26.3705 111.043 26.3705 110.991 26.3705V26.323H111.888V26.3705C111.836 26.3705 111.793 26.3705 111.76 26.3705C111.727 26.3705 111.703 26.3799 111.684 26.3942C111.665 26.4084 111.655 26.4321 111.646 26.4606C111.641 26.4938 111.636 26.5365 111.636 26.5887V29.175C111.636 29.232 111.636 29.2747 111.646 29.3031C111.655 29.3316 111.665 29.3553 111.684 29.3696C111.703 29.3838 111.727 29.3933 111.76 29.3933C111.793 29.3933 111.836 29.3933 111.888 29.3933V29.4408H110.991Z" fill="#007EA9"/>
<path d="M115.238 26.4084C115.21 26.4463 115.181 26.489 115.162 26.5412L114.028 29.4739H113.838L112.643 26.5507C112.619 26.4938 112.586 26.4463 112.552 26.4084C112.519 26.3751 112.467 26.3514 112.401 26.3514V26.304H113.221V26.3514C113.188 26.3514 113.16 26.3514 113.131 26.3514C113.103 26.3514 113.079 26.3609 113.06 26.3704C113.041 26.3799 113.032 26.3989 113.027 26.4178C113.027 26.4416 113.027 26.47 113.041 26.508L113.985 28.8902L114.854 26.6124C114.887 26.527 114.897 26.4606 114.878 26.4226C114.859 26.3846 114.802 26.3609 114.702 26.3514V26.304H115.371V26.3514C115.309 26.3514 115.262 26.3704 115.234 26.4084H115.238Z" fill="#007EA9"/>
<path d="M117.165 29.4406V29.3931C117.236 29.3931 117.288 29.3789 117.321 29.3552C117.355 29.3315 117.355 29.2793 117.321 29.1986L117.037 28.4963H115.642L115.381 29.1464C115.347 29.2271 115.338 29.2887 115.352 29.3315C115.366 29.3742 115.423 29.3979 115.523 29.3979V29.4453H114.873V29.3979C114.911 29.3979 114.944 29.3837 114.968 29.3647C114.991 29.3457 115.015 29.3267 115.039 29.2982C115.058 29.2745 115.077 29.246 115.091 29.2128C115.105 29.1843 115.12 29.1511 115.129 29.1227L116.315 26.2754H116.572L117.801 29.2413C117.834 29.3267 117.9 29.3742 118 29.3931V29.4406H117.165ZM116.349 26.7594L115.736 28.2685H116.961L116.349 26.7594Z" fill="#007EA9"/>
<path d="M70.2562 20.4054V20.1159C70.7023 20.1159 71.0297 20.0353 71.2433 19.8692C71.4568 19.7031 71.4568 19.3804 71.2433 18.8964L69.4447 14.4879H60.7179L59.0949 18.5452C58.8814 19.0482 58.8197 19.4326 58.9051 19.7031C58.9905 19.9736 59.3465 20.1112 59.9634 20.1112V20.4007H55.906V20.1112C56.1385 20.0922 56.3378 20.0258 56.4992 19.9071C56.6653 19.7933 56.8076 19.6556 56.9358 19.499C57.0592 19.3424 57.1683 19.1716 57.2537 18.977C57.3391 18.7825 57.4245 18.5927 57.5005 18.3981L64.9223 0.574219H66.5168L74.2281 19.1574C74.4417 19.6794 74.8545 19.9973 75.4762 20.1159V20.4054H70.2562ZM65.1264 3.61605L61.3016 13.069H68.956L65.1311 3.61605H65.1264Z" fill="#007EA9"/>
<path d="M86.6993 20.2156C85.5888 20.5715 84.4215 20.7519 83.2066 20.7519C81.6596 20.7519 80.2834 20.5051 79.0734 20.0116C77.8633 19.5181 76.8383 18.83 75.9841 17.9378C75.1346 17.0504 74.4845 15.9827 74.0432 14.7347C73.5971 13.4866 73.3741 12.1104 73.3741 10.6014C73.3741 9.09233 73.6066 7.80157 74.0717 6.55826C74.5367 5.31021 75.1963 4.22825 76.0553 3.31238C76.9142 2.39651 77.9487 1.67995 79.1588 1.16744C80.3641 0.654935 81.7166 0.398682 83.2019 0.398682C84.2269 0.398682 85.2519 0.512572 86.2769 0.745099C86.3908 0.783062 86.5427 0.825771 86.7278 0.877971C86.9128 0.930171 87.0979 0.977625 87.2925 1.03932C87.487 1.09626 87.6674 1.14372 87.8429 1.18642C88.0185 1.22439 88.1609 1.24337 88.2795 1.24337C88.6449 1.24337 88.8774 1.06779 88.9771 0.721372H89.295V1.79384C89.295 2.18297 89.2903 2.57684 89.2808 2.98495C89.2713 3.39305 89.2523 3.78693 89.2239 4.17131C89.1954 4.56043 89.1432 4.89736 89.0625 5.18683C88.3839 4.08589 87.6341 3.25069 86.7989 2.68124C85.9685 2.11179 84.8865 1.82706 83.5531 1.82706C82.2196 1.82706 81.1376 2.06433 80.1885 2.53887C79.2394 3.01342 78.4612 3.64456 77.8538 4.43705C77.2464 5.22954 76.7908 6.15965 76.4918 7.21788C76.1929 8.28086 76.041 9.40078 76.041 10.5824C76.041 11.764 76.1976 12.9409 76.5061 14.0039C76.8145 15.0668 77.2843 15.9922 77.9107 16.7704C78.5371 17.5534 79.3296 18.1704 80.2882 18.6259C81.2468 19.0815 82.3809 19.3093 83.6954 19.3093C84.1605 19.3093 84.6635 19.2998 85.2045 19.2808C85.7454 19.2618 86.2817 19.2096 86.8132 19.1194C87.3447 19.034 87.8524 18.8964 88.3365 18.7113C88.8205 18.5263 89.2523 18.27 89.6415 17.9426L89.7553 18.4361C88.83 19.2666 87.8097 19.8597 86.6945 20.2204L86.6993 20.2156Z" fill="#007EA9"/>
<path d="M108.718 20.4053V20.1159C109.026 20.1159 109.278 20.1016 109.472 20.0731C109.667 20.0447 109.814 19.983 109.923 19.8833C110.028 19.7884 110.104 19.6461 110.142 19.461C110.18 19.2759 110.199 19.0197 110.199 18.6922V3.03701L102.777 20.4006H101.79L94.3677 3.4119V17.9377C94.3677 18.3031 94.3677 18.6258 94.382 18.8963C94.3914 19.1668 94.4389 19.3945 94.5243 19.5796C94.6097 19.7647 94.7568 19.8976 94.9609 19.9877C95.165 20.0731 95.4687 20.1159 95.872 20.1159V20.4053H91.2025V20.1159C91.6106 20.1159 91.9238 20.0731 92.1469 19.9877C92.3699 19.9023 92.5217 19.7694 92.6119 19.5986C92.6973 19.423 92.7448 19.2047 92.7543 18.9295C92.7638 18.659 92.7685 18.3316 92.7685 17.9424V2.48654C92.7685 2.14012 92.7448 1.86963 92.6973 1.67507C92.6499 1.48051 92.5645 1.34289 92.4506 1.25273C92.3367 1.16256 92.1753 1.11036 91.9713 1.09138C91.7672 1.0724 91.511 1.06291 91.2025 1.06291V0.773438H95.7249L102.772 16.8368L109.615 0.778183H114.052V1.06765C113.743 1.06765 113.497 1.08189 113.312 1.11036C113.126 1.13884 112.989 1.20053 112.889 1.30018C112.794 1.39509 112.728 1.5422 112.699 1.73676C112.671 1.93132 112.657 2.18283 112.657 2.49129V18.697C112.657 19.0244 112.671 19.2807 112.699 19.4657C112.728 19.6508 112.79 19.7884 112.889 19.8881C112.984 19.983 113.126 20.0494 113.312 20.0779C113.497 20.1064 113.743 20.1206 114.052 20.1206V20.4101H108.718V20.4053Z" fill="#007EA9"/>
<path d="M53.0398 16.1062C53.0398 20.9845 52.9828 25.6872 52.8737 30.129C52.7313 25.1463 52.6554 19.7839 52.6554 14.189C52.6554 9.31072 52.7123 4.60799 52.8215 0.16626C52.9638 5.14897 53.0398 10.5113 53.0398 16.1062Z" fill="#007EA9"/>
<path d="M36.3976 26.228C38.6541 26.228 40.4834 24.3988 40.4834 22.1422C40.4834 19.8857 38.6541 18.0564 36.3976 18.0564C34.1411 18.0564 32.3118 19.8857 32.3118 22.1422C32.3118 24.3988 34.1411 26.228 36.3976 26.228Z" fill="#007EA9"/>
<path d="M13.496 26.228C15.7526 26.228 17.5819 24.3988 17.5819 22.1422C17.5819 19.8857 15.7526 18.0564 13.496 18.0564C11.2395 18.0564 9.41022 19.8857 9.41022 22.1422C9.41022 24.3988 11.2395 26.228 13.496 26.228Z" fill="#007EA9"/>
<path d="M14.2173 20.2724L21.0555 10.1504C21.0555 10.1504 24.9799 10.791 25.0321 13.2539C25.0321 13.2539 22.593 8.14307 15.4084 21.0317L14.2173 20.2724Z" fill="#007EA9"/>
<path d="M35.9277 20.2724L29.0895 10.1504C29.0895 10.1504 25.165 10.791 25.1128 13.2539C25.1128 13.2539 27.5519 8.14307 34.7365 21.0317L35.9277 20.2724Z" fill="#007EA9"/>
<path d="M50.2163 12.3286C48.9777 13.5956 47.2599 14.4023 45.3569 14.4545C45.1624 14.445 44.9631 14.445 44.7685 14.445H44.7258C34.414 14.4688 25.9718 22.4601 25.2363 32.5869C25.1983 32.1123 25.1841 31.6283 25.1841 31.1442C25.1841 21.9998 31.4576 14.3169 39.9329 12.1625C41.4799 11.7686 43.0981 11.5598 44.7685 11.5598C46.6619 11.5598 48.4889 11.8256 50.2163 12.3286Z" fill="#007EA9"/>
<path d="M50.2162 12.3286C48.9777 13.5956 47.2598 14.4023 45.3569 14.4545C45.2904 14.4593 45.2193 14.4593 45.1528 14.4593C45.0105 14.4593 44.8681 14.4545 44.7257 14.445C42.8276 14.3359 41.1334 13.477 39.9281 12.1625C41.4751 11.7686 43.0933 11.5598 44.7637 11.5598C46.6571 11.5598 48.4841 11.8256 50.2115 12.3286H50.2162Z" fill="#007EA9"/>
<path d="M0 12.3286C1.23856 13.5956 2.95641 14.4023 4.85933 14.4545C5.05389 14.445 5.2532 14.445 5.44776 14.445H5.49047C15.8023 14.4688 24.2445 22.4601 24.98 32.5869C25.018 32.1123 25.0322 31.6283 25.0322 31.1442C25.0322 21.9998 18.7587 14.3169 10.2834 12.1625C8.73635 11.7686 7.11816 11.5598 5.44776 11.5598C3.55433 11.5598 1.72734 11.8256 0 12.3286Z" fill="#007EA9"/>
<path d="M0 12.3286C1.23856 13.5956 2.95641 14.4023 4.85933 14.4545C4.92577 14.4593 4.99695 14.4593 5.06338 14.4593C5.20575 14.4593 5.34811 14.4545 5.49047 14.445C7.38865 14.3359 9.08277 13.477 10.2881 12.1625C8.7411 11.7686 7.1229 11.5598 5.45251 11.5598C3.55908 11.5598 1.73209 11.8256 0.00474544 12.3286H0Z" fill="#007EA9"/>
<path d="M43.9428 18.5072C43.9428 22.1565 42.8656 25.5542 41.0101 28.4204H39.7099C41.6935 25.6064 42.8609 22.1944 42.8609 18.5072V18.455C42.8514 18.6543 42.8419 18.8489 42.8276 19.0387C42.1917 10.0841 34.5041 3.00861 25.1082 3.00861C15.7122 3.00861 8.02933 10.0793 7.39344 19.0387C7.3792 18.8252 7.36497 18.6069 7.36022 18.3933C7.36022 18.4313 7.36022 18.4693 7.36022 18.5072C7.36022 22.1897 8.52285 25.6064 10.5064 28.4204H9.21094C7.35547 25.5542 6.27826 22.1565 6.27826 18.5072C6.27826 8.29028 14.7109 0 25.1082 0C30.3898 0 35.1638 2.13545 38.5805 5.58064C38.9933 5.99349 39.3872 6.42533 39.7573 6.87614C42.3768 10.0556 43.9428 14.0987 43.9428 18.5072Z" fill="#007EA9"/>
<path d="M81.6642 25.1367C81.7069 25.0798 81.7496 25.0276 81.7923 24.9659C81.835 24.9042 81.8825 24.852 81.9204 24.8045C81.9631 24.7571 81.9964 24.7238 82.0201 24.7144C82.0675 24.7144 82.1055 24.7144 82.134 24.7144C82.1672 24.7144 82.2004 24.7333 82.2431 24.7571C82.2479 24.7571 82.2574 24.7666 82.2716 24.776C82.2858 24.7808 82.2953 24.7903 82.3001 24.7998C82.3096 24.8093 82.3143 24.8188 82.3143 24.8282C82.3143 24.8377 82.3143 24.8472 82.3001 24.8567L81.8018 25.2553H81.5693C81.5883 25.2316 81.6215 25.1936 81.6594 25.1367H81.6642Z" fill="#007EA9"/>
</svg>
