<svg width="362" height="320" viewBox="0 0 362 320" fill="none" xmlns="http://www.w3.org/2000/svg">
<path d="M701.125 558.402L248.055 126.567C194.913 75.906 110.696 77.846 59.9614 130.897C9.22643 183.947 11.1806 268.03 64.3223 318.692L517.393 750.527C570.534 801.188 654.751 799.248 705.486 746.197C756.221 693.147 754.267 609.063 701.125 558.402Z" fill="#007EA9"/>
<path d="M546.073 605.458L546.073 605.458L130.042 209.409C130.041 209.409 130.041 209.409 130.041 209.409C84.2611 165.818 82.8787 93.8914 126.92 48.7195C171.011 3.49696 243.95 2.1824 289.78 45.8199L289.78 45.8204L705.811 441.869C705.811 441.869 705.812 441.869 705.812 441.869C751.592 485.46 752.974 557.387 708.932 602.559C664.842 647.781 591.903 649.096 546.073 605.458Z" stroke="#77E0C5" stroke-width="15"/>
</svg>
