<svg width="374" height="344" viewBox="0 0 374 344" fill="none" xmlns="http://www.w3.org/2000/svg">
<path d="M213.125 108.914L-239.945 -322.921C-293.087 -373.582 -377.304 -371.642 -428.039 -318.591C-478.773 -265.541 -476.819 -181.457 -423.678 -130.796L29.3928 301.039C82.5345 351.7 166.751 349.76 217.486 296.709C268.221 243.659 266.267 159.576 213.125 108.914Z" fill="#007EA9"/>
<path d="M148.595 269.831L148.594 269.831L-267.437 -126.218C-267.437 -126.218 -267.437 -126.218 -267.437 -126.218C-313.217 -169.809 -314.6 -241.736 -270.558 -286.908C-226.467 -332.13 -153.529 -333.445 -107.699 -289.807L-107.698 -289.807L308.333 106.242C308.333 106.242 308.333 106.242 308.333 106.242C354.113 149.833 355.496 221.76 311.454 266.932C267.363 312.154 194.425 313.469 148.595 269.831Z" stroke="#77E0C5" stroke-width="15"/>
</svg>
