<svg width="18" height="18" viewBox="0 0 18 18" fill="none" xmlns="http://www.w3.org/2000/svg">
<path d="M15.1296 15.1297H12.4985V11.0094C12.4985 10.0267 12.481 8.76237 11.13 8.76237C9.75975 8.76237 9.54975 9.83249 9.54975 10.9385V15.1297H6.9195V6.65624H9.44562V7.81387H9.48062C9.996 6.93362 10.9532 6.40774 11.9726 6.44537C14.6396 6.44537 15.1305 8.19975 15.1305 10.4809L15.1296 15.1297ZM3.95062 5.49774C3.10712 5.49774 2.42375 4.81437 2.42375 3.97087C2.42375 3.12737 3.10712 2.44399 3.95062 2.44399C4.79412 2.44399 5.4775 3.12737 5.4775 3.97087C5.4775 4.81437 4.79412 5.49774 3.95062 5.49774ZM5.26575 15.1297H2.632V6.65624H5.26575V15.1297ZM16.4412 0.000994518H1.30987C0.595 -0.00688048 0.00875 0.566245 0 1.28112V16.4746C0.00875 17.1904 0.595 17.7635 1.30987 17.7556H16.4412C17.1579 17.7644 17.7467 17.1912 17.7564 16.4746V1.28024C17.7459 0.563619 17.157 -0.00950552 16.4412 0.000119477" fill="white"/>
</svg>
