<svg width="65" height="64" viewBox="0 0 65 64" fill="none" xmlns="http://www.w3.org/2000/svg">
<path fill-rule="evenodd" clip-rule="evenodd" d="M54.7151 9.24475C48.7288 3.33382 40.7627 0.0683899 32.2707 0.0519782C14.7716 0.0235685 0.506699 14.0027 0.470742 31.218C0.459139 36.7202 1.91335 42.0935 4.6847 46.8336L0.152182 63.0021L16.9883 58.6875C21.6213 61.1836 26.8409 62.502 32.1533 62.5133L32.1667 62.5133C49.6631 62.5417 63.9307 48.56 63.9667 31.3447C63.9856 23.0048 60.6987 15.153 54.7151 9.24475ZM32.1779 57.2395L32.1672 57.2395C27.4314 57.2318 22.791 55.9721 18.7424 53.6003L17.7796 53.037L7.78855 55.596L10.471 46.024L9.84525 45.0412C7.20907 40.905 5.8233 36.1277 5.83393 31.2267C5.8625 16.92 17.721 5.29955 32.2755 5.32318C39.3232 5.33462 45.9447 8.04922 50.9182 12.961C55.8917 17.8753 58.6228 24.3979 58.6088 31.3307C58.5776 45.6427 46.7218 57.2631 32.1779 57.2395ZM46.6839 37.8295C45.8917 37.4371 41.9945 35.5433 41.2661 35.2822C40.5404 35.0212 40.0121 34.8891 39.4795 35.6678C38.947 36.4466 37.4279 38.203 36.9625 38.7246C36.4998 39.2436 36.0352 39.3085 35.243 38.9161C34.4507 38.5237 31.8946 37.6979 28.869 35.0337C26.5151 32.9613 24.9255 30.4045 24.4649 29.6215C24.0044 28.8385 24.4188 28.4191 24.8145 28.0313C25.1728 27.6827 25.6089 27.1216 26.0074 26.6655C26.4086 26.2147 26.5399 25.8894 26.8077 25.3674C27.0728 24.8481 26.9428 24.3911 26.7432 23.9996C26.5436 23.6108 24.9641 19.7677 24.3073 18.2047C23.6664 16.6811 23.012 16.8874 22.5235 16.863C22.0617 16.8386 21.5331 16.8352 21.0019 16.8343C20.4733 16.8334 19.6134 17.0263 18.886 17.8074C18.1586 18.5885 16.1053 20.4726 16.099 24.3105C16.0928 28.151 18.9299 31.8648 19.3241 32.3853C19.7184 32.9057 24.9033 40.7946 32.8558 44.186C34.7472 44.9924 36.2254 45.4752 37.3754 45.8367C39.2752 46.433 41.0052 46.3518 42.3724 46.1545C43.8971 45.9339 47.0686 44.2747 47.7336 42.454C48.3986 40.6332 48.4011 39.0687 48.2014 38.7455C48.0044 38.417 47.4762 38.2219 46.6839 37.8295Z" fill="white"/>
</svg>
