<svg width="198" height="55" viewBox="0 0 198 55" fill="none" xmlns="http://www.w3.org/2000/svg">
<path d="M96.054 49.3463C95.7594 49.4418 95.4409 49.4896 95.1144 49.4896C94.7004 49.4896 94.3341 49.4259 94.0076 49.2905C93.6812 49.1552 93.4104 48.972 93.1795 48.7331C92.9486 48.4943 92.7814 48.2076 92.6619 47.8732C92.5425 47.5387 92.4868 47.1725 92.4868 46.7664C92.4868 46.3603 92.5505 46.0179 92.6699 45.6834C92.7893 45.349 92.9725 45.0623 93.2034 44.8155C93.4343 44.5687 93.713 44.3776 94.0315 44.2422C94.358 44.1068 94.7163 44.0352 95.1144 44.0352C95.3931 44.0352 95.6639 44.067 95.9346 44.1307C95.9665 44.1387 96.0063 44.1546 96.054 44.1626C96.1018 44.1785 96.1496 44.1864 96.2053 44.2024C96.2531 44.2183 96.3088 44.2342 96.3487 44.2422C96.3885 44.2502 96.4362 44.2581 96.4681 44.2581C96.5637 44.2581 96.6273 44.2103 96.6512 44.1148H96.7388V44.4014C96.7388 44.505 96.7388 44.6085 96.7388 44.7199C96.7388 44.8314 96.7388 44.9349 96.7229 45.0385C96.7229 45.142 96.699 45.2296 96.6831 45.3092C96.4999 45.0146 96.3009 44.7916 96.0779 44.6403C95.855 44.489 95.5683 44.4094 95.21 44.4094C94.8517 44.4094 94.565 44.4731 94.3102 44.6005C94.0554 44.7279 93.8484 44.8951 93.6812 45.1101C93.5219 45.3251 93.3945 45.572 93.3149 45.8586C93.2352 46.1453 93.1954 46.4479 93.1954 46.7584C93.1954 47.0689 93.2352 47.3874 93.3228 47.6741C93.4025 47.9608 93.5299 48.2076 93.6971 48.4146C93.8643 48.6217 94.0793 48.7889 94.3341 48.9083C94.5889 49.0278 94.8915 49.0915 95.2498 49.0915C95.3772 49.0915 95.5126 49.0915 95.6559 49.0915C95.7992 49.0915 95.9426 49.0755 96.0859 49.0516C96.2292 49.0278 96.3646 48.9959 96.492 48.9402C96.6194 48.8924 96.7388 48.8207 96.8423 48.7331L96.8742 48.8685C96.6274 49.0915 96.3487 49.2507 96.054 49.3463Z" fill="#007EA9"/>
<path d="M101.93 47.8246C101.819 48.151 101.659 48.4457 101.452 48.6925C101.245 48.9393 100.983 49.1384 100.68 49.2817C100.377 49.4251 100.027 49.4967 99.629 49.4967C99.2309 49.4967 98.8805 49.4251 98.57 49.2817C98.2674 49.1384 98.0046 48.9473 97.7976 48.7005C97.5905 48.4536 97.4313 48.167 97.3278 47.8325C97.2243 47.4981 97.1685 47.1477 97.1685 46.7735C97.1685 46.3117 97.2402 45.9135 97.3755 45.5711C97.5189 45.2287 97.702 44.9421 97.9329 44.7112C98.1639 44.4802 98.4266 44.3051 98.7292 44.1936C99.0238 44.0821 99.3264 44.0264 99.629 44.0264C99.9316 44.0264 100.234 44.0901 100.529 44.2015C100.823 44.313 101.086 44.4882 101.325 44.7112C101.556 44.9421 101.747 45.2287 101.882 45.5711C102.026 45.9135 102.089 46.3196 102.089 46.7735C102.089 47.1477 102.034 47.4981 101.93 47.8246ZM101.301 45.9454C101.237 45.6667 101.134 45.4119 100.991 45.181C100.847 44.95 100.672 44.7669 100.449 44.6236C100.226 44.4802 99.9555 44.4086 99.637 44.4086C99.3184 44.4086 99.0397 44.4802 98.8168 44.6236C98.5938 44.7669 98.4107 44.958 98.2753 45.181C98.132 45.4119 98.0365 45.6667 97.9728 45.9454C97.909 46.2241 97.8772 46.5028 97.8772 46.7735C97.8772 47.0442 97.909 47.3229 97.9728 47.6096C98.0365 47.8883 98.14 48.1431 98.2753 48.374C98.4187 48.5969 98.5938 48.7801 98.8168 48.9234C99.0397 49.0667 99.3105 49.1384 99.637 49.1384C99.9634 49.1384 100.234 49.0667 100.457 48.9234C100.68 48.7801 100.863 48.597 101.007 48.366C101.15 48.1351 101.245 47.8803 101.309 47.6016C101.373 47.3229 101.405 47.0442 101.405 46.7735C101.405 46.5028 101.373 46.232 101.309 45.9454H101.301Z" fill="#007EA9"/>
<path d="M107.258 44.2495C107.202 44.2734 107.162 44.3052 107.138 44.353C107.114 44.4008 107.098 44.4565 107.098 44.5282C107.098 44.5998 107.098 44.6874 107.098 44.783V49.4252H106.7L103.587 44.9661V48.7484C103.587 48.8439 103.587 48.9315 103.587 49.0032C103.587 49.0749 103.603 49.1306 103.627 49.1784C103.65 49.2262 103.69 49.258 103.746 49.2819C103.802 49.3058 103.881 49.3137 103.985 49.3137V49.3934H102.735V49.3137C102.846 49.3137 102.926 49.3058 102.982 49.2819C103.037 49.258 103.077 49.2262 103.109 49.1863C103.133 49.1386 103.149 49.0828 103.149 49.0191C103.149 48.9475 103.149 48.8599 103.149 48.7564V44.5361C103.117 44.4724 103.093 44.4167 103.069 44.3689C103.045 44.3211 103.029 44.2893 102.998 44.2654C102.966 44.2415 102.942 44.2256 102.902 44.2176C102.862 44.2176 102.806 44.2097 102.727 44.2097V44.13H103.754C104.232 44.8467 104.717 45.5554 105.203 46.2481C105.697 46.9409 106.183 47.6495 106.652 48.3662V44.775C106.652 44.6715 106.652 44.5839 106.652 44.5122C106.652 44.4406 106.636 44.3769 106.613 44.3371C106.589 44.2893 106.549 44.2574 106.485 44.2335C106.429 44.2097 106.342 44.2017 106.23 44.2017V44.1221H107.489V44.2017C107.377 44.2017 107.297 44.2097 107.242 44.2335L107.258 44.2495Z" fill="#007EA9"/>
<path d="M108.34 49.2982C108.34 49.2982 108.301 49.3539 108.301 49.3937H108.205L108.165 48.263L108.181 48.2392H108.253C108.348 48.4621 108.468 48.6373 108.627 48.7727C108.786 48.908 108.953 49.0036 109.129 49.0673C109.304 49.131 109.487 49.1549 109.662 49.1389C109.837 49.123 110.005 49.0832 110.156 49.0036C110.299 48.9239 110.427 48.8204 110.514 48.6851C110.602 48.5497 110.65 48.3825 110.65 48.1993C110.65 47.9764 110.586 47.7932 110.466 47.642C110.347 47.4907 110.196 47.3553 110.013 47.2359C109.829 47.1164 109.63 46.997 109.415 46.8855C109.2 46.774 109.001 46.6466 108.818 46.5113C108.635 46.3759 108.484 46.2166 108.364 46.0335C108.245 45.8503 108.181 45.6194 108.181 45.3487C108.181 45.1496 108.221 44.9665 108.308 44.8072C108.396 44.648 108.508 44.5126 108.643 44.4011C108.786 44.2897 108.946 44.2021 109.121 44.1384C109.296 44.0826 109.479 44.0508 109.67 44.0508C109.782 44.0508 109.885 44.0587 109.997 44.0747C110.1 44.0906 110.204 44.1145 110.307 44.1463C110.315 44.1463 110.347 44.1623 110.395 44.1702C110.442 44.1861 110.49 44.1941 110.546 44.21C110.602 44.226 110.65 44.2419 110.697 44.2498C110.745 44.2658 110.769 44.2658 110.777 44.2658C110.865 44.2578 110.912 44.21 110.92 44.1224H111.008C111.032 44.3136 111.048 44.5126 111.064 44.7117C111.08 44.9108 111.087 45.1098 111.072 45.3009H110.984C110.92 45.1019 110.817 44.9426 110.681 44.8152C110.546 44.6878 110.395 44.5843 110.235 44.5206C110.076 44.4569 109.901 44.4171 109.726 44.4171C109.551 44.4171 109.399 44.4489 109.256 44.5126C109.113 44.5763 108.993 44.6639 108.906 44.7913C108.818 44.9187 108.77 45.07 108.77 45.2531C108.77 45.3965 108.81 45.5159 108.882 45.6194C108.953 45.7229 109.049 45.8265 109.153 45.9141C109.288 46.0255 109.431 46.1211 109.583 46.2166C109.734 46.3122 109.885 46.3998 110.036 46.4794L109.981 46.4555C110.148 46.5431 110.315 46.6387 110.474 46.7422C110.634 46.8457 110.777 46.9651 110.896 47.0925C111.016 47.2199 111.119 47.3712 111.191 47.5305C111.263 47.6897 111.302 47.8808 111.302 48.0958C111.302 48.3188 111.255 48.5178 111.151 48.693C111.056 48.8682 110.928 49.0115 110.769 49.131C110.61 49.2504 110.435 49.338 110.235 49.4017C110.036 49.4654 109.837 49.4973 109.638 49.4973C109.423 49.4973 109.216 49.4734 109.017 49.4176C108.818 49.3699 108.619 49.3141 108.412 49.2584C108.372 49.2584 108.348 49.2743 108.316 49.2982H108.34Z" fill="#007EA9"/>
<path d="M116.749 44.2183C116.669 44.2183 116.614 44.2422 116.574 44.282C116.534 44.3298 116.502 44.3776 116.486 44.4413C116.47 44.505 116.462 44.5687 116.462 44.6403V47.5547C116.462 48.1837 116.287 48.6615 115.945 48.9959C115.602 49.3303 115.117 49.4896 114.495 49.4896C113.874 49.4896 113.381 49.3224 113.046 48.9879C112.704 48.6535 112.537 48.1678 112.537 47.5467V44.6005C112.537 44.489 112.521 44.3935 112.497 44.3218C112.473 44.2501 112.393 44.2183 112.258 44.2183H112.138V44.1387H113.58V44.2183C113.5 44.2183 113.428 44.2183 113.381 44.2183C113.333 44.2183 113.293 44.2422 113.261 44.2661C113.229 44.29 113.213 44.3298 113.205 44.3855C113.198 44.4413 113.19 44.505 113.19 44.5925V47.5547C113.19 48.0324 113.301 48.4067 113.516 48.6854C113.739 48.9641 114.097 49.0994 114.591 49.0994C115.045 49.0994 115.403 48.972 115.65 48.7093C115.905 48.4465 116.024 48.0961 116.024 47.6423V44.5687C116.024 44.489 116.016 44.4253 115.992 44.3776C115.969 44.3298 115.929 44.282 115.873 44.2581C115.817 44.2342 115.73 44.2183 115.626 44.2183V44.1387H116.86V44.2183H116.741H116.749Z" fill="#007EA9"/>
<path d="M121.399 49.4007H117.895V49.3211C117.975 49.3211 118.047 49.3211 118.095 49.3131C118.142 49.3131 118.182 49.2893 118.206 49.2654C118.23 49.2415 118.246 49.2017 118.254 49.1539C118.254 49.1061 118.262 49.0344 118.262 48.9469V44.6072C118.262 44.5276 118.262 44.4559 118.254 44.4081C118.254 44.3603 118.23 44.3205 118.206 44.2887C118.182 44.2648 118.142 44.2489 118.095 44.2409C118.047 44.2409 117.983 44.2329 117.895 44.2329V44.1533H119.329V44.2329C119.249 44.2329 119.177 44.2329 119.13 44.2409C119.082 44.2409 119.034 44.2648 119.01 44.2887C118.978 44.3126 118.962 44.3524 118.954 44.4002C118.947 44.4479 118.939 44.5196 118.939 44.6072V48.8911C118.939 48.9389 118.954 48.9707 118.978 48.9946C119.002 49.0185 119.042 49.0344 119.082 49.0344C119.122 49.0344 119.162 49.0344 119.209 49.0344C119.249 49.0344 119.289 49.0344 119.321 49.0344H120.451C120.595 49.0344 120.714 49.0344 120.826 49.0185C120.937 49.0106 121.033 48.9867 121.112 48.9469C121.192 48.907 121.272 48.8513 121.335 48.7717C121.399 48.6921 121.463 48.5806 121.526 48.4532L121.63 48.4771L121.415 49.4167L121.399 49.4007Z" fill="#007EA9"/>
<path d="M124.95 45.0702C124.911 44.8631 124.847 44.7198 124.751 44.6481C124.664 44.5765 124.512 44.5367 124.305 44.5367H123.294V48.94C123.294 49.0356 123.294 49.1072 123.31 49.155C123.326 49.2028 123.342 49.2426 123.374 49.2665C123.406 49.2904 123.445 49.3063 123.501 49.3143C123.557 49.3143 123.629 49.3143 123.716 49.3143V49.3939H122.219V49.3143C122.299 49.3143 122.37 49.3143 122.426 49.3143C122.482 49.3143 122.522 49.2904 122.554 49.2665C122.585 49.2426 122.609 49.2028 122.617 49.155C122.625 49.1072 122.633 49.0356 122.633 48.94V44.5367H121.606C121.407 44.5367 121.256 44.5765 121.16 44.6561C121.065 44.7357 120.993 44.8711 120.953 45.0781H120.881L120.913 44.1465H124.998L125.022 45.0781H124.942L124.95 45.0702Z" fill="#007EA9"/>
<path d="M129.911 47.8246C129.8 48.151 129.64 48.4457 129.433 48.6925C129.226 48.9393 128.964 49.1384 128.661 49.2817C128.358 49.4251 128.008 49.4967 127.61 49.4967C127.212 49.4967 126.861 49.4251 126.551 49.2817C126.248 49.1384 125.986 48.9473 125.779 48.7005C125.572 48.4536 125.412 48.167 125.301 47.8325C125.189 47.4981 125.142 47.1477 125.142 46.7735C125.142 46.3117 125.213 45.9135 125.349 45.5711C125.492 45.2287 125.675 44.9421 125.906 44.7112C126.137 44.4802 126.4 44.3051 126.694 44.1936C126.989 44.0821 127.291 44.0264 127.594 44.0264C127.897 44.0264 128.199 44.0901 128.494 44.2015C128.788 44.313 129.051 44.4882 129.282 44.7112C129.513 44.9421 129.704 45.2287 129.84 45.5711C129.983 45.9135 130.047 46.3196 130.047 46.7735C130.047 47.1477 129.991 47.4981 129.887 47.8246H129.911ZM129.282 45.9454C129.218 45.6667 129.115 45.4119 128.98 45.181C128.836 44.95 128.661 44.7669 128.438 44.6236C128.215 44.4802 127.944 44.4086 127.618 44.4086C127.291 44.4086 127.021 44.4802 126.798 44.6236C126.575 44.7669 126.392 44.958 126.256 45.181C126.113 45.4119 126.017 45.6667 125.954 45.9454C125.89 46.2241 125.858 46.5028 125.858 46.7735C125.858 47.0442 125.89 47.3229 125.954 47.6096C126.017 47.8883 126.113 48.1431 126.256 48.374C126.4 48.5969 126.575 48.7801 126.798 48.9234C127.021 49.0667 127.291 49.1384 127.618 49.1384C127.944 49.1384 128.215 49.0667 128.438 48.9234C128.661 48.7801 128.844 48.597 128.988 48.366C129.131 48.1351 129.226 47.8803 129.29 47.6016C129.354 47.3229 129.386 47.0442 129.386 46.7735C129.386 46.5028 129.354 46.232 129.29 45.9454H129.282Z" fill="#007EA9"/>
<path d="M134.195 49.4007C134.068 49.13 133.948 48.8752 133.821 48.6602C133.694 48.4452 133.558 48.2382 133.415 48.0391C133.272 47.84 133.112 47.6649 132.937 47.4897C132.762 47.3145 132.571 47.1314 132.356 46.9403H131.799V48.9469C131.799 49.0344 131.799 49.1061 131.814 49.1539C131.822 49.2096 131.846 49.2415 131.87 49.2733C131.894 49.2972 131.934 49.3131 131.99 49.3211C132.045 49.3211 132.109 49.3211 132.189 49.3211V49.4007H130.779V49.3211C130.859 49.3211 130.923 49.3211 130.97 49.3131C131.018 49.3131 131.058 49.2893 131.082 49.2654C131.106 49.2415 131.122 49.2017 131.13 49.1539C131.13 49.1061 131.138 49.0344 131.138 48.9469V44.6072C131.138 44.5276 131.138 44.4559 131.13 44.4081C131.13 44.3603 131.106 44.3205 131.082 44.2887C131.058 44.2648 131.018 44.2489 130.97 44.2409C130.923 44.2409 130.859 44.2329 130.779 44.2329V44.1533H132.635C132.866 44.1533 133.081 44.1772 133.288 44.225C133.495 44.2728 133.686 44.3524 133.845 44.4639C134.004 44.5753 134.132 44.7187 134.227 44.8939C134.323 45.069 134.37 45.284 134.37 45.5468C134.37 45.7459 134.331 45.9131 134.259 46.0644C134.187 46.2157 134.092 46.3351 133.964 46.4386C133.837 46.5421 133.694 46.6218 133.534 46.6855C133.375 46.7492 133.208 46.789 133.033 46.8208C133.184 46.9482 133.303 47.0517 133.399 47.1393C133.495 47.2269 133.574 47.3145 133.646 47.3941C133.718 47.4738 133.781 47.5614 133.853 47.641C133.917 47.7286 134.004 47.8241 134.092 47.9436C134.195 48.071 134.291 48.2223 134.386 48.3815C134.482 48.5408 134.57 48.7 134.649 48.8433C134.729 48.9867 134.8 49.1061 134.872 49.2017C134.936 49.2972 135.007 49.353 135.063 49.353V49.4326H134.195V49.4007ZM131.806 46.574H132.181C132.364 46.574 132.547 46.5581 132.73 46.5262C132.905 46.4944 133.073 46.4306 133.216 46.351C133.359 46.2714 133.479 46.152 133.566 46.0086C133.654 45.8653 133.702 45.6822 133.702 45.4672C133.702 45.2761 133.662 45.1168 133.59 44.9894C133.518 44.862 133.423 44.7664 133.295 44.6948C133.176 44.6231 133.033 44.5753 132.881 44.5515C132.73 44.5276 132.571 44.5116 132.404 44.5116H132.252C132.205 44.5116 132.149 44.5116 132.093 44.5116C132.037 44.5116 131.982 44.5276 131.934 44.5515C131.886 44.5753 131.846 44.5992 131.814 44.639V46.574H131.806Z" fill="#007EA9"/>
<path d="M135.995 49.4014V49.3218C136.082 49.3218 136.154 49.3218 136.21 49.3218C136.265 49.3218 136.305 49.3059 136.337 49.282C136.369 49.2581 136.385 49.2183 136.401 49.1705C136.417 49.1227 136.417 49.0431 136.417 48.9555V44.6158C136.417 44.5203 136.417 44.4486 136.401 44.4008C136.393 44.3531 136.369 44.3132 136.337 44.2894C136.305 44.2655 136.265 44.2495 136.21 44.2495C136.154 44.2495 136.082 44.2495 135.995 44.2495V44.1699H137.5V44.2495C137.412 44.2495 137.34 44.2495 137.285 44.2495C137.229 44.2495 137.189 44.2655 137.157 44.2894C137.125 44.3132 137.102 44.3531 137.094 44.4008C137.086 44.4566 137.078 44.5282 137.078 44.6158V48.9555C137.078 49.051 137.078 49.1227 137.094 49.1705C137.109 49.2183 137.125 49.2581 137.157 49.282C137.189 49.3059 137.229 49.3218 137.285 49.3218C137.34 49.3218 137.412 49.3218 137.5 49.3218V49.4014H135.995Z" fill="#007EA9"/>
<path d="M142.214 49.4019V49.3223C142.333 49.3223 142.421 49.2984 142.476 49.2586C142.532 49.2188 142.532 49.1312 142.476 48.9958L141.999 47.8174H139.658L139.22 48.9082C139.164 49.0436 139.148 49.1471 139.172 49.2188C139.196 49.2905 139.291 49.3303 139.459 49.3303V49.4099H138.368V49.3303C138.431 49.3303 138.487 49.3064 138.527 49.2745C138.567 49.2427 138.607 49.2108 138.646 49.1631C138.678 49.1232 138.71 49.0755 138.734 49.0197C138.758 48.9719 138.782 48.9162 138.798 48.8684L140.788 44.0908H141.218L143.281 49.0675C143.336 49.2108 143.448 49.2905 143.615 49.3223V49.4019H142.214ZM140.836 44.903L139.809 47.4351H141.863L140.836 44.903Z" fill="#007EA9"/>
<path d="M149.882 49.3463C149.587 49.4418 149.269 49.4896 148.942 49.4896C148.528 49.4896 148.162 49.4259 147.836 49.2905C147.509 49.1552 147.238 48.972 147.007 48.7331C146.776 48.4943 146.609 48.2076 146.49 47.8732C146.37 47.5387 146.315 47.1725 146.315 46.7664C146.315 46.3603 146.378 46.0179 146.498 45.6834C146.617 45.349 146.8 45.0623 147.031 44.8155C147.262 44.5687 147.541 44.3776 147.859 44.2422C148.178 44.1068 148.544 44.0352 148.942 44.0352C149.221 44.0352 149.492 44.067 149.762 44.1307C149.794 44.1387 149.834 44.1546 149.882 44.1626C149.93 44.1785 149.985 44.1864 150.033 44.2024C150.089 44.2183 150.137 44.2342 150.185 44.2422C150.232 44.2502 150.272 44.2581 150.304 44.2581C150.399 44.2581 150.463 44.2103 150.487 44.1148H150.575V44.4014C150.575 44.505 150.575 44.6085 150.575 44.7199C150.575 44.8314 150.575 44.9349 150.559 45.0385C150.543 45.142 150.535 45.2296 150.519 45.3092C150.336 45.0146 150.137 44.7916 149.914 44.6403C149.691 44.489 149.404 44.4094 149.046 44.4094C148.688 44.4094 148.401 44.4731 148.146 44.6005C147.891 44.7279 147.684 44.8951 147.525 45.1101C147.366 45.3251 147.238 45.572 147.159 45.8586C147.079 46.1453 147.039 46.4479 147.039 46.7584C147.039 47.0689 147.079 47.3874 147.167 47.6741C147.246 47.9608 147.374 48.2076 147.541 48.4146C147.708 48.6217 147.923 48.7889 148.178 48.9083C148.433 49.0278 148.735 49.0915 149.094 49.0915C149.221 49.0915 149.356 49.0915 149.5 49.0915C149.643 49.0915 149.786 49.0755 149.93 49.0516C150.073 49.0278 150.208 48.9959 150.336 48.9402C150.463 48.8924 150.583 48.8207 150.686 48.7331L150.718 48.8685C150.471 49.0915 150.192 49.2507 149.898 49.3463H149.882Z" fill="#007EA9"/>
<path d="M155.758 47.8246C155.647 48.151 155.487 48.4457 155.28 48.6925C155.073 48.9393 154.81 49.1384 154.508 49.2817C154.205 49.4251 153.855 49.4967 153.457 49.4967C153.059 49.4967 152.708 49.4251 152.398 49.2817C152.095 49.1384 151.832 48.9473 151.625 48.7005C151.418 48.4536 151.259 48.167 151.148 47.8325C151.036 47.4981 150.988 47.1477 150.988 46.7735C150.988 46.3117 151.06 45.9135 151.195 45.5711C151.339 45.2287 151.522 44.9421 151.753 44.7112C151.984 44.4802 152.247 44.3051 152.541 44.1936C152.836 44.0821 153.138 44.0264 153.441 44.0264C153.743 44.0264 154.046 44.0901 154.341 44.2015C154.635 44.313 154.898 44.4882 155.129 44.7112C155.36 44.9421 155.551 45.2287 155.686 45.5711C155.83 45.9135 155.893 46.3196 155.893 46.7735C155.893 47.1477 155.838 47.4981 155.734 47.8246H155.758ZM155.129 45.9454C155.065 45.6667 154.962 45.4119 154.826 45.181C154.683 44.95 154.508 44.7669 154.285 44.6236C154.062 44.4802 153.791 44.4086 153.465 44.4086C153.138 44.4086 152.868 44.4802 152.645 44.6236C152.422 44.7669 152.239 44.958 152.103 45.181C151.96 45.4119 151.864 45.6667 151.801 45.9454C151.737 46.2241 151.705 46.5028 151.705 46.7735C151.705 47.0442 151.737 47.3229 151.801 47.6096C151.864 47.8883 151.96 48.1431 152.103 48.374C152.247 48.5969 152.422 48.7801 152.645 48.9234C152.868 49.0667 153.138 49.1384 153.465 49.1384C153.791 49.1384 154.062 49.0667 154.285 48.9234C154.508 48.7801 154.691 48.597 154.834 48.366C154.978 48.1351 155.073 47.8803 155.137 47.6016C155.201 47.3229 155.233 47.0442 155.233 46.7735C155.233 46.5028 155.201 46.232 155.137 45.9454H155.129Z" fill="#007EA9"/>
<path d="M160.042 49.4007C159.915 49.13 159.795 48.8752 159.668 48.6602C159.541 48.4452 159.405 48.2382 159.262 48.0391C159.119 47.84 158.959 47.6649 158.784 47.4897C158.609 47.3145 158.418 47.1314 158.203 46.9403H157.645V48.9469C157.645 49.0344 157.645 49.1061 157.661 49.1539C157.669 49.2096 157.693 49.2415 157.717 49.2733C157.741 49.2972 157.781 49.3131 157.837 49.3211C157.892 49.3211 157.956 49.3211 158.036 49.3211V49.4007H156.626V49.3211C156.706 49.3211 156.77 49.3211 156.817 49.3131C156.865 49.3131 156.905 49.2893 156.929 49.2654C156.953 49.2415 156.969 49.2017 156.977 49.1539C156.977 49.1061 156.985 49.0344 156.985 48.9469V44.6072C156.985 44.5276 156.985 44.4559 156.977 44.4081C156.977 44.3603 156.953 44.3205 156.929 44.2887C156.905 44.2648 156.865 44.2489 156.817 44.2409C156.77 44.2409 156.706 44.2329 156.626 44.2329V44.1533H158.482C158.712 44.1533 158.927 44.1772 159.134 44.225C159.342 44.2728 159.533 44.3524 159.692 44.4639C159.851 44.5753 159.979 44.7187 160.074 44.8939C160.17 45.069 160.217 45.284 160.217 45.5468C160.217 45.7459 160.178 45.9131 160.106 46.0644C160.034 46.2157 159.939 46.3351 159.811 46.4386C159.684 46.5421 159.541 46.6218 159.381 46.6855C159.222 46.7492 159.055 46.789 158.88 46.8208C159.031 46.9482 159.15 47.0517 159.246 47.1393C159.342 47.2269 159.421 47.3145 159.493 47.3941C159.564 47.4738 159.628 47.5614 159.7 47.641C159.764 47.7286 159.851 47.8241 159.939 47.9436C160.042 48.071 160.138 48.2223 160.233 48.3815C160.329 48.5408 160.416 48.7 160.496 48.8433C160.576 48.9867 160.647 49.1061 160.719 49.2017C160.783 49.2972 160.854 49.353 160.91 49.353V49.4326H160.042V49.4007ZM157.645 46.574H158.02C158.203 46.574 158.386 46.5581 158.569 46.5262C158.744 46.4944 158.912 46.4306 159.055 46.351C159.198 46.2714 159.318 46.152 159.405 46.0086C159.493 45.8653 159.541 45.6822 159.541 45.4672C159.541 45.2761 159.501 45.1168 159.429 44.9894C159.357 44.862 159.262 44.7664 159.134 44.6948C159.015 44.6231 158.872 44.5753 158.72 44.5515C158.569 44.5276 158.41 44.5116 158.243 44.5116H158.091C158.044 44.5116 157.988 44.5116 157.932 44.5116C157.876 44.5116 157.821 44.5276 157.773 44.5515C157.725 44.5753 157.685 44.5992 157.653 44.639V46.574H157.645Z" fill="#007EA9"/>
<path d="M162.877 48.94C162.877 49.0356 162.877 49.1072 162.893 49.155C162.901 49.2028 162.925 49.2426 162.957 49.2665C162.988 49.2904 163.028 49.3063 163.084 49.3143C163.14 49.3222 163.203 49.3143 163.283 49.3143V49.3939H161.858V49.3143C161.937 49.3143 162.001 49.3143 162.049 49.3063C162.097 49.3063 162.136 49.2824 162.16 49.2585C162.184 49.2346 162.2 49.1948 162.208 49.1471C162.208 49.0993 162.216 49.0276 162.216 48.94V44.6004C162.216 44.5207 162.216 44.4491 162.208 44.4013C162.208 44.3535 162.184 44.3137 162.16 44.2819C162.136 44.258 162.097 44.242 162.049 44.2341C162.001 44.2341 161.937 44.2261 161.858 44.2261V44.1465H163.61C163.84 44.1465 164.071 44.1704 164.286 44.2261C164.501 44.2819 164.7 44.3694 164.876 44.4809C165.043 44.6004 165.178 44.7516 165.282 44.9348C165.385 45.1179 165.433 45.3489 165.433 45.6116C165.433 45.8903 165.377 46.1292 165.274 46.3203C165.17 46.5114 165.027 46.6707 164.844 46.7981C164.669 46.9175 164.462 47.0051 164.231 47.0608C164 47.1166 163.761 47.1325 163.514 47.1325L162.877 47.1166V48.948V48.94ZM162.877 46.7184L163.426 46.7344C163.625 46.7344 163.801 46.7264 163.968 46.6866C164.127 46.6468 164.27 46.5831 164.39 46.4955C164.509 46.4079 164.597 46.2884 164.661 46.1372C164.724 45.9859 164.756 45.8107 164.756 45.5957C164.756 45.4046 164.724 45.2374 164.653 45.102C164.581 44.9587 164.485 44.8472 164.366 44.7676C164.247 44.68 164.111 44.6163 163.952 44.5765C163.793 44.5367 163.625 44.5128 163.45 44.5128C163.402 44.5128 163.355 44.5128 163.307 44.5048C163.259 44.5048 163.203 44.4889 163.156 44.4889C163.108 44.4889 163.052 44.4889 163.004 44.4889C162.957 44.4889 162.909 44.5128 162.877 44.5367V46.7264V46.7184Z" fill="#007EA9"/>
<path d="M170.983 47.8246C170.871 48.151 170.712 48.4457 170.505 48.6925C170.298 48.9393 170.035 49.1384 169.733 49.2817C169.43 49.4251 169.08 49.4967 168.682 49.4967C168.283 49.4967 167.933 49.4251 167.623 49.2817C167.32 49.1384 167.057 48.9473 166.85 48.7005C166.643 48.4536 166.484 48.167 166.372 47.8325C166.261 47.4981 166.213 47.1477 166.213 46.7735C166.213 46.3117 166.285 45.9135 166.42 45.5711C166.564 45.2287 166.747 44.9421 166.978 44.7112C167.209 44.4802 167.471 44.3051 167.766 44.1936C168.061 44.0821 168.363 44.0264 168.666 44.0264C168.968 44.0264 169.271 44.0901 169.565 44.2015C169.86 44.313 170.123 44.4882 170.354 44.7112C170.585 44.9421 170.776 45.2287 170.911 45.5711C171.055 45.9135 171.118 46.3196 171.118 46.7735C171.118 47.1477 171.062 47.4981 170.959 47.8246H170.983ZM170.346 45.9454C170.282 45.6667 170.179 45.4119 170.043 45.181C169.9 44.95 169.725 44.7669 169.502 44.6236C169.279 44.4802 169.008 44.4086 168.682 44.4086C168.355 44.4086 168.084 44.4802 167.861 44.6236C167.639 44.7669 167.455 44.958 167.32 45.181C167.177 45.4119 167.081 45.6667 167.017 45.9454C166.954 46.2241 166.922 46.5028 166.922 46.7735C166.922 47.0442 166.954 47.3229 167.017 47.6096C167.081 47.8883 167.177 48.1431 167.32 48.374C167.463 48.5969 167.639 48.7801 167.861 48.9234C168.084 49.0667 168.355 49.1384 168.682 49.1384C169.008 49.1384 169.279 49.0667 169.502 48.9234C169.725 48.7801 169.908 48.597 170.051 48.366C170.195 48.1351 170.29 47.8803 170.354 47.6016C170.417 47.3229 170.449 47.0442 170.449 46.7735C170.449 46.5028 170.417 46.232 170.354 45.9454H170.346Z" fill="#007EA9"/>
<path d="M175.259 49.4007C175.131 49.13 175.012 48.8752 174.884 48.6602C174.757 48.4452 174.622 48.2382 174.478 48.0391C174.335 47.84 174.176 47.6649 174 47.4897C173.825 47.3145 173.634 47.1314 173.419 46.9403H172.862V48.9469C172.862 49.0344 172.862 49.1061 172.878 49.1539C172.886 49.2096 172.91 49.2415 172.933 49.2733C172.957 49.2972 172.997 49.3131 173.053 49.3211C173.109 49.3211 173.172 49.3211 173.252 49.3211V49.4007H171.843V49.3211C171.922 49.3211 171.986 49.3211 172.034 49.3131C172.081 49.3131 172.121 49.2893 172.145 49.2654C172.169 49.2415 172.185 49.2017 172.193 49.1539C172.193 49.1061 172.201 49.0344 172.201 48.9469V44.6072C172.201 44.5276 172.201 44.4559 172.193 44.4081C172.193 44.3603 172.169 44.3205 172.145 44.2887C172.121 44.2648 172.081 44.2489 172.034 44.2409C171.986 44.2409 171.922 44.2329 171.843 44.2329V44.1533H173.698C173.929 44.1533 174.144 44.1772 174.351 44.225C174.558 44.2728 174.749 44.3524 174.908 44.4639C175.067 44.5753 175.195 44.7187 175.29 44.8939C175.386 45.069 175.434 45.284 175.434 45.5468C175.434 45.7459 175.394 45.9131 175.322 46.0644C175.251 46.2157 175.155 46.3351 175.028 46.4386C174.9 46.5421 174.757 46.6218 174.598 46.6855C174.438 46.7492 174.271 46.789 174.096 46.8208C174.247 46.9482 174.367 47.0517 174.462 47.1393C174.558 47.2269 174.637 47.3145 174.709 47.3941C174.781 47.4738 174.844 47.5614 174.916 47.641C174.98 47.7286 175.067 47.8241 175.155 47.9436C175.259 48.071 175.354 48.2223 175.45 48.3815C175.545 48.5408 175.633 48.7 175.712 48.8433C175.792 48.9867 175.864 49.1061 175.935 49.2017C175.999 49.2972 176.071 49.353 176.126 49.353V49.4326H175.259V49.4007ZM172.87 46.574H173.244C173.427 46.574 173.61 46.5581 173.793 46.5262C173.969 46.4944 174.136 46.4306 174.279 46.351C174.422 46.2714 174.542 46.152 174.629 46.0086C174.717 45.8653 174.765 45.6822 174.765 45.4672C174.765 45.2761 174.725 45.1168 174.653 44.9894C174.582 44.862 174.486 44.7664 174.359 44.6948C174.239 44.6231 174.096 44.5753 173.945 44.5515C173.793 44.5276 173.634 44.5116 173.467 44.5116H173.316C173.268 44.5116 173.212 44.5116 173.156 44.5116C173.101 44.5116 173.045 44.5276 172.997 44.5515C172.949 44.5753 172.91 44.5992 172.878 44.639V46.574H172.87Z" fill="#007EA9"/>
<path d="M180.347 49.4019V49.3223C180.466 49.3223 180.554 49.2984 180.61 49.2586C180.665 49.2188 180.665 49.1312 180.61 48.9958L180.132 47.8174H177.791L177.353 48.9082C177.297 49.0436 177.281 49.1471 177.305 49.2188C177.329 49.2905 177.425 49.3303 177.592 49.3303V49.4099H176.501V49.3303C176.565 49.3303 176.62 49.3064 176.66 49.2745C176.7 49.2427 176.74 49.2108 176.78 49.1631C176.811 49.1232 176.843 49.0755 176.867 49.0197C176.891 48.9719 176.915 48.9162 176.931 48.8684L178.922 44.0908H179.351L181.414 49.0675C181.47 49.2108 181.581 49.2905 181.748 49.3223V49.4019H180.347ZM178.977 44.903L177.95 47.4351H180.004L178.977 44.903Z" fill="#007EA9"/>
<path d="M185.339 45.0702C185.3 44.8631 185.236 44.7198 185.14 44.6481C185.053 44.5765 184.901 44.5367 184.694 44.5367H183.683V48.94C183.683 49.0356 183.683 49.1072 183.699 49.155C183.715 49.2028 183.731 49.2426 183.763 49.2665C183.795 49.2904 183.834 49.3063 183.89 49.3143C183.946 49.3143 184.018 49.3143 184.105 49.3143V49.3939H182.608V49.3143C182.688 49.3143 182.759 49.3143 182.815 49.3143C182.871 49.3143 182.911 49.2904 182.943 49.2665C182.974 49.2426 182.998 49.2028 183.006 49.155C183.014 49.1072 183.022 49.0356 183.022 48.94V44.5367H181.995C181.796 44.5367 181.645 44.5765 181.549 44.6561C181.454 44.7357 181.382 44.8711 181.342 45.0781H181.27L181.302 44.1465H185.387L185.411 45.0781H185.331L185.339 45.0702Z" fill="#007EA9"/>
<path d="M186.239 49.4014V49.3218C186.327 49.3218 186.398 49.3218 186.454 49.3218C186.51 49.3218 186.55 49.3059 186.582 49.282C186.613 49.2581 186.637 49.2183 186.645 49.1705C186.653 49.1227 186.661 49.0431 186.661 48.9555V44.6158C186.661 44.5203 186.661 44.4486 186.645 44.4008C186.637 44.3531 186.613 44.3132 186.582 44.2894C186.55 44.2655 186.51 44.2495 186.454 44.2495C186.398 44.2495 186.327 44.2495 186.239 44.2495V44.1699H187.744V44.2495C187.657 44.2495 187.585 44.2495 187.529 44.2495C187.473 44.2495 187.434 44.2655 187.402 44.2894C187.37 44.3132 187.354 44.3531 187.338 44.4008C187.33 44.4566 187.322 44.5282 187.322 44.6158V48.9555C187.322 49.051 187.322 49.1227 187.338 49.1705C187.354 49.2183 187.37 49.2581 187.402 49.282C187.434 49.3059 187.473 49.3218 187.529 49.3218C187.585 49.3218 187.657 49.3218 187.744 49.3218V49.4014H186.239Z" fill="#007EA9"/>
<path d="M193.366 44.3139C193.318 44.3776 193.27 44.4492 193.239 44.5368L191.335 49.4577H191.017L189.01 44.5527C188.971 44.4572 188.915 44.3776 188.859 44.3139C188.803 44.2581 188.716 44.2183 188.604 44.2183V44.1387H189.982V44.2183C189.926 44.2183 189.878 44.2183 189.83 44.2183C189.783 44.2183 189.743 44.2342 189.711 44.2501C189.679 44.2661 189.663 44.2979 189.655 44.3298C189.655 44.3696 189.655 44.4174 189.679 44.4811L191.264 48.4783L192.721 44.6562C192.777 44.5129 192.793 44.4014 192.761 44.3377C192.729 44.274 192.633 44.2342 192.466 44.2183V44.1387H193.589V44.2183C193.485 44.2183 193.406 44.2502 193.358 44.3139H193.366Z" fill="#007EA9"/>
<path d="M196.599 49.4019V49.3223C196.718 49.3223 196.806 49.2984 196.861 49.2586C196.917 49.2188 196.917 49.1312 196.861 48.9958L196.384 47.8174H194.043L193.605 48.9082C193.549 49.0436 193.533 49.1471 193.557 49.2188C193.581 49.2905 193.676 49.3303 193.844 49.3303V49.4099H192.753V49.3303C192.816 49.3303 192.872 49.3064 192.912 49.2745C192.952 49.2427 192.992 49.2108 193.031 49.1631C193.063 49.1232 193.095 49.0755 193.119 49.0197C193.143 48.9719 193.167 48.9162 193.183 48.8684L195.173 44.0908H195.603L197.666 49.0675C197.721 49.2108 197.833 49.2905 198 49.3223V49.4019H196.599ZM195.229 44.903L194.202 47.4351H196.256L195.229 44.903Z" fill="#007EA9"/>
<path d="M117.888 34.2399V33.7542C118.636 33.7542 119.185 33.6189 119.544 33.3402C119.902 33.0615 119.902 32.52 119.544 31.7078L116.526 24.3105H101.883L99.1593 31.1186C98.801 31.9626 98.6974 32.6076 98.8408 33.0615C98.9841 33.5153 99.5813 33.7463 100.616 33.7463V34.232H93.8083V33.7463C94.1985 33.7144 94.533 33.6029 94.8037 33.4039C95.0824 33.2128 95.3213 32.9818 95.5363 32.7191C95.7433 32.4563 95.9264 32.1696 96.0698 31.8432C96.2131 31.5167 96.3564 31.1982 96.4838 30.8717L108.937 0.963867H111.613L124.552 32.1458C124.911 33.0216 125.603 33.5551 126.646 33.7542V34.2399H117.888ZM109.28 6.06795L102.862 21.9296H115.706L109.288 6.06795H109.28Z" fill="#007EA9"/>
<path d="M145.478 33.9211C143.615 34.5183 141.656 34.8209 139.618 34.8209C137.022 34.8209 134.713 34.4068 132.682 33.5787C130.652 32.7506 128.932 31.596 127.499 30.099C126.073 28.61 124.983 26.8184 124.242 24.7242C123.494 22.63 123.119 20.3209 123.119 17.7887C123.119 15.2566 123.509 13.0907 124.29 11.0045C125.07 8.91033 126.177 7.09483 127.618 5.55803C129.059 4.02124 130.795 2.81887 132.826 1.9589C134.848 1.09893 137.118 0.668945 139.61 0.668945C141.33 0.668945 143.05 0.86005 144.77 1.25022C144.961 1.31392 145.216 1.38559 145.526 1.47318C145.837 1.56077 146.147 1.64039 146.474 1.74391C146.8 1.83946 147.103 1.91909 147.397 1.99075C147.692 2.05445 147.931 2.0863 148.13 2.0863C148.743 2.0863 149.133 1.79168 149.301 1.21041H149.834V3.00998C149.834 3.66292 149.826 4.32382 149.81 5.00861C149.794 5.6934 149.762 6.3543 149.715 6.99928C149.667 7.65222 149.579 8.21757 149.444 8.7033C148.305 6.85595 147.047 5.45452 145.646 4.499C144.252 3.54347 142.437 3.06571 140.199 3.06571C137.962 3.06571 136.146 3.46385 134.554 4.26012C132.961 5.05639 131.655 6.11542 130.636 7.44519C129.617 8.77496 128.852 10.3356 128.351 12.1113C127.849 13.895 127.594 15.7742 127.594 17.7569C127.594 19.7396 127.857 21.7143 128.375 23.498C128.892 25.2816 129.681 26.8343 130.732 28.1402C131.783 29.4541 133.112 30.4892 134.721 31.2536C136.329 32.018 138.232 32.4002 140.438 32.4002C141.218 32.4002 142.063 32.3843 142.97 32.3525C143.878 32.3206 144.778 32.233 145.67 32.0817C146.561 31.9384 147.413 31.7075 148.226 31.397C149.038 31.0864 149.762 30.6564 150.415 30.107L150.606 30.9351C149.054 32.3286 147.342 33.3239 145.471 33.9291L145.478 33.9211Z" fill="#007EA9"/>
<path d="M182.425 34.2395V33.7538C182.943 33.7538 183.365 33.7299 183.691 33.6821C184.018 33.6343 184.264 33.5308 184.448 33.3636C184.623 33.2043 184.75 32.9655 184.814 32.6549C184.878 32.3444 184.909 31.9144 184.909 31.365V5.09605L172.456 34.2315H170.799L158.346 5.72511V30.0989C158.346 30.712 158.346 31.2535 158.37 31.7074C158.386 32.1612 158.465 32.5434 158.609 32.854C158.752 33.1645 158.999 33.3875 159.341 33.5388C159.684 33.6821 160.193 33.7538 160.87 33.7538V34.2395H153.035V33.7538C153.72 33.7538 154.245 33.6821 154.619 33.5388C154.994 33.3954 155.248 33.1725 155.4 32.8858C155.543 32.5912 155.623 32.2249 155.639 31.7631C155.654 31.3092 155.662 30.7598 155.662 30.1069V4.17238C155.662 3.59111 155.623 3.13723 155.543 2.81076C155.463 2.48429 155.32 2.25337 155.129 2.10208C154.938 1.95079 154.667 1.8632 154.325 1.83135C153.982 1.7995 153.552 1.78358 153.035 1.78358V1.29785H160.623L172.448 28.2515L183.93 1.30581H191.375V1.79154C190.857 1.79154 190.443 1.81543 190.133 1.8632C189.822 1.91098 189.591 2.01449 189.424 2.18171C189.265 2.34096 189.153 2.58781 189.106 2.91428C189.058 3.24075 189.034 3.66277 189.034 4.18034V31.3729C189.034 31.9223 189.058 32.3523 189.106 32.6629C189.153 32.9734 189.257 33.2043 189.424 33.3716C189.583 33.5308 189.822 33.6423 190.133 33.6901C190.443 33.7378 190.857 33.7617 191.375 33.7617V34.2475H182.425V34.2395Z" fill="#007EA9"/>
<path d="M88.9989 27.025C88.9989 35.2106 88.9034 43.1017 88.7202 50.5547C88.4813 42.1939 88.3539 33.1961 88.3539 23.8081C88.3539 15.6224 88.4495 7.73139 88.6326 0.27832C88.8715 8.63914 88.9989 17.637 88.9989 27.025Z" fill="#007EA9"/>
<path d="M61.0739 44.0096C64.8603 44.0096 67.9298 40.9401 67.9298 37.1537C67.9298 33.3673 64.8603 30.2979 61.0739 30.2979C57.2875 30.2979 54.218 33.3673 54.218 37.1537C54.218 40.9401 57.2875 44.0096 61.0739 44.0096Z" fill="#007EA9"/>
<path d="M22.6459 44.0096C26.4323 44.0096 29.5018 40.9401 29.5018 37.1537C29.5018 33.3673 26.4323 30.2979 22.6459 30.2979C18.8595 30.2979 15.79 33.3673 15.79 37.1537C15.79 40.9401 18.8595 44.0096 22.6459 44.0096Z" fill="#007EA9"/>
<path d="M23.8561 34.0166L35.3304 17.0322C35.3304 17.0322 41.9155 18.1072 42.0031 22.2398C42.0031 22.2398 37.9103 13.664 25.8548 35.2907L23.8561 34.0166Z" fill="#007EA9"/>
<path d="M60.2854 34.0166L48.8112 17.0322C48.8112 17.0322 42.226 18.1072 42.1384 22.2398C42.1384 22.2398 46.2312 13.664 58.2868 35.2907L60.2854 34.0166Z" fill="#007EA9"/>
<path d="M84.2612 20.6874C82.183 22.8135 79.3005 24.1671 76.1074 24.2547C75.781 24.2388 75.4465 24.2388 75.1201 24.2388H75.0484C57.7455 24.2786 43.5799 37.6877 42.3456 54.6801C42.2819 53.8839 42.2581 53.0717 42.2581 52.2595C42.2581 36.9154 52.7847 24.0238 67.0061 20.4087C69.6019 19.7478 72.3172 19.3975 75.1201 19.3975C78.2972 19.3975 81.3628 19.8434 84.2612 20.6874Z" fill="#007EA9"/>
<path d="M84.2611 20.6874C82.1828 22.8135 79.3003 24.1671 76.1073 24.2547C75.9958 24.2627 75.8764 24.2627 75.7649 24.2627C75.526 24.2627 75.2871 24.2547 75.0483 24.2388C71.8632 24.0556 69.0205 22.6144 66.998 20.4087C69.5938 19.7478 72.3091 19.3975 75.112 19.3975C78.2891 19.3975 81.3547 19.8434 84.2531 20.6874H84.2611Z" fill="#007EA9"/>
<path d="M0 20.6874C2.07826 22.8135 4.96075 24.1671 8.15379 24.2547C8.48026 24.2388 8.81469 24.2388 9.14116 24.2388H9.21283C26.5157 24.2786 40.6814 37.6877 41.9156 54.6801C41.9793 53.8839 42.0032 53.0717 42.0032 52.2595C42.0032 36.9154 31.4765 24.0238 17.2551 20.4087C14.6593 19.7478 11.944 19.3975 9.14116 19.3975C5.96405 19.3975 2.89842 19.8434 0 20.6874Z" fill="#007EA9"/>
<path d="M0 20.6874C2.07826 22.8135 4.96075 24.1671 8.15379 24.2547C8.26527 24.2627 8.38471 24.2627 8.49619 24.2627C8.73507 24.2627 8.97395 24.2547 9.21283 24.2388C12.3979 24.0556 15.2406 22.6144 17.2631 20.4087C14.6673 19.7478 11.952 19.3975 9.14913 19.3975C5.97201 19.3975 2.90638 19.8434 0.00796269 20.6874H0Z" fill="#007EA9"/>
<path d="M73.7345 31.0545C73.7345 37.1778 71.927 42.8791 68.8136 47.6885H66.6318C69.9602 42.9667 71.919 37.2415 71.919 31.0545V30.9669C71.9031 31.3013 71.8872 31.6278 71.8633 31.9463C70.7963 16.9207 57.8967 5.04834 42.1306 5.04834C26.3645 5.04834 13.4729 16.9127 12.4059 31.9463C12.382 31.588 12.3581 31.2217 12.3502 30.8634C12.3502 30.9271 12.3502 30.9908 12.3502 31.0545C12.3502 37.2335 14.301 42.9667 17.6294 47.6885H15.4556C12.3422 42.8791 10.5347 37.1778 10.5347 31.0545C10.5347 13.9108 24.6844 0 42.1306 0C50.9931 0 59.0036 3.58321 64.7367 9.36412C65.4294 10.0569 66.0903 10.7815 66.7114 11.5379C71.1068 16.8729 73.7345 23.6571 73.7345 31.0545Z" fill="#007EA9"/>
<path d="M137.03 42.1784C137.101 42.0829 137.173 41.9953 137.245 41.8917C137.316 41.7882 137.396 41.7006 137.46 41.621C137.531 41.5414 137.587 41.4857 137.627 41.4697C137.707 41.4697 137.77 41.4697 137.818 41.4697C137.874 41.4697 137.93 41.5016 138.001 41.5414C138.009 41.5414 138.025 41.5573 138.049 41.5732C138.073 41.5812 138.089 41.5971 138.097 41.6131C138.113 41.629 138.121 41.6449 138.121 41.6608C138.121 41.6768 138.121 41.6927 138.097 41.7086L137.261 42.3775H136.87C136.902 42.3377 136.958 42.274 137.022 42.1784H137.03Z" fill="#007EA9"/>
</svg>
