<svg width="51" height="51" viewBox="0 0 51 51" fill="none" xmlns="http://www.w3.org/2000/svg">
<path d="M47.2483 38.5985C45.4653 36.8022 41.1472 34.1807 39.0521 33.1242C36.3237 31.75 36.0992 31.6378 33.9547 33.2309C32.5243 34.2941 31.5733 35.2439 29.8992 34.8868C28.2252 34.5298 24.5874 32.5168 21.4021 29.3419C18.2168 26.1669 16.0869 22.4238 15.7288 20.7555C15.3706 19.0872 16.3362 18.1475 17.3893 16.7138C18.8736 14.6929 18.7614 14.3561 17.4926 11.628C16.5035 9.50609 13.8054 5.22862 12.0023 3.45476C10.0734 1.54955 10.0734 1.88636 8.83045 2.4028C7.81858 2.82851 6.84782 3.34599 5.93034 3.94875C4.13391 5.14217 3.13689 6.13351 2.43965 7.62333C1.74241 9.11314 1.42915 12.6058 5.02988 19.1467C8.6306 25.6875 11.1568 29.032 16.3856 34.2458C21.6143 39.4596 25.635 42.2629 31.5127 45.5592C38.7837 49.6312 41.5727 48.8374 43.0671 48.1414C44.5615 47.4453 45.5574 46.4573 46.7531 44.661C47.3575 43.7451 47.8762 42.7755 48.3026 41.7645C48.8202 40.5261 49.157 40.5261 47.2483 38.5985Z" stroke="#000C15" stroke-width="4" stroke-miterlimit="10"/>
</svg>
