<svg width="47" height="47" viewBox="0 0 47 47" fill="none" xmlns="http://www.w3.org/2000/svg">
<path d="M4.20744 23.3535C4.20744 17.1182 4.2308 16.3787 4.34367 13.9169C4.46043 11.3714 5.04037 8.75005 6.89499 6.89542C8.76713 5.02328 11.3632 4.46087 13.9165 4.3441C16.3783 4.23123 17.1178 4.20788 23.3531 4.20788C29.5883 4.20788 30.3278 4.23123 32.7896 4.3441C35.3215 4.45892 37.9682 5.05248 39.8111 6.89542C41.6833 8.76756 42.2457 11.3617 42.3624 13.9169C42.4753 16.3787 42.4987 17.1182 42.4987 23.3535C42.4987 29.5888 42.4753 30.3283 42.3624 32.7901C42.2476 35.3025 41.6404 37.9842 39.8111 39.8116C37.9487 41.674 35.3273 42.2461 32.7896 42.3629C30.3278 42.4757 29.5883 42.4991 23.3531 42.4991C17.1178 42.4991 16.3783 42.4757 13.9165 42.3629C11.3943 42.2481 8.7321 41.6487 6.89499 39.8116C5.02674 37.9433 4.46043 35.3375 4.34367 32.7901C4.2308 30.3283 4.20744 29.5888 4.20744 23.3535ZM0 23.3535C0 29.6958 0.0272452 30.4917 0.140118 32.9827C0.305536 36.5927 1.30972 40.1774 3.91942 42.7871C6.53886 45.4066 10.1158 46.401 13.7238 46.5664C16.2148 46.6793 17.0108 46.7065 23.3531 46.7065C29.6954 46.7065 30.4913 46.6793 32.9823 46.5664C36.5884 46.401 40.1828 45.3929 42.7867 42.7871C45.4042 40.1696 46.4006 36.5869 46.566 32.9827C46.6789 30.4917 46.7061 29.6958 46.7061 23.3535C46.7061 17.0112 46.6789 16.2152 46.566 13.7242C46.4006 10.1162 45.3944 6.52761 42.7867 3.91986C40.1653 1.29848 36.5903 0.305973 32.9823 0.140553C30.4913 0.0276794 29.6954 0.000434875 23.3531 0.000434875C17.0108 0.000434875 16.2148 0.0276794 13.7238 0.140553C10.1138 0.305973 6.52718 1.3121 3.91942 3.91986C1.30582 6.53345 0.30359 10.1259 0.140118 13.7242C0.0272452 16.2152 0 17.0112 0 23.3535Z" fill="#000C15"/>
<path d="M11.3613 23.3535C11.3613 29.976 16.7306 35.3453 23.3531 35.3453C29.9756 35.3453 35.3449 29.976 35.3449 23.3535C35.3449 16.7309 29.9756 11.3617 23.3531 11.3617C16.7306 11.3617 11.3613 16.7309 11.3613 23.3535ZM31.1374 23.3535C31.1374 27.6524 27.652 31.1378 23.3531 31.1378C19.0542 31.1378 15.5687 27.6524 15.5687 23.3535C15.5687 19.0546 19.0542 15.5691 23.3531 15.5691C27.652 15.5691 31.1374 19.0546 31.1374 23.3535Z" fill="#000C15"/>
<path d="M13.6888 10.8871C13.6888 9.33935 12.4342 8.08469 10.8865 8.08469C9.33877 8.08469 8.08411 9.33935 8.08411 10.8871C8.08411 12.4348 9.33877 13.6894 10.8865 13.6894C12.4342 13.6894 13.6888 12.4348 13.6888 10.8871Z" fill="#000C15"/>
</svg>
