<svg width="51" height="51" viewBox="0 0 51 51" fill="none" xmlns="http://www.w3.org/2000/svg">
<path d="M25.4761 4.77713C14.0447 4.77713 4.77676 14.045 4.77676 25.4764C4.77676 36.9078 14.0447 46.1757 25.4761 46.1757C36.9075 46.1757 46.1754 36.9078 46.1754 25.4764C46.1754 14.045 36.9075 4.77713 25.4761 4.77713Z" stroke="#000C15" stroke-width="3.5" stroke-miterlimit="10"/>
<path d="M25.4761 4.77713C19.6972 4.77713 14.2636 14.045 14.2636 25.4764C14.2636 36.9078 19.6972 46.1757 25.4761 46.1757C31.2549 46.1757 36.6885 36.9078 36.6885 25.4764C36.6885 14.045 31.2549 4.77713 25.4761 4.77713Z" stroke="#000C15" stroke-width="3.5" stroke-miterlimit="10"/>
<path d="M11.6762 11.6766C15.4817 14.3784 20.2724 15.9896 25.4761 15.9896C30.6798 15.9896 35.4705 14.3784 39.2759 11.6766M39.2759 39.2763C35.4705 36.5744 30.6798 34.9633 25.4761 34.9633C20.2724 34.9633 15.4817 36.5744 11.6762 39.2763" stroke="#000C15" stroke-width="3.5" stroke-linecap="round" stroke-linejoin="round"/>
<path d="M25.4761 4.77713V46.1757M46.1754 25.4764H4.77676" stroke="#000C15" stroke-width="3.5" stroke-miterlimit="10"/>
</svg>
