<svg width="51" height="51" viewBox="0 0 51 51" fill="none" xmlns="http://www.w3.org/2000/svg">
<g clip-path="url(#clip0_696_93)">
<path d="M40.9549 40.9553H34.571V30.9581C34.571 28.574 34.5285 25.5062 31.2506 25.5062C27.926 25.5062 27.4165 28.1026 27.4165 30.7861V40.9553H21.0347V20.3961H27.1638V23.2049H27.2488C28.4992 21.0691 30.8218 19.7932 33.2951 19.8845C39.766 19.8845 40.957 24.1411 40.957 29.6758L40.9549 40.9553ZM13.8314 17.5853C11.7848 17.5853 10.1267 15.9272 10.1267 13.8806C10.1267 11.8341 11.7848 10.176 13.8314 10.176C15.8779 10.176 17.536 11.8341 17.536 13.8806C17.536 15.9272 15.8779 17.5853 13.8314 17.5853ZM17.0222 40.9553H10.632V20.3961H17.0222V40.9553ZM44.1373 4.24857H7.42414C5.68965 4.22946 4.26723 5.62003 4.246 7.35452V44.2184C4.26723 45.955 5.68965 47.3456 7.42414 47.3265H44.1373C45.876 47.3477 47.3048 45.9571 47.3281 44.2184V7.3524C47.3027 5.61366 45.8739 4.22309 44.1373 4.24644" fill="#000C15"/>
</g>
<defs>
<clipPath id="clip0_696_93">
<rect width="50.9521" height="50.9521" fill="white"/>
</clipPath>
</defs>
</svg>
