<svg width="45" height="45" viewBox="0 0 45 45" fill="none" xmlns="http://www.w3.org/2000/svg">
<path fill-rule="evenodd" clip-rule="evenodd" d="M38.2722 6.66297C36.2113 4.60107 33.7629 2.96716 31.068 1.85531C28.3731 0.743461 25.4849 0.175623 22.5696 0.184489C10.3351 0.184489 0.37558 10.0943 0.370604 22.277C0.365192 26.1563 1.38775 29.9677 3.33419 33.3233L0.184509 44.7676L11.9523 41.6955C15.2096 43.4602 18.856 44.3838 22.5606 44.3825H22.5696C34.8031 44.3825 44.7616 34.4717 44.7676 22.2899C44.775 19.3846 44.2046 16.5069 43.0895 13.8241C41.9743 11.1413 40.3368 8.70703 38.2722 6.66297ZM22.5696 40.6536H22.5616C19.2591 40.6546 16.0166 39.7708 13.1713 38.0941L12.4976 37.696L5.51458 39.5191L7.37851 32.7431L6.93965 32.0465C5.09301 29.1229 4.11464 25.735 4.11837 22.277C4.11837 12.1533 12.3991 3.91633 22.5766 3.91633C27.4588 3.90762 32.1446 5.83852 35.6033 9.28434C39.062 12.7302 41.0104 17.4087 41.0198 22.2909C41.0159 32.4157 32.7391 40.6536 22.5696 40.6536ZM32.6894 26.9015C32.1351 26.6249 29.4053 25.2894 28.8998 25.1053C28.3943 24.9211 28.0211 24.8286 27.6519 25.3819C27.2827 25.9352 26.2189 27.1732 25.8954 27.5464C25.572 27.9196 25.2486 27.9604 24.6943 27.6837C24.14 27.4071 22.3517 26.8249 20.233 24.944C18.584 23.4802 17.4714 21.6729 17.148 21.1206C16.8246 20.5683 17.1132 20.2688 17.3908 19.9941C17.6406 19.7463 17.9451 19.3493 18.2228 19.0268C18.5004 18.7044 18.593 18.4735 18.7771 18.1053C18.9612 17.7371 18.8696 17.4147 18.7313 17.139C18.593 16.8633 17.4834 14.1456 17.0216 13.0399C16.5708 11.9632 16.114 12.1095 15.7737 12.0926C15.4502 12.0766 15.0771 12.0727 14.7098 12.0727C14.4291 12.08 14.1529 12.1451 13.8985 12.2639C13.644 12.3827 13.4168 12.5527 13.231 12.7633C12.7225 13.3166 11.2895 14.6541 11.2895 17.3689C11.2895 20.0837 13.2798 22.7109 13.5545 23.0791C13.8291 23.4473 17.4654 29.0232 23.0294 31.4146C24.0625 31.857 25.1182 32.245 26.192 32.5769C27.5205 32.9969 28.7296 32.9381 29.685 32.7958C30.7508 32.6376 32.969 31.4603 33.4298 30.1706C33.8905 28.8809 33.8915 27.7763 33.7532 27.5464C33.6149 27.3165 33.2447 27.1772 32.6894 26.9015Z" fill="#000C15"/>
</svg>
