<svg width="53" height="53" viewBox="0 0 53 53" fill="none" xmlns="http://www.w3.org/2000/svg">
<g clip-path="url(#clip0_696_300)">
<path d="M4.68983 26.3974C4.68983 19.4473 4.71587 18.623 4.84168 15.8789C4.97183 13.0416 5.61826 10.1197 7.68551 8.05239C9.7723 5.96561 12.666 5.33871 15.512 5.20856C18.2561 5.08274 19.0804 5.05672 26.0305 5.05672C32.9807 5.05672 33.805 5.08274 36.549 5.20856C39.3712 5.33654 42.3213 5.99815 44.3756 8.05239C46.4623 10.1392 47.0892 13.0307 47.2194 15.8789C47.3452 18.623 47.3712 19.4473 47.3712 26.3974C47.3712 33.3476 47.3452 34.1719 47.2194 36.9159C47.0914 39.7164 46.4146 42.7055 44.3756 44.7424C42.2996 46.8184 39.3777 47.4561 36.549 47.5863C33.805 47.7121 32.9807 47.7381 26.0305 47.7381C19.0804 47.7381 18.2561 47.7121 15.512 47.5863C12.7007 47.4583 9.73325 46.7902 7.68551 44.7424C5.60307 42.66 4.97183 39.7554 4.84168 36.9159C4.71587 34.1719 4.68983 33.3476 4.68983 26.3974ZM0 26.3974C0 33.4669 0.030369 34.3541 0.156183 37.1307C0.340566 41.1546 1.45988 45.1502 4.36879 48.0592C7.28855 50.9789 11.2756 52.0874 15.2973 52.2718C18.0739 52.3976 18.9611 52.4279 26.0305 52.4279C33.1 52.4279 33.9872 52.3976 36.7638 52.2718C40.7833 52.0874 44.7899 50.9637 47.6923 48.0592C50.6099 45.1416 51.7205 41.1481 51.9049 37.1307C52.0307 34.3541 52.0611 33.4669 52.0611 26.3974C52.0611 19.328 52.0307 18.4407 51.9049 15.6642C51.7205 11.6424 50.599 7.64241 47.6923 4.73567C44.7703 1.81374 40.7855 0.707447 36.7638 0.523064C33.9872 0.397251 33.1 0.366882 26.0305 0.366882C18.9611 0.366882 18.0739 0.397251 15.2973 0.523064C11.2734 0.707447 7.27553 1.82893 4.36879 4.73567C1.45554 7.64892 0.338397 11.6533 0.156183 15.6642C0.030369 18.4407 0 19.328 0 26.3974Z" fill="#000C15"/>
<path d="M12.6638 26.3974C12.6638 33.7792 18.6487 39.7641 26.0305 39.7641C33.4124 39.7641 39.3972 33.7792 39.3972 26.3974C39.3972 19.0156 33.4124 13.0307 26.0305 13.0307C18.6487 13.0307 12.6638 19.0156 12.6638 26.3974ZM34.7074 26.3974C34.7074 31.1892 30.8223 35.0743 26.0305 35.0743C21.2387 35.0743 17.3537 31.1892 17.3537 26.3974C17.3537 21.6056 21.2387 17.7206 26.0305 17.7206C30.8223 17.7206 34.7074 21.6056 34.7074 26.3974Z" fill="#000C15"/>
<path d="M15.2582 12.5014C15.2582 10.7763 13.8597 9.37778 12.1346 9.37778C10.4094 9.37778 9.01089 10.7763 9.01089 12.5014C9.01089 14.2266 10.4094 15.6251 12.1346 15.6251C13.8597 15.6251 15.2582 14.2266 15.2582 12.5014Z" fill="#000C15"/>
</g>
<defs>
<clipPath id="clip0_696_300">
<rect width="52.0611" height="52.0611" fill="white" transform="matrix(0 -1 1 0 0 52.4279)"/>
</clipPath>
</defs>
</svg>
