<svg width="57" height="57" viewBox="0 0 57 57" fill="none" xmlns="http://www.w3.org/2000/svg">
<g clip-path="url(#clip0_696_280)">
<path d="M45.6504 45.6509H38.5346V34.5075C38.5346 31.85 38.4873 28.4305 34.8336 28.4305C31.1278 28.4305 30.5598 31.3247 30.5598 34.3158V45.6509H23.4464V22.7346H30.2782V25.8653H30.3729C31.7667 23.4847 34.3556 22.0625 37.1124 22.1643C44.3253 22.1643 45.6528 26.9089 45.6528 33.0782L45.6504 45.6509ZM15.4172 19.6015C13.1359 19.6015 11.2878 17.7533 11.2878 15.4721C11.2878 13.1908 13.1359 11.3427 15.4172 11.3427C17.6984 11.3427 19.5466 13.1908 19.5466 15.4721C19.5466 17.7533 17.6984 19.6015 15.4172 19.6015ZM18.9739 45.6509H11.851V22.7346H18.9739V45.6509ZM49.1977 4.73565H8.27534C6.34198 4.71436 4.75648 6.26436 4.73282 8.19771V49.2881C4.75648 51.2238 6.34198 52.7738 8.27534 52.7525H49.1977C51.1358 52.7762 52.7284 51.2262 52.7544 49.2881V8.19535C52.726 6.25726 51.1334 4.70726 49.1977 4.73329" fill="#000C15"/>
</g>
<defs>
<clipPath id="clip0_696_280">
<rect width="56.7939" height="56.7939" fill="white"/>
</clipPath>
</defs>
</svg>
