<svg width="57" height="57" viewBox="0 0 57 57" fill="none" xmlns="http://www.w3.org/2000/svg">
<path d="M28.397 5.3245C15.6549 5.3245 5.32443 15.655 5.32443 28.397C5.32443 41.139 15.6549 51.4695 28.397 51.4695C41.139 51.4695 51.4695 41.139 51.4695 28.397C51.4695 15.655 41.139 5.3245 28.397 5.3245Z" stroke="#000C15" stroke-width="3.5" stroke-miterlimit="10"/>
<path d="M28.3969 5.3245C21.9555 5.3245 15.899 15.655 15.899 28.397C15.899 41.139 21.9555 51.4695 28.3969 51.4695C34.8384 51.4695 40.8949 41.139 40.8949 28.397C40.8949 15.655 34.8384 5.3245 28.3969 5.3245Z" stroke="#000C15" stroke-width="3.5" stroke-miterlimit="10"/>
<path d="M13.0149 13.015C17.2567 16.0266 22.5966 17.8225 28.3969 17.8225C34.1972 17.8225 39.5372 16.0266 43.779 13.015M43.779 43.7791C39.5372 40.7674 34.1972 38.9715 28.3969 38.9715C22.5966 38.9715 17.2567 40.7674 13.0149 43.7791" stroke="#000C15" stroke-width="3.5" stroke-linecap="round" stroke-linejoin="round"/>
<path d="M28.397 5.3245V51.4695M51.4695 28.397H5.32443" stroke="#000C15" stroke-width="3.5" stroke-miterlimit="10"/>
</svg>
