<svg width="57" height="57" viewBox="0 0 57 57" fill="none" xmlns="http://www.w3.org/2000/svg">
<path d="M52.4361 43.1604C50.4487 41.1582 45.6355 38.2361 43.3002 37.0585C40.259 35.5268 40.0087 35.4017 37.6184 37.1774C36.024 38.3625 34.9639 39.4212 33.098 39.0233C31.232 38.6253 27.1771 36.3815 23.6266 32.8425C20.0761 29.3035 17.702 25.1313 17.3028 23.2717C16.9036 21.4121 17.9798 20.3647 19.1538 18.7666C20.8082 16.5141 20.6831 16.1386 19.2689 13.0977C18.1663 10.7325 15.159 5.96464 13.1491 3.9874C10.999 1.86375 10.999 2.23918 9.61358 2.81483C8.48569 3.28935 7.40364 3.86616 6.38096 4.53803C4.37856 5.86828 3.26723 6.97328 2.49005 8.63391C1.71287 10.2945 1.3637 14.1877 5.37726 21.4784C9.39082 28.7692 12.2067 32.4971 18.0349 38.3087C23.8631 44.1203 28.3448 47.245 34.8964 50.9192C43.0011 55.4581 46.1098 54.5733 47.7755 53.7974C49.4413 53.0216 50.5513 51.9203 51.8842 49.9181C52.5578 48.8972 53.136 47.8164 53.6113 46.6894C54.1882 45.3091 54.5637 45.3091 52.4361 43.1604Z" stroke="#000C15" stroke-width="4" stroke-miterlimit="10"/>
</svg>
