<svg width="57" height="57" viewBox="0 0 57 57" fill="none" xmlns="http://www.w3.org/2000/svg">
<path fill-rule="evenodd" clip-rule="evenodd" d="M46.0042 10.7709C43.707 8.47257 40.9779 6.65134 37.974 5.41201C34.9701 4.17268 31.7507 3.53974 28.5012 3.54962C14.864 3.54962 3.7626 14.5956 3.75705 28.1751C3.75102 32.4991 4.89082 36.7475 7.06042 40.4878L3.54962 53.2443L16.6666 49.82C20.2974 51.787 24.3618 52.8164 28.4912 52.815H28.5012C42.1373 52.815 53.2376 41.7679 53.2443 28.1895C53.2525 24.9511 52.6167 21.7434 51.3737 18.753C50.1308 15.7626 48.3055 13.0493 46.0042 10.7709ZM28.5012 48.6586H28.4923C24.8111 48.6597 21.1969 47.6745 18.0254 45.8056L17.2744 45.3619L9.49079 47.3941L11.5684 39.8411L11.0792 39.0647C9.0209 35.8059 7.93035 32.0295 7.93451 28.1751C7.93451 16.8906 17.1646 7.70933 28.509 7.70933C33.951 7.69961 39.174 9.85189 43.0292 13.6928C46.8845 17.5337 49.0562 22.7486 49.0668 28.1906C49.0624 39.4762 39.8367 48.6586 28.5012 48.6586ZM39.7812 33.3298C39.1634 33.0214 36.1207 31.5328 35.5572 31.3276C34.9937 31.1224 34.5777 31.0192 34.1662 31.636C33.7547 32.2527 32.5689 33.6326 32.2084 34.0486C31.8478 34.4646 31.4873 34.5101 30.8695 34.2017C30.2516 33.8933 28.2583 33.2444 25.8967 31.1479C24.0587 29.5162 22.8185 27.5018 22.458 26.8861C22.0975 26.2705 22.4192 25.9366 22.7287 25.6305C23.0071 25.3543 23.3465 24.9117 23.656 24.5523C23.9655 24.1929 24.0686 23.9355 24.2738 23.5251C24.4791 23.1147 24.377 22.7553 24.2228 22.448C24.0686 22.1407 22.8318 19.1114 22.3171 17.879C21.8146 16.6788 21.3055 16.8418 20.9261 16.823C20.5656 16.8052 20.1496 16.8008 19.7403 16.8008C19.4274 16.8089 19.1195 16.8815 18.8359 17.014C18.5523 17.1464 18.2991 17.3359 18.092 17.5706C17.5251 18.1874 15.9278 19.6782 15.9278 22.7042C15.9278 25.7303 18.1463 28.6587 18.4525 29.0692C18.7586 29.4796 22.8118 35.6947 29.0137 38.3603C30.1653 38.8535 31.342 39.2859 32.5389 39.6559C34.0198 40.124 35.3675 40.0586 36.4324 39.8999C37.6204 39.7236 40.0929 38.4113 40.6065 36.9737C41.1201 35.5361 41.1212 34.3048 40.967 34.0486C40.8129 33.7924 40.4002 33.6371 39.7812 33.3298Z" fill="#000C15"/>
</svg>
